<?plantuml 1.2026.1?><svg xmlns="http://www.w3.org/2000/svg" xmlns:xlink="http://www.w3.org/1999/xlink" contentStyleType="text/css" data-diagram-type="CLASS" height="577px" preserveAspectRatio="none" style="width:310px;height:577px;background:#FFFFFF;" version="1.1" viewBox="0 0 310 577" width="310px" zoomAndPan="magnify"><defs/><g><!--cluster TSC Material Theme.lvlib--><g class="cluster" data-qualified-name="TSC Material Theme.lvlib" data-source-line="35" id="ent0004"><path d="M51.64,471.12 L249.7679,471.12 A3.75,3.75 0 0 1 252.2679,473.62 L259.2679,493.4169 L259.64,493.4169 A2.5,2.5 0 0 1 262.14,495.9169 L262.14,567.62 A2.5,2.5 0 0 1 259.64,570.12 L51.64,570.12 A2.5,2.5 0 0 1 49.14,567.62 L49.14,473.62 A2.5,2.5 0 0 1 51.64,471.12" fill="none" style="stroke:#000000;stroke-width:1.5;"/><line style="stroke:#000000;stroke-width:1.5;" x1="49.14" x2="259.2679" y1="493.4169" y2="493.4169"/><text fill="#000000" font-family="sans-serif" font-size="14" font-weight="bold" lengthAdjust="spacing" textLength="197.1279" x="53.14" y="486.1151">TSC Material Theme.lvlib</text></g><!--class Material Theme--><g class="entity" data-qualified-name="TSC Material Theme.lvlib.Material Theme" data-source-line="35" id="ent0003"><rect fill="#FFFFFF" height="48" rx="2.5" ry="2.5" style="stroke:#555555;stroke-width:0.5;" width="141.6143" x="84.33" y="506.12"/><rect fill="#808080" height="32" rx="2.5" ry="2.5" style="stroke:#808080;stroke-width:0.5;" width="141.6143" x="84.33" y="506.12"/><rect fill="#808080" height="2.5" style="stroke:#808080;stroke-width:0.5;" width="141.6143" x="84.33" y="535.62"/><rect fill="none" height="48" rx="2.5" ry="2.5" style="stroke:#555555;stroke-width:0.5;" width="141.6143" x="84.33" y="506.12"/><ellipse cx="99.33" cy="522.12" fill="#ADD1B2" rx="11" ry="11" style="stroke:#181818;stroke-width:1;"/><path d="M102.2988,527.7606 Q101.7206,528.0575 101.08,528.1981 Q100.4394,528.3544 99.7363,528.3544 Q97.2363,528.3544 95.9081,526.7138 Q94.5956,525.0575 94.5956,521.9325 Q94.5956,518.8075 95.9081,517.1513 Q97.2363,515.495 99.7363,515.495 Q100.4394,515.495 101.08,515.6513 Q101.7363,515.8075 102.2988,516.1044 L102.2988,518.8231 Q101.6738,518.245 101.08,517.9794 Q100.4863,517.6981 99.8613,517.6981 Q98.5175,517.6981 97.83,518.7763 Q97.1425,519.8388 97.1425,521.9325 Q97.1425,524.0263 97.83,525.1044 Q98.5175,526.1669 99.8613,526.1669 Q100.4863,526.1669 101.08,525.9013 Q101.6738,525.62 102.2988,525.0419 L102.2988,527.7606 Z " fill="#000000"/><text fill="#000000" font-family="sans-serif" font-size="14" lengthAdjust="spacing" textLength="109.6143" x="113.33" y="526.9667">Material Theme</text><line style="stroke:#555555;stroke-width:0.5;" x1="85.33" x2="224.9443" y1="538.12" y2="538.12"/><line style="stroke:#555555;stroke-width:0.5;" x1="85.33" x2="224.9443" y1="546.12" y2="546.12"/></g><!--class TSC Button Editor--><g class="entity" data-qualified-name="TSC Button Editor" data-source-line="8" id="ent0002"><rect fill="#FFFFFF" height="439.125" rx="2.5" ry="2.5" style="stroke:#555555;stroke-width:0.5;" width="296.2793" x="7" y="7"/><rect fill="#808080" height="32" rx="2.5" ry="2.5" style="stroke:#808080;stroke-width:0.5;" width="296.2793" x="7" y="7"/><rect fill="#808080" height="2.5" style="stroke:#808080;stroke-width:0.5;" width="296.2793" x="7" y="36.5"/><rect fill="none" height="439.125" rx="2.5" ry="2.5" style="stroke:#555555;stroke-width:0.5;" width="296.2793" x="7" y="7"/><ellipse cx="88.6689" cy="23" fill="#ADD1B2" rx="11" ry="11" style="stroke:#181818;stroke-width:1;"/><path d="M91.6377,28.6406 Q91.0596,28.9375 90.4189,29.0781 Q89.7783,29.2344 89.0752,29.2344 Q86.5752,29.2344 85.2471,27.5938 Q83.9346,25.9375 83.9346,22.8125 Q83.9346,19.6875 85.2471,18.0313 Q86.5752,16.375 89.0752,16.375 Q89.7783,16.375 90.4189,16.5313 Q91.0752,16.6875 91.6377,16.9844 L91.6377,19.7031 Q91.0127,19.125 90.4189,18.8594 Q89.8252,18.5781 89.2002,18.5781 Q87.8564,18.5781 87.1689,19.6563 Q86.4814,20.7188 86.4814,22.8125 Q86.4814,24.9063 87.1689,25.9844 Q87.8564,27.0469 89.2002,27.0469 Q89.8252,27.0469 90.4189,26.7813 Q91.0127,26.5 91.6377,25.9219 L91.6377,28.6406 Z " fill="#000000"/><text fill="#000000" font-family="sans-serif" font-size="14" lengthAdjust="spacing" textLength="124.4414" x="109.1689" y="27.8467">TSC Button Editor</text><line style="stroke:#555555;stroke-width:0.5;" x1="8" x2="302.2793" y1="39" y2="39"/><g data-visibility-modifier="PRIVATE_FIELD"><rect fill="none" height="6" style="stroke:#C82930;stroke-width:1;" width="6" x="15" y="49.6484"/></g><text fill="#000000" font-family="sans-serif" font-size="14" lengthAdjust="spacing" textLength="155.9961" x="27" y="55.9951">image directory : Path</text><g data-visibility-modifier="PRIVATE_FIELD"><rect fill="none" height="6" style="stroke:#C82930;stroke-width:1;" width="6" x="15" y="65.9453"/></g><text fill="#000000" font-family="sans-serif" font-size="14" lengthAdjust="spacing" textLength="119.9297" x="27" y="72.292">last theme : Path</text><g data-visibility-modifier="PRIVATE_FIELD"><rect fill="none" height="6" style="stroke:#C82930;stroke-width:1;" width="6" x="15" y="82.2422"/></g><text fill="#000000" font-family="sans-serif" font-size="14" lengthAdjust="spacing" textLength="166.4482" x="27" y="88.5889">Editor Theme : LV Class</text><g data-visibility-modifier="PRIVATE_FIELD"><rect fill="none" height="6" style="stroke:#C82930;stroke-width:1;" width="6" x="15" y="98.5391"/></g><text fill="#000000" font-family="sans-serif" font-size="14" lengthAdjust="spacing" textLength="182.4033" x="27" y="104.8857">subpanel VI ref : kLVObjVI</text><g data-visibility-modifier="PRIVATE_FIELD"><rect fill="none" height="6" style="stroke:#C82930;stroke-width:1;" width="6" x="15" y="114.8359"/></g><text fill="#000000" font-family="sans-serif" font-size="14" lengthAdjust="spacing" textLength="163.3311" x="27" y="121.1826">subpanel VI path : Path</text><g data-visibility-modifier="PRIVATE_FIELD"><rect fill="none" height="6" style="stroke:#C82930;stroke-width:1;" width="6" x="15" y="131.1328"/></g><text fill="#000000" font-family="sans-serif" font-size="14" lengthAdjust="spacing" textLength="158.9697" x="27" y="137.4795">control top level : Path</text><g data-visibility-modifier="PRIVATE_FIELD"><rect fill="none" height="6" style="stroke:#C82930;stroke-width:1;" width="6" x="15" y="147.4297"/></g><text fill="#000000" font-family="sans-serif" font-size="14" lengthAdjust="spacing" textLength="212.6387" x="27" y="153.7764">Image Names : Array of String</text><g data-visibility-modifier="PRIVATE_FIELD"><rect fill="none" height="6" style="stroke:#C82930;stroke-width:1;" width="6" x="15" y="163.7266"/></g><text fill="#000000" font-family="sans-serif" font-size="14" lengthAdjust="spacing" textLength="174.7949" x="27" y="170.0732">Images : Array of Cluster</text><g data-visibility-modifier="PRIVATE_FIELD"><rect fill="none" height="6" style="stroke:#C82930;stroke-width:1;" width="6" x="15" y="180.0234"/></g><text fill="#000000" font-family="sans-serif" font-size="14" lengthAdjust="spacing" textLength="270.2793" x="27" y="186.3701">Filtered Image Names : Array of String</text><line style="stroke:#555555;stroke-width:0.5;" x1="8" x2="302.2793" y1="193.6719" y2="193.6719"/><g data-visibility-modifier="PRIVATE_METHOD"><rect fill="#F24D5C" height="6" style="stroke:#C82930;stroke-width:1;" width="6" x="15" y="204.3203"/></g><text fill="#000000" font-family="sans-serif" font-size="14" lengthAdjust="spacing" text-decoration="underline" textLength="224.0342" x="27" y="210.667">Button Editor Config--constant()</text><g data-visibility-modifier="PRIVATE_METHOD"><rect fill="#F24D5C" height="6" style="stroke:#C82930;stroke-width:1;" width="6" x="15" y="220.6172"/></g><text fill="#000000" font-family="sans-serif" font-size="14" lengthAdjust="spacing" text-decoration="underline" textLength="212.7207" x="27" y="226.9639">Image List Column--constant()</text><g data-visibility-modifier="PRIVATE_METHOD"><rect fill="#F24D5C" height="6" style="stroke:#C82930;stroke-width:1;" width="6" x="15" y="236.9141"/></g><text fill="#000000" font-family="sans-serif" font-size="14" lengthAdjust="spacing" text-decoration="underline" textLength="154.6563" x="27" y="243.2607">Image List--constant()</text><g data-visibility-modifier="PRIVATE_METHOD"><rect fill="#F24D5C" height="6" style="stroke:#C82930;stroke-width:1;" width="6" x="15" y="253.2109"/></g><text fill="#000000" font-family="sans-serif" font-size="14" lengthAdjust="spacing" text-decoration="underline" textLength="163.5156" x="27" y="259.5576">Array Point to RowCol()</text><g data-visibility-modifier="PRIVATE_METHOD"><rect fill="#F24D5C" height="6" style="stroke:#C82930;stroke-width:1;" width="6" x="15" y="269.5078"/></g><text fill="#000000" font-family="sans-serif" font-size="14" lengthAdjust="spacing" text-decoration="underline" textLength="182.1025" x="27" y="275.8545">Change Image Directory()</text><g data-visibility-modifier="PRIVATE_METHOD"><rect fill="#F24D5C" height="6" style="stroke:#C82930;stroke-width:1;" width="6" x="15" y="285.8047"/></g><text fill="#000000" font-family="sans-serif" font-size="14" lengthAdjust="spacing" text-decoration="underline" textLength="154.9092" x="27" y="292.1514">Check for Image List()</text><g data-visibility-modifier="PRIVATE_METHOD"><rect fill="#F24D5C" height="6" style="stroke:#C82930;stroke-width:1;" width="6" x="15" y="302.1016"/></g><text fill="#000000" font-family="sans-serif" font-size="14" lengthAdjust="spacing" text-decoration="underline" textLength="175.417" x="27" y="308.4482">Grab LabVIEW Versions()</text><g data-visibility-modifier="PRIVATE_METHOD"><rect fill="#F24D5C" height="6" style="stroke:#C82930;stroke-width:1;" width="6" x="15" y="318.3984"/></g><text fill="#000000" font-family="sans-serif" font-size="14" lengthAdjust="spacing" text-decoration="underline" textLength="117.0654" x="27" y="324.7451">Init Editor Data()</text><g data-visibility-modifier="PRIVATE_METHOD"><rect fill="#F24D5C" height="6" style="stroke:#C82930;stroke-width:1;" width="6" x="15" y="334.6953"/></g><text fill="#000000" font-family="sans-serif" font-size="14" lengthAdjust="spacing" text-decoration="underline" textLength="156.5498" x="27" y="341.042">Load VI for Subpanel()</text><g data-visibility-modifier="PRIVATE_METHOD"><rect fill="#F24D5C" height="6" style="stroke:#C82930;stroke-width:1;" width="6" x="15" y="350.9922"/></g><text fill="#000000" font-family="sans-serif" font-size="14" lengthAdjust="spacing" text-decoration="underline" textLength="129.0488" x="27" y="357.3389">Save Editor Data()</text><g data-visibility-modifier="PRIVATE_METHOD"><rect fill="#F24D5C" height="6" style="stroke:#C82930;stroke-width:1;" width="6" x="15" y="367.2891"/></g><text fill="#000000" font-family="sans-serif" font-size="14" lengthAdjust="spacing" text-decoration="underline" textLength="130.8877" x="27" y="373.6357">Sort Image Table()</text><g data-visibility-modifier="PRIVATE_METHOD"><rect fill="#F24D5C" height="6" style="stroke:#C82930;stroke-width:1;" width="6" x="15" y="383.5859"/></g><text fill="#000000" font-family="sans-serif" font-size="14" lengthAdjust="spacing" text-decoration="underline" textLength="213.582" x="27" y="389.9326">Update Custom UI for Button()</text><g data-visibility-modifier="PRIVATE_METHOD"><rect fill="#F24D5C" height="6" style="stroke:#C82930;stroke-width:1;" width="6" x="15" y="399.8828"/></g><text fill="#000000" font-family="sans-serif" font-size="14" lengthAdjust="spacing" text-decoration="underline" textLength="129.9785" x="27" y="406.2295">User Event Close()</text><g data-visibility-modifier="PRIVATE_METHOD"><rect fill="#F24D5C" height="6" style="stroke:#C82930;stroke-width:1;" width="6" x="15" y="416.1797"/></g><text fill="#000000" font-family="sans-serif" font-size="14" lengthAdjust="spacing" text-decoration="underline" textLength="114.2217" x="27" y="422.5264">User Event Init()</text><g data-visibility-modifier="PUBLIC_METHOD"><ellipse cx="18" cy="435.4766" fill="#84BE84" rx="3" ry="3" style="stroke:#038048;stroke-width:1;"/></g><text fill="#000000" font-family="sans-serif" font-size="14" lengthAdjust="spacing" text-decoration="underline" textLength="169.3877" x="27" y="438.8232">Edit a Button--Material()</text></g><!--reverse link TSC Button Editor to Material Theme--><g class="link" data-entity-1="ent0002" data-entity-2="ent0003" data-link-type="composition" data-source-line="35" id="lnk5"><path codeLine="35" d="M155.14,458.32 C155.14,481.98 155.14,490.82 155.14,505.68" fill="none" id="TSC Button Editor-backto-Material Theme" style="stroke:#181818;stroke-width:1;"/><polygon fill="#181818" points="155.14,446.32,151.14,452.32,155.14,458.32,159.14,452.32,155.14,446.32" style="stroke:#181818;stroke-width:1;"/></g><?plantuml-src ZPDDZzf038Rl-HKMU-c7KksbKiMjcuKMAMrN3PkUdSI1APEPQCPGhH3_lHuIn091x4Gv97xy-cDiJmm66_8jbfHHYmxPEXX7VgLC-6eWqUZz0vQhXRDhKoLM2t0ttPyBpBgAN8zytfzpP6eDzy3z_fm3tmb5uoBWb_lmHAzejgsyK5Xcsq2b79Mih8dAe0AZUPR0mrfi1YQLagf6i8ssjI9TxI1M3IweTxBk1SRmXBmysaM3WPVKq8MfKuDvRqppBkyZuDT5YuOqv3DmL0kpIlDVnTzyDioq8dyHfPG-EQltLMhQ27bEpFOb_0ot9xQlpk4Bs1eoTieiph0J8j5hp-IEo5Hf-QOARaXwHbRb3hODyT86pvC6Gs9DhHPno5rGm-_U3_bqGL8b3PQxNJVcxGwto2xZ9wiCXz7uRVz9X64qMQ8HrKxxyJ07rrWgLr1BXSTKXibl3Wj8iSXdap-Ga_CoaFvALKRneN6Fo3XCfHQhC2CXUDRFp32PuOPkwsNMSL_570jDmzHpMo4J938dibhFNVZkhgyuU78msP3qFT7MqqqgL3y8VGmb0FRHulY79E8KXgAZNJIqrH_YkDls0zgjvYUzqQeOd_uSHL7q7m00?></g></svg>