<svg xmlns="http://www.w3.org/2000/svg" xmlns:xlink="http://www.w3.org/1999/xlink" contentStyleType="text/css" data-diagram-type="CLASS" height="560px" preserveAspectRatio="none" style="width:310px;height:560px;background:#FFFFFF;" version="1.1" viewBox="0 0 310 560" width="310px" zoomAndPan="magnify"><defs/><g><!--cluster TSC Material Theme.lvlib--><g class="cluster" data-entity="TSC Material Theme.lvlib" data-source-line="34" data-uid="ent0004" id="cluster_TSC Material Theme.lvlib"><path d="M51.64,454.83 L249.7679,454.83 A3.75,3.75 0 0 1 252.2679,457.33 L259.2679,477.1269 L259.64,477.1269 A2.5,2.5 0 0 1 262.14,479.6269 L262.14,551.33 A2.5,2.5 0 0 1 259.64,553.83 L51.64,553.83 A2.5,2.5 0 0 1 49.14,551.33 L49.14,457.33 A2.5,2.5 0 0 1 51.64,454.83" fill="none" style="stroke:#000000;stroke-width:1.5;"/><line style="stroke:#000000;stroke-width:1.5;" x1="49.14" x2="259.2679" y1="477.1269" y2="477.1269"/><text fill="#000000" font-family="sans-serif" font-size="14" font-weight="bold" lengthAdjust="spacing" textLength="197.1279" x="53.14" y="469.8251">TSC Material Theme.lvlib</text></g><!--class Material Theme--><g class="entity" data-entity="Material Theme" data-source-line="34" data-uid="ent0003" id="entity_Material Theme"><rect fill="#FFFFFF" height="48" rx="2.5" ry="2.5" style="stroke:#555555;stroke-width:0.5;" width="141.6143" x="84.33" y="489.83"/><rect fill="#808080" height="32" rx="2.5" ry="2.5" style="stroke:#808080;stroke-width:0.5;" width="141.6143" x="84.33" y="489.83"/><rect fill="#808080" height="2.5" style="stroke:#808080;stroke-width:0.5;" width="141.6143" x="84.33" y="519.33"/><rect fill="none" height="48" rx="2.5" ry="2.5" style="stroke:#555555;stroke-width:0.5;" width="141.6143" x="84.33" y="489.83"/><ellipse cx="99.33" cy="505.83" fill="#ADD1B2" rx="11" ry="11" style="stroke:#181818;stroke-width:1;"/><path d="M102.2988,511.4706 Q101.7206,511.7675 101.08,511.9081 Q100.4394,512.0644 99.7363,512.0644 Q97.2363,512.0644 95.9081,510.4238 Q94.5956,508.7675 94.5956,505.6425 Q94.5956,502.5175 95.9081,500.8613 Q97.2363,499.205 99.7363,499.205 Q100.4394,499.205 101.08,499.3613 Q101.7363,499.5175 102.2988,499.8144 L102.2988,502.5331 Q101.6738,501.955 101.08,501.6894 Q100.4863,501.4081 99.8613,501.4081 Q98.5175,501.4081 97.83,502.4863 Q97.1425,503.5488 97.1425,505.6425 Q97.1425,507.7363 97.83,508.8144 Q98.5175,509.8769 99.8613,509.8769 Q100.4863,509.8769 101.08,509.6113 Q101.6738,509.33 102.2988,508.7519 L102.2988,511.4706 Z " fill="#000000"/><text fill="#000000" font-family="sans-serif" font-size="14" lengthAdjust="spacing" textLength="109.6143" x="113.33" y="510.6767">Material Theme</text><line style="stroke:#555555;stroke-width:0.5;" x1="85.33" x2="224.9443" y1="521.83" y2="521.83"/><line style="stroke:#555555;stroke-width:0.5;" x1="85.33" x2="224.9443" y1="529.83" y2="529.83"/></g><!--class TSC Button Editor--><g class="entity" data-entity="TSC Button Editor" data-source-line="8" data-uid="ent0002" id="entity_TSC Button Editor"><rect fill="#FFFFFF" height="422.8281" rx="2.5" ry="2.5" style="stroke:#555555;stroke-width:0.5;" width="296.2793" x="7" y="7"/><rect fill="#808080" height="32" rx="2.5" ry="2.5" style="stroke:#808080;stroke-width:0.5;" width="296.2793" x="7" y="7"/><rect fill="#808080" height="2.5" style="stroke:#808080;stroke-width:0.5;" width="296.2793" x="7" y="36.5"/><rect fill="none" height="422.8281" rx="2.5" ry="2.5" style="stroke:#555555;stroke-width:0.5;" width="296.2793" x="7" y="7"/><ellipse cx="88.6689" cy="23" fill="#ADD1B2" rx="11" ry="11" style="stroke:#181818;stroke-width:1;"/><path d="M91.6377,28.6406 Q91.0596,28.9375 90.4189,29.0781 Q89.7783,29.2344 89.0752,29.2344 Q86.5752,29.2344 85.2471,27.5938 Q83.9346,25.9375 83.9346,22.8125 Q83.9346,19.6875 85.2471,18.0313 Q86.5752,16.375 89.0752,16.375 Q89.7783,16.375 90.4189,16.5313 Q91.0752,16.6875 91.6377,16.9844 L91.6377,19.7031 Q91.0127,19.125 90.4189,18.8594 Q89.8252,18.5781 89.2002,18.5781 Q87.8564,18.5781 87.1689,19.6563 Q86.4814,20.7188 86.4814,22.8125 Q86.4814,24.9063 87.1689,25.9844 Q87.8564,27.0469 89.2002,27.0469 Q89.8252,27.0469 90.4189,26.7813 Q91.0127,26.5 91.6377,25.9219 L91.6377,28.6406 Z " fill="#000000"/><text fill="#000000" font-family="sans-serif" font-size="14" lengthAdjust="spacing" textLength="124.4414" x="109.1689" y="27.8467">TSC Button Editor</text><line style="stroke:#555555;stroke-width:0.5;" x1="8" x2="302.2793" y1="39" y2="39"/><rect fill="none" height="6" style="stroke:#C82930;stroke-width:1;" width="6" x="15" y="49.6484"/><text fill="#000000" font-family="sans-serif" font-size="14" lengthAdjust="spacing" textLength="155.9961" x="27" y="55.9951">image directory : Path</text><rect fill="none" height="6" style="stroke:#C82930;stroke-width:1;" width="6" x="15" y="65.9453"/><text fill="#000000" font-family="sans-serif" font-size="14" lengthAdjust="spacing" textLength="119.9297" x="27" y="72.292">last theme : Path</text><rect fill="none" height="6" style="stroke:#C82930;stroke-width:1;" width="6" x="15" y="82.2422"/><text fill="#000000" font-family="sans-serif" font-size="14" lengthAdjust="spacing" textLength="166.4482" x="27" y="88.5889">Editor Theme : LV Class</text><rect fill="none" height="6" style="stroke:#C82930;stroke-width:1;" width="6" x="15" y="98.5391"/><text fill="#000000" font-family="sans-serif" font-size="14" lengthAdjust="spacing" textLength="182.4033" x="27" y="104.8857">subpanel VI ref : kLVObjVI</text><rect fill="none" height="6" style="stroke:#C82930;stroke-width:1;" width="6" x="15" y="114.8359"/><text fill="#000000" font-family="sans-serif" font-size="14" lengthAdjust="spacing" textLength="163.3311" x="27" y="121.1826">subpanel VI path : Path</text><rect fill="none" height="6" style="stroke:#C82930;stroke-width:1;" width="6" x="15" y="131.1328"/><text fill="#000000" font-family="sans-serif" font-size="14" lengthAdjust="spacing" textLength="158.9697" x="27" y="137.4795">control top level : Path</text><rect fill="none" height="6" style="stroke:#C82930;stroke-width:1;" width="6" x="15" y="147.4297"/><text fill="#000000" font-family="sans-serif" font-size="14" lengthAdjust="spacing" textLength="212.6387" x="27" y="153.7764">Image Names : Array of String</text><rect fill="none" height="6" style="stroke:#C82930;stroke-width:1;" width="6" x="15" y="163.7266"/><text fill="#000000" font-family="sans-serif" font-size="14" lengthAdjust="spacing" textLength="174.7949" x="27" y="170.0732">Images : Array of Cluster</text><rect fill="none" height="6" style="stroke:#C82930;stroke-width:1;" width="6" x="15" y="180.0234"/><text fill="#000000" font-family="sans-serif" font-size="14" lengthAdjust="spacing" textLength="270.2793" x="27" y="186.3701">Filtered Image Names : Array of String</text><line style="stroke:#555555;stroke-width:0.5;" x1="8" x2="302.2793" y1="193.6719" y2="193.6719"/><rect fill="#F24D5C" height="6" style="stroke:#C82930;stroke-width:1;" width="6" x="15" y="204.3203"/><text fill="#000000" font-family="sans-serif" font-size="14" lengthAdjust="spacing" text-decoration="underline" textLength="163.5156" x="27" y="210.667">Array Point to RowCol()</text><rect fill="#F24D5C" height="6" style="stroke:#C82930;stroke-width:1;" width="6" x="15" y="220.6172"/><text fill="#000000" font-family="sans-serif" font-size="14" lengthAdjust="spacing" text-decoration="underline" textLength="224.0342" x="27" y="226.9639">Button Editor Config--constant()</text><rect fill="#F24D5C" height="6" style="stroke:#C82930;stroke-width:1;" width="6" x="15" y="236.9141"/><text fill="#000000" font-family="sans-serif" font-size="14" lengthAdjust="spacing" text-decoration="underline" textLength="182.1025" x="27" y="243.2607">Change Image Directory()</text><rect fill="#F24D5C" height="6" style="stroke:#C82930;stroke-width:1;" width="6" x="15" y="253.2109"/><text fill="#000000" font-family="sans-serif" font-size="14" lengthAdjust="spacing" text-decoration="underline" textLength="154.9092" x="27" y="259.5576">Check for Image List()</text><rect fill="#F24D5C" height="6" style="stroke:#C82930;stroke-width:1;" width="6" x="15" y="269.5078"/><text fill="#000000" font-family="sans-serif" font-size="14" lengthAdjust="spacing" text-decoration="underline" textLength="212.7207" x="27" y="275.8545">Image List Column--constant()</text><rect fill="#F24D5C" height="6" style="stroke:#C82930;stroke-width:1;" width="6" x="15" y="285.8047"/><text fill="#000000" font-family="sans-serif" font-size="14" lengthAdjust="spacing" text-decoration="underline" textLength="154.6563" x="27" y="292.1514">Image List--constant()</text><rect fill="#F24D5C" height="6" style="stroke:#C82930;stroke-width:1;" width="6" x="15" y="302.1016"/><text fill="#000000" font-family="sans-serif" font-size="14" lengthAdjust="spacing" text-decoration="underline" textLength="117.0654" x="27" y="308.4482">Init Editor Data()</text><rect fill="#F24D5C" height="6" style="stroke:#C82930;stroke-width:1;" width="6" x="15" y="318.3984"/><text fill="#000000" font-family="sans-serif" font-size="14" lengthAdjust="spacing" text-decoration="underline" textLength="156.5498" x="27" y="324.7451">Load VI for Subpanel()</text><rect fill="#F24D5C" height="6" style="stroke:#C82930;stroke-width:1;" width="6" x="15" y="334.6953"/><text fill="#000000" font-family="sans-serif" font-size="14" lengthAdjust="spacing" text-decoration="underline" textLength="129.0488" x="27" y="341.042">Save Editor Data()</text><rect fill="#F24D5C" height="6" style="stroke:#C82930;stroke-width:1;" width="6" x="15" y="350.9922"/><text fill="#000000" font-family="sans-serif" font-size="14" lengthAdjust="spacing" text-decoration="underline" textLength="130.8877" x="27" y="357.3389">Sort Image Table()</text><rect fill="#F24D5C" height="6" style="stroke:#C82930;stroke-width:1;" width="6" x="15" y="367.2891"/><text fill="#000000" font-family="sans-serif" font-size="14" lengthAdjust="spacing" text-decoration="underline" textLength="213.582" x="27" y="373.6357">Update Custom UI for Button()</text><rect fill="#F24D5C" height="6" style="stroke:#C82930;stroke-width:1;" width="6" x="15" y="383.5859"/><text fill="#000000" font-family="sans-serif" font-size="14" lengthAdjust="spacing" text-decoration="underline" textLength="129.9785" x="27" y="389.9326">User Event Close()</text><rect fill="#F24D5C" height="6" style="stroke:#C82930;stroke-width:1;" width="6" x="15" y="399.8828"/><text fill="#000000" font-family="sans-serif" font-size="14" lengthAdjust="spacing" text-decoration="underline" textLength="114.2217" x="27" y="406.2295">User Event Init()</text><ellipse cx="18" cy="419.1797" fill="#84BE84" rx="3" ry="3" style="stroke:#038048;stroke-width:1;"/><text fill="#000000" font-family="sans-serif" font-size="14" lengthAdjust="spacing" text-decoration="underline" textLength="169.3877" x="27" y="422.5264">Edit a Button--Material()</text></g><!--reverse link TSC Button Editor to Material Theme--><g class="link" data-entity-1="TSC Button Editor" data-entity-2="Material Theme" data-source-line="34" data-uid="lnk5" id="link_TSC Button Editor_Material Theme"><path codeLine="34" d="M155.14,442.32 C155.14,465.82 155.14,474.59 155.14,489.41" fill="none" id="TSC Button Editor-backto-Material Theme" style="stroke:#181818;stroke-width:1;"/><polygon fill="#181818" points="155.14,430.32,151.14,436.32,155.14,442.32,159.14,436.32,155.14,430.32" style="stroke:#181818;stroke-width:1;"/></g><!--SRC=[XPDFZvim4CNlV8fHUkaVKUsbKfLRbzseaT9sLRAv3p0aReoDx27LAiftxnY8Q18YZ3Z0_EPv7WzxOZ1OaQynfvHgTCZMmJpoUsN2KmM9HkyVCTzldMrCaLWjmBj5ksumwmfoFVAbNTV8mXhkWOTsNGFV2KNZPiEl3-6A_gFPrd93Pfbj1OLobBEo9ig32ipMQGAFZTGCF1TANCtW61rBHReuGQmgt5BVPDqRpE45UJVKHOE1TrJHJQbJWtLVN6swkGV0DrcDXZHibk2e56Q_slpA_coMuqmjyZUxvFATdDMjIqq78Q-9PMlXPqXFQj-SmpUm9QJibDbUOHT4eXlFv0PaeRGyKm4JafwHLNw2OqMyiw6pGrwiCXoo-6t_IbplFuoX5rb0Oasfjd6mAQZXyPvaXqO6wiPwEeTrZwLy3wLeT_XA-JkgGrt6q4rbfiOO6YP9e_XiyGaPnwcLnI847uPD-nzXd4pnGDDwgNNSkrvZfccSUgqBP894mfVpyjfjtwLofy6JW-S3IRQ9jfucgU1-5FeKB03skyNn3nd4AGocerCqTbG_nd5tXCzeTzu-wuDMsVpovIoAedy0]--></g></svg>