<?plantuml 1.2026.1?><svg xmlns="http://www.w3.org/2000/svg" xmlns:xlink="http://www.w3.org/1999/xlink" contentStyleType="text/css" data-diagram-type="CLASS" height="480px" preserveAspectRatio="none" style="width:374px;height:480px;background:#FFFFFF;" version="1.1" viewBox="0 0 374 480" width="374px" zoomAndPan="magnify"><defs/><g><!--cluster TSC Material Theme.lvlib--><g class="cluster" data-qualified-name="TSC Material Theme.lvlib" data-source-line="8" id="ent0003"><path d="M8.5,6 L206.6279,6 A3.75,3.75 0 0 1 209.1279,8.5 L216.1279,28.2969 L364.5,28.2969 A2.5,2.5 0 0 1 367,30.7969 L367,471.25 A2.5,2.5 0 0 1 364.5,473.75 L8.5,473.75 A2.5,2.5 0 0 1 6,471.25 L6,8.5 A2.5,2.5 0 0 1 8.5,6" fill="none" style="stroke:#000000;stroke-width:1.5;"/><line style="stroke:#000000;stroke-width:1.5;" x1="6" x2="216.1279" y1="28.2969" y2="28.2969"/><text fill="#000000" font-family="sans-serif" font-size="14" font-weight="bold" lengthAdjust="spacing" textLength="197.1279" x="10" y="20.9951">TSC Material Theme.lvlib</text></g><!--class Material Theme--><g class="entity" data-qualified-name="TSC Material Theme.lvlib.Material Theme" data-source-line="8" id="ent0002"><rect fill="#FFFFFF" height="308.75" rx="2.5" ry="2.5" style="stroke:#555555;stroke-width:0.5;" width="238.2217" x="66.89" y="41"/><rect fill="#808080" height="32" rx="2.5" ry="2.5" style="stroke:#808080;stroke-width:0.5;" width="238.2217" x="66.89" y="41"/><rect fill="#808080" height="2.5" style="stroke:#808080;stroke-width:0.5;" width="238.2217" x="66.89" y="70.5"/><rect fill="none" height="308.75" rx="2.5" ry="2.5" style="stroke:#555555;stroke-width:0.5;" width="238.2217" x="66.89" y="41"/><ellipse cx="126.9437" cy="57" fill="#ADD1B2" rx="11" ry="11" style="stroke:#181818;stroke-width:1;"/><path d="M129.9125,62.6406 Q129.3343,62.9375 128.6937,63.0781 Q128.0531,63.2344 127.35,63.2344 Q124.85,63.2344 123.5218,61.5938 Q122.2093,59.9375 122.2093,56.8125 Q122.2093,53.6875 123.5218,52.0313 Q124.85,50.375 127.35,50.375 Q128.0531,50.375 128.6937,50.5313 Q129.35,50.6875 129.9125,50.9844 L129.9125,53.7031 Q129.2875,53.125 128.6937,52.8594 Q128.1,52.5781 127.475,52.5781 Q126.1312,52.5781 125.4437,53.6563 Q124.7562,54.7188 124.7562,56.8125 Q124.7562,58.9063 125.4437,59.9844 Q126.1312,61.0469 127.475,61.0469 Q128.1,61.0469 128.6937,60.7813 Q129.2875,60.5 129.9125,59.9219 L129.9125,62.6406 Z " fill="#000000"/><text fill="#000000" font-family="sans-serif" font-size="14" lengthAdjust="spacing" textLength="109.6143" x="147.4437" y="61.8467">Material Theme</text><line style="stroke:#555555;stroke-width:0.5;" x1="67.89" x2="304.1117" y1="73" y2="73"/><g data-visibility-modifier="PRIVATE_FIELD"><rect fill="none" height="6" style="stroke:#C82930;stroke-width:1;" width="6" x="74.89" y="83.6484"/></g><text fill="#000000" font-family="sans-serif" font-size="14" lengthAdjust="spacing" textLength="133.2393" x="86.89" y="89.9951">description : String</text><g data-visibility-modifier="PRIVATE_FIELD"><rect fill="none" height="6" style="stroke:#C82930;stroke-width:1;" width="6" x="74.89" y="99.9453"/></g><text fill="#000000" font-family="sans-serif" font-size="14" lengthAdjust="spacing" textLength="75.0859" x="86.89" y="106.292">seed : U32</text><g data-visibility-modifier="PRIVATE_FIELD"><rect fill="none" height="6" style="stroke:#C82930;stroke-width:1;" width="6" x="74.89" y="116.2422"/></g><text fill="#000000" font-family="sans-serif" font-size="14" lengthAdjust="spacing" textLength="137.7852" x="86.89" y="122.5889">coreColors : Cluster</text><g data-visibility-modifier="PRIVATE_FIELD"><rect fill="none" height="6" style="stroke:#C82930;stroke-width:1;" width="6" x="74.89" y="132.5391"/></g><text fill="#000000" font-family="sans-serif" font-size="14" lengthAdjust="spacing" textLength="196.2393" x="86.89" y="138.8857">Schemes : Array of LV Class</text><g data-visibility-modifier="PRIVATE_FIELD"><rect fill="none" height="6" style="stroke:#C82930;stroke-width:1;" width="6" x="74.89" y="148.8359"/></g><text fill="#000000" font-family="sans-serif" font-size="14" lengthAdjust="spacing" textLength="189.0342" x="86.89" y="155.1826">Palettes : Array of LV Class</text><g data-visibility-modifier="PRIVATE_FIELD"><rect fill="none" height="6" style="stroke:#C82930;stroke-width:1;" width="6" x="74.89" y="165.1328"/></g><text fill="#000000" font-family="sans-serif" font-size="14" lengthAdjust="spacing" textLength="129.124" x="86.89" y="171.4795">Theme Path : Path</text><line style="stroke:#555555;stroke-width:0.5;" x1="67.89" x2="304.1117" y1="178.7813" y2="178.7813"/><g data-visibility-modifier="PUBLIC_METHOD"><ellipse cx="77.89" cy="192.4297" fill="#84BE84" rx="3" ry="3" style="stroke:#038048;stroke-width:1;"/></g><text fill="#000000" font-family="sans-serif" font-size="14" lengthAdjust="spacing" text-decoration="underline" textLength="136.042" x="86.89" y="195.7764">Apply TSC Pop Up()</text><g data-visibility-modifier="PUBLIC_METHOD"><ellipse cx="77.89" cy="208.7266" fill="#84BE84" rx="3" ry="3" style="stroke:#038048;stroke-width:1;"/></g><text fill="#000000" font-family="sans-serif" font-size="14" lengthAdjust="spacing" text-decoration="underline" textLength="122.0146" x="86.89" y="212.0732">Apply UI Theme()</text><g data-visibility-modifier="PUBLIC_METHOD"><ellipse cx="77.89" cy="225.0234" fill="#84BE84" rx="3" ry="3" style="stroke:#038048;stroke-width:1;"/></g><text fill="#000000" font-family="sans-serif" font-size="14" lengthAdjust="spacing" text-decoration="underline" textLength="157.5684" x="86.89" y="228.3701">convert string to hex()</text><g data-visibility-modifier="PUBLIC_METHOD"><ellipse cx="77.89" cy="241.3203" fill="#84BE84" rx="3" ry="3" style="stroke:#038048;stroke-width:1;"/></g><text fill="#000000" font-family="sans-serif" font-size="14" lengthAdjust="spacing" text-decoration="underline" textLength="104.1113" x="86.89" y="244.667">Create JS File()</text><g data-visibility-modifier="PUBLIC_METHOD"><ellipse cx="77.89" cy="257.6172" fill="#84BE84" rx="3" ry="3" style="stroke:#038048;stroke-width:1;"/></g><text fill="#000000" font-family="sans-serif" font-size="14" lengthAdjust="spacing" text-decoration="underline" textLength="96.7354" x="86.89" y="260.9639">Get Palettes()</text><g data-visibility-modifier="PUBLIC_METHOD"><ellipse cx="77.89" cy="273.9141" fill="#84BE84" rx="3" ry="3" style="stroke:#038048;stroke-width:1;"/></g><text fill="#000000" font-family="sans-serif" font-size="14" lengthAdjust="spacing" text-decoration="underline" textLength="96.6465" x="86.89" y="277.2607">Get Scheme()</text><g data-visibility-modifier="PUBLIC_METHOD"><ellipse cx="77.89" cy="290.2109" fill="#84BE84" rx="3" ry="3" style="stroke:#038048;stroke-width:1;"/></g><text fill="#000000" font-family="sans-serif" font-size="14" lengthAdjust="spacing" text-decoration="underline" textLength="126.4922" x="86.89" y="293.5576">Get Theme Data()</text><g data-visibility-modifier="PUBLIC_METHOD"><ellipse cx="77.89" cy="306.5078" fill="#84BE84" rx="3" ry="3" style="stroke:#038048;stroke-width:1;"/></g><text fill="#000000" font-family="sans-serif" font-size="14" lengthAdjust="spacing" text-decoration="underline" textLength="158.8193" x="86.89" y="309.8545">Load Material Theme()</text><g data-visibility-modifier="PUBLIC_METHOD"><ellipse cx="77.89" cy="322.8047" fill="#84BE84" rx="3" ry="3" style="stroke:#038048;stroke-width:1;"/></g><text fill="#000000" font-family="sans-serif" font-size="14" lengthAdjust="spacing" text-decoration="underline" textLength="212.2217" x="86.89" y="326.1514">Material.Convert to LabVIEW()</text><g data-visibility-modifier="PUBLIC_METHOD"><ellipse cx="77.89" cy="339.1016" fill="#84BE84" rx="3" ry="3" style="stroke:#038048;stroke-width:1;"/></g><text fill="#000000" font-family="sans-serif" font-size="14" lengthAdjust="spacing" text-decoration="underline" textLength="124.5303" x="86.89" y="342.4482">Set Theme Data()</text></g><!--class Material-Scheme--><g class="entity" data-qualified-name="TSC Material Theme.lvlib.Material-Scheme" data-source-line="28" id="ent0004"><rect fill="#FFFFFF" height="48" rx="2.5" ry="2.5" style="stroke:#555555;stroke-width:0.5;" width="150.248" x="21.88" y="409.75"/><rect fill="#808080" height="32" rx="2.5" ry="2.5" style="stroke:#808080;stroke-width:0.5;" width="150.248" x="21.88" y="409.75"/><rect fill="#808080" height="2.5" style="stroke:#808080;stroke-width:0.5;" width="150.248" x="21.88" y="439.25"/><rect fill="none" height="48" rx="2.5" ry="2.5" style="stroke:#555555;stroke-width:0.5;" width="150.248" x="21.88" y="409.75"/><ellipse cx="36.88" cy="425.75" fill="#ADD1B2" rx="11" ry="11" style="stroke:#181818;stroke-width:1;"/><path d="M39.8487,431.3906 Q39.2706,431.6875 38.63,431.8281 Q37.9894,431.9844 37.2862,431.9844 Q34.7862,431.9844 33.4581,430.3438 Q32.1456,428.6875 32.1456,425.5625 Q32.1456,422.4375 33.4581,420.7813 Q34.7862,419.125 37.2862,419.125 Q37.9894,419.125 38.63,419.2813 Q39.2862,419.4375 39.8487,419.7344 L39.8487,422.4531 Q39.2237,421.875 38.63,421.6094 Q38.0362,421.3281 37.4112,421.3281 Q36.0675,421.3281 35.38,422.4063 Q34.6925,423.4688 34.6925,425.5625 Q34.6925,427.6563 35.38,428.7344 Q36.0675,429.7969 37.4112,429.7969 Q38.0362,429.7969 38.63,429.5313 Q39.2237,429.25 39.8487,428.6719 L39.8487,431.3906 Z " fill="#000000"/><text fill="#000000" font-family="sans-serif" font-size="14" lengthAdjust="spacing" textLength="118.248" x="50.88" y="430.5967">Material-Scheme</text><line style="stroke:#555555;stroke-width:0.5;" x1="22.88" x2="171.128" y1="441.75" y2="441.75"/><line style="stroke:#555555;stroke-width:0.5;" x1="22.88" x2="171.128" y1="449.75" y2="449.75"/></g><!--class Material-Palette--><g class="entity" data-qualified-name="TSC Material Theme.lvlib.Material-Palette" data-source-line="29" id="ent0006"><rect fill="#FFFFFF" height="48" rx="2.5" ry="2.5" style="stroke:#555555;stroke-width:0.5;" width="143.043" x="207.48" y="409.75"/><rect fill="#808080" height="32" rx="2.5" ry="2.5" style="stroke:#808080;stroke-width:0.5;" width="143.043" x="207.48" y="409.75"/><rect fill="#808080" height="2.5" style="stroke:#808080;stroke-width:0.5;" width="143.043" x="207.48" y="439.25"/><rect fill="none" height="48" rx="2.5" ry="2.5" style="stroke:#555555;stroke-width:0.5;" width="143.043" x="207.48" y="409.75"/><ellipse cx="222.48" cy="425.75" fill="#ADD1B2" rx="11" ry="11" style="stroke:#181818;stroke-width:1;"/><path d="M225.4488,431.3906 Q224.8706,431.6875 224.23,431.8281 Q223.5894,431.9844 222.8863,431.9844 Q220.3863,431.9844 219.0581,430.3438 Q217.7456,428.6875 217.7456,425.5625 Q217.7456,422.4375 219.0581,420.7813 Q220.3863,419.125 222.8863,419.125 Q223.5894,419.125 224.23,419.2813 Q224.8863,419.4375 225.4488,419.7344 L225.4488,422.4531 Q224.8238,421.875 224.23,421.6094 Q223.6363,421.3281 223.0113,421.3281 Q221.6675,421.3281 220.98,422.4063 Q220.2925,423.4688 220.2925,425.5625 Q220.2925,427.6563 220.98,428.7344 Q221.6675,429.7969 223.0113,429.7969 Q223.6363,429.7969 224.23,429.5313 Q224.8238,429.25 225.4488,428.6719 L225.4488,431.3906 Z " fill="#000000"/><text fill="#000000" font-family="sans-serif" font-size="14" lengthAdjust="spacing" textLength="111.043" x="236.48" y="430.5967">Material-Palette</text><line style="stroke:#555555;stroke-width:0.5;" x1="208.48" x2="349.523" y1="441.75" y2="441.75"/><line style="stroke:#555555;stroke-width:0.5;" x1="208.48" x2="349.523" y1="449.75" y2="449.75"/></g><!--reverse link Material Theme to Material-Scheme--><g class="link" data-entity-1="ent0002" data-entity-2="ent0004" data-link-type="aggregation" data-source-line="28" id="lnk5"><path codeLine="28" d="M123.9005,361.3099 C115.2005,384.4099 111.48,394.29 105.8,409.39" fill="none" id="Material Theme-backto-Material-Scheme" style="stroke:#181818;stroke-width:1;"/><polygon fill="none" points="128.13,350.08,122.272,354.2852,123.9005,361.3099,129.7586,357.1048,128.13,350.08" style="stroke:#181818;stroke-width:1;"/></g><!--reverse link Material Theme to Material-Palette--><g class="link" data-entity-1="ent0002" data-entity-2="ent0006" data-link-type="aggregation" data-source-line="29" id="lnk7"><path codeLine="29" d="M250.8641,361.2465 C259.9541,384.3465 263.87,394.29 269.81,409.39" fill="none" id="Material Theme-backto-Material-Palette" style="stroke:#181818;stroke-width:1;"/><polygon fill="none" points="246.47,350.08,244.9449,357.128,250.8641,361.2465,252.3892,354.1986,246.47,350.08" style="stroke:#181818;stroke-width:1;"/></g><?plantuml-src hPB1Qi9048Rl-nI3lRGKHLeAnPjDQskn84JjUToCkhZ9XjrHAkAxTpT6qcga7ZeXXCny-MVdppXYo30bbwEac7AqoCP2HxYboi9R2f56vvvGBkVMhB8aCje3LxqYJZ1Z4x8byb34CT8p6PT0kuXZu8tGQvmqV6o7I_oWsUJ-XgbXDYaaof9aPJ8XWmeqHd447yXa5MeOBIYbbbvhDUtyJZPWAxOpHJhPGJCX9wtAWmnq86QhidbLTKI9Ju_lxwgSD9QA4pfVYVJAUUsg6ilG8fIwrk86p0m6a_sO5JH4JSn_KSLXOOYyy5nuYArZP2Lti4s95yP3jzqyrni8am-zEUFy-kOyDUxl3QXdfCdMP1bSuK7mUK5VzMXaoJiAxp7qb3uZz-htx33dUM9lr_dwteDdPAnd1WQJetzU3nwOLbIEwUSRu7JIV_ci_o0-xYvsGbo-OgRPl60XotLf_BzmQNr3Y6y0?></g></svg>