<svg xmlns="http://www.w3.org/2000/svg" xmlns:xlink="http://www.w3.org/1999/xlink" contentStyleType="text/css" data-diagram-type="CLASS" height="1366px" preserveAspectRatio="none" style="width:293px;height:1366px;background:#FFFFFF;" version="1.1" viewBox="0 0 293 1366" width="293px" zoomAndPan="magnify"><defs/><g><!--cluster TSC Material Theme.lvlib--><g class="cluster" data-entity="TSC Material Theme.lvlib" data-source-line="8" data-uid="ent0003" id="cluster_TSC Material Theme.lvlib"><path d="M8.5,6 L206.6279,6 A3.75,3.75 0 0 1 209.1279,8.5 L216.1279,28.2969 L283.5,28.2969 A2.5,2.5 0 0 1 286,30.7969 L286,1357.36 A2.5,2.5 0 0 1 283.5,1359.86 L8.5,1359.86 A2.5,2.5 0 0 1 6,1357.36 L6,8.5 A2.5,2.5 0 0 1 8.5,6" fill="none" style="stroke:#000000;stroke-width:1.5;"/><line style="stroke:#000000;stroke-width:1.5;" x1="6" x2="216.1279" y1="28.2969" y2="28.2969"/><text fill="#000000" font-family="sans-serif" font-size="14" font-weight="bold" lengthAdjust="spacing" textLength="197.1279" x="10" y="20.9951">TSC Material Theme.lvlib</text></g><!--class Material-Scheme--><g class="entity" data-entity="Material-Scheme" data-source-line="8" data-uid="ent0002" id="entity_Material-Scheme"><rect fill="#FFFFFF" height="1302.8594" rx="2.5" ry="2.5" style="stroke:#555555;stroke-width:0.5;" width="247.7305" x="22.13" y="41"/><rect fill="#808080" height="32" rx="2.5" ry="2.5" style="stroke:#808080;stroke-width:0.5;" width="247.7305" x="22.13" y="41"/><rect fill="#808080" height="2.5" style="stroke:#808080;stroke-width:0.5;" width="247.7305" x="22.13" y="70.5"/><rect fill="none" height="1302.8594" rx="2.5" ry="2.5" style="stroke:#555555;stroke-width:0.5;" width="247.7305" x="22.13" y="41"/><ellipse cx="82.6212" cy="57" fill="#ADD1B2" rx="11" ry="11" style="stroke:#181818;stroke-width:1;"/><path d="M85.59,62.6406 Q85.0118,62.9375 84.3712,63.0781 Q83.7306,63.2344 83.0275,63.2344 Q80.5275,63.2344 79.1993,61.5938 Q77.8868,59.9375 77.8868,56.8125 Q77.8868,53.6875 79.1993,52.0313 Q80.5275,50.375 83.0275,50.375 Q83.7306,50.375 84.3712,50.5313 Q85.0275,50.6875 85.59,50.9844 L85.59,53.7031 Q84.965,53.125 84.3712,52.8594 Q83.7775,52.5781 83.1525,52.5781 Q81.8087,52.5781 81.1212,53.6563 Q80.4337,54.7188 80.4337,56.8125 Q80.4337,58.9063 81.1212,59.9844 Q81.8087,61.0469 83.1525,61.0469 Q83.7775,61.0469 84.3712,60.7813 Q84.965,60.5 85.59,59.9219 L85.59,62.6406 Z " fill="#000000"/><text fill="#000000" font-family="sans-serif" font-size="14" lengthAdjust="spacing" textLength="118.248" x="103.1212" y="61.8467">Material-Scheme</text><line style="stroke:#555555;stroke-width:0.5;" x1="23.13" x2="268.8605" y1="73" y2="73"/><ellipse cx="33.13" cy="86.6484" fill="none" rx="3" ry="3" style="stroke:#038048;stroke-width:1;"/><text fill="#000000" font-family="sans-serif" font-size="14" lengthAdjust="spacing" textLength="95.1016" x="42.13" y="89.9951">name : String</text><rect fill="none" height="6" style="stroke:#C82930;stroke-width:1;" width="6" x="30.13" y="99.9453"/><text fill="#000000" font-family="sans-serif" font-size="14" lengthAdjust="spacing" textLength="96.4688" x="42.13" y="106.292">primary : U32</text><rect fill="none" height="6" style="stroke:#C82930;stroke-width:1;" width="6" x="30.13" y="116.2422"/><text fill="#000000" font-family="sans-serif" font-size="14" lengthAdjust="spacing" textLength="120.2236" x="42.13" y="122.5889">surfaceTint : U32</text><rect fill="none" height="6" style="stroke:#C82930;stroke-width:1;" width="6" x="30.13" y="132.5391"/><text fill="#000000" font-family="sans-serif" font-size="14" lengthAdjust="spacing" textLength="113.4629" x="42.13" y="138.8857">onPrimary : U32</text><rect fill="none" height="6" style="stroke:#C82930;stroke-width:1;" width="6" x="30.13" y="148.8359"/><text fill="#000000" font-family="sans-serif" font-size="14" lengthAdjust="spacing" textLength="164.8828" x="42.13" y="155.1826">primaryContainer : U32</text><rect fill="none" height="6" style="stroke:#C82930;stroke-width:1;" width="6" x="30.13" y="165.1328"/><text fill="#000000" font-family="sans-serif" font-size="14" lengthAdjust="spacing" textLength="181.877" x="42.13" y="171.4795">onPrimaryContainer : U32</text><rect fill="none" height="6" style="stroke:#C82930;stroke-width:1;" width="6" x="30.13" y="181.4297"/><text fill="#000000" font-family="sans-serif" font-size="14" lengthAdjust="spacing" textLength="114.2285" x="42.13" y="187.7764">secondary : U32</text><rect fill="none" height="6" style="stroke:#C82930;stroke-width:1;" width="6" x="30.13" y="197.7266"/><text fill="#000000" font-family="sans-serif" font-size="14" lengthAdjust="spacing" textLength="133.2598" x="42.13" y="204.0732">onSecondary : U32</text><rect fill="none" height="6" style="stroke:#C82930;stroke-width:1;" width="6" x="30.13" y="214.0234"/><text fill="#000000" font-family="sans-serif" font-size="14" lengthAdjust="spacing" textLength="182.6426" x="42.13" y="220.3701">secondaryContainer : U32</text><rect fill="none" height="6" style="stroke:#C82930;stroke-width:1;" width="6" x="30.13" y="230.3203"/><text fill="#000000" font-family="sans-serif" font-size="14" lengthAdjust="spacing" textLength="201.6738" x="42.13" y="236.667">onSecondaryContainer : U32</text><rect fill="none" height="6" style="stroke:#C82930;stroke-width:1;" width="6" x="30.13" y="246.6172"/><text fill="#000000" font-family="sans-serif" font-size="14" lengthAdjust="spacing" textLength="93.5361" x="42.13" y="252.9639">tertiary : U32</text><rect fill="none" height="6" style="stroke:#C82930;stroke-width:1;" width="6" x="30.13" y="262.9141"/><text fill="#000000" font-family="sans-serif" font-size="14" lengthAdjust="spacing" textLength="114.0371" x="42.13" y="269.2607">onTertiary : U32</text><rect fill="none" height="6" style="stroke:#C82930;stroke-width:1;" width="6" x="30.13" y="279.2109"/><text fill="#000000" font-family="sans-serif" font-size="14" lengthAdjust="spacing" textLength="161.9502" x="42.13" y="285.5576">tertiaryContainer : U32</text><rect fill="none" height="6" style="stroke:#C82930;stroke-width:1;" width="6" x="30.13" y="295.5078"/><text fill="#000000" font-family="sans-serif" font-size="14" lengthAdjust="spacing" textLength="182.4512" x="42.13" y="301.8545">onTertiaryContainer : U32</text><rect fill="none" height="6" style="stroke:#C82930;stroke-width:1;" width="6" x="30.13" y="311.8047"/><text fill="#000000" font-family="sans-serif" font-size="14" lengthAdjust="spacing" textLength="76.125" x="42.13" y="318.1514">error : U32</text><rect fill="none" height="6" style="stroke:#C82930;stroke-width:1;" width="6" x="30.13" y="328.1016"/><text fill="#000000" font-family="sans-serif" font-size="14" lengthAdjust="spacing" textLength="93.7959" x="42.13" y="334.4482">onError : U32</text><rect fill="none" height="6" style="stroke:#C82930;stroke-width:1;" width="6" x="30.13" y="344.3984"/><text fill="#000000" font-family="sans-serif" font-size="14" lengthAdjust="spacing" textLength="144.5391" x="42.13" y="350.7451">errorContainer : U32</text><rect fill="none" height="6" style="stroke:#C82930;stroke-width:1;" width="6" x="30.13" y="360.6953"/><text fill="#000000" font-family="sans-serif" font-size="14" lengthAdjust="spacing" textLength="162.21" x="42.13" y="367.042">onErrorContainer : U32</text><ellipse cx="33.13" cy="379.9922" fill="none" rx="3" ry="3" style="stroke:#038048;stroke-width:1;"/><text fill="#000000" font-family="sans-serif" font-size="14" lengthAdjust="spacing" textLength="124.79" x="42.13" y="383.3389">background : U32</text><rect fill="none" height="6" style="stroke:#C82930;stroke-width:1;" width="6" x="30.13" y="393.2891"/><text fill="#000000" font-family="sans-serif" font-size="14" lengthAdjust="spacing" textLength="142.9463" x="42.13" y="399.6357">onBackground : U32</text><ellipse cx="33.13" cy="412.5859" fill="none" rx="3" ry="3" style="stroke:#038048;stroke-width:1;"/><text fill="#000000" font-family="sans-serif" font-size="14" lengthAdjust="spacing" textLength="93.4199" x="42.13" y="415.9326">surface : U32</text><rect fill="none" height="6" style="stroke:#C82930;stroke-width:1;" width="6" x="30.13" y="425.8828"/><text fill="#000000" font-family="sans-serif" font-size="14" lengthAdjust="spacing" textLength="112.4512" x="42.13" y="432.2295">onSurface : U32</text><rect fill="none" height="6" style="stroke:#C82930;stroke-width:1;" width="6" x="30.13" y="442.1797"/><text fill="#000000" font-family="sans-serif" font-size="14" lengthAdjust="spacing" textLength="144.1631" x="42.13" y="448.5264">surfaceVariant : U32</text><rect fill="none" height="6" style="stroke:#C82930;stroke-width:1;" width="6" x="30.13" y="458.4766"/><text fill="#000000" font-family="sans-serif" font-size="14" lengthAdjust="spacing" textLength="163.1943" x="42.13" y="464.8232">onSurfaceVariant : U32</text><rect fill="none" height="6" style="stroke:#C82930;stroke-width:1;" width="6" x="30.13" y="474.7734"/><text fill="#000000" font-family="sans-serif" font-size="14" lengthAdjust="spacing" textLength="89.8721" x="42.13" y="481.1201">outline : U32</text><rect fill="none" height="6" style="stroke:#C82930;stroke-width:1;" width="6" x="30.13" y="491.0703"/><text fill="#000000" font-family="sans-serif" font-size="14" lengthAdjust="spacing" textLength="140.6152" x="42.13" y="497.417">outlineVariant : U32</text><rect fill="none" height="6" style="stroke:#C82930;stroke-width:1;" width="6" x="30.13" y="507.3672"/><text fill="#000000" font-family="sans-serif" font-size="14" lengthAdjust="spacing" textLength="95.3271" x="42.13" y="513.7139">shadow : U32</text><rect fill="none" height="6" style="stroke:#C82930;stroke-width:1;" width="6" x="30.13" y="523.6641"/><text fill="#000000" font-family="sans-serif" font-size="14" lengthAdjust="spacing" textLength="79.9531" x="42.13" y="530.0107">scrim : U32</text><rect fill="none" height="6" style="stroke:#C82930;stroke-width:1;" width="6" x="30.13" y="539.9609"/><text fill="#000000" font-family="sans-serif" font-size="14" lengthAdjust="spacing" textLength="146.3369" x="42.13" y="546.3076">inverseSurface : U32</text><rect fill="none" height="6" style="stroke:#C82930;stroke-width:1;" width="6" x="30.13" y="556.2578"/><text fill="#000000" font-family="sans-serif" font-size="14" lengthAdjust="spacing" textLength="166.2295" x="42.13" y="562.6045">inverseOnSurface : U32</text><rect fill="none" height="6" style="stroke:#C82930;stroke-width:1;" width="6" x="30.13" y="572.5547"/><text fill="#000000" font-family="sans-serif" font-size="14" lengthAdjust="spacing" textLength="147.3486" x="42.13" y="578.9014">inversePrimary : U32</text><rect fill="none" height="6" style="stroke:#C82930;stroke-width:1;" width="6" x="30.13" y="588.8516"/><text fill="#000000" font-family="sans-serif" font-size="14" lengthAdjust="spacing" textLength="134.1963" x="42.13" y="595.1982">primaryFixed : U32</text><rect fill="none" height="6" style="stroke:#C82930;stroke-width:1;" width="6" x="30.13" y="605.1484"/><text fill="#000000" font-family="sans-serif" font-size="14" lengthAdjust="spacing" textLength="151.1904" x="42.13" y="611.4951">onPrimaryFixed : U32</text><rect fill="none" height="6" style="stroke:#C82930;stroke-width:1;" width="6" x="30.13" y="621.4453"/><text fill="#000000" font-family="sans-serif" font-size="14" lengthAdjust="spacing" textLength="162.5039" x="42.13" y="627.792">primaryFixedDim : U32</text><rect fill="none" height="6" style="stroke:#C82930;stroke-width:1;" width="6" x="30.13" y="637.7422"/><text fill="#000000" font-family="sans-serif" font-size="14" lengthAdjust="spacing" textLength="201.9336" x="42.13" y="644.0889">onPrimaryFixedVariant : U32</text><rect fill="none" height="6" style="stroke:#C82930;stroke-width:1;" width="6" x="30.13" y="654.0391"/><text fill="#000000" font-family="sans-serif" font-size="14" lengthAdjust="spacing" textLength="151.9561" x="42.13" y="660.3857">secondaryFixed : U32</text><rect fill="none" height="6" style="stroke:#C82930;stroke-width:1;" width="6" x="30.13" y="670.3359"/><text fill="#000000" font-family="sans-serif" font-size="14" lengthAdjust="spacing" textLength="170.9873" x="42.13" y="676.6826">onSecondaryFixed : U32</text><rect fill="none" height="6" style="stroke:#C82930;stroke-width:1;" width="6" x="30.13" y="686.6328"/><text fill="#000000" font-family="sans-serif" font-size="14" lengthAdjust="spacing" textLength="180.2637" x="42.13" y="692.9795">secondaryFixedDim : U32</text><rect fill="none" height="6" style="stroke:#C82930;stroke-width:1;" width="6" x="30.13" y="702.9297"/><text fill="#000000" font-family="sans-serif" font-size="14" lengthAdjust="spacing" textLength="221.7305" x="42.13" y="709.2764">onSecondaryFixedVariant : U32</text><rect fill="none" height="6" style="stroke:#C82930;stroke-width:1;" width="6" x="30.13" y="719.2266"/><text fill="#000000" font-family="sans-serif" font-size="14" lengthAdjust="spacing" textLength="131.2637" x="42.13" y="725.5732">tertiaryFixed : U32</text><rect fill="none" height="6" style="stroke:#C82930;stroke-width:1;" width="6" x="30.13" y="735.5234"/><text fill="#000000" font-family="sans-serif" font-size="14" lengthAdjust="spacing" textLength="151.7646" x="42.13" y="741.8701">onTertiaryFixed : U32</text><rect fill="none" height="6" style="stroke:#C82930;stroke-width:1;" width="6" x="30.13" y="751.8203"/><text fill="#000000" font-family="sans-serif" font-size="14" lengthAdjust="spacing" textLength="159.5713" x="42.13" y="758.167">tertiaryFixedDim : U32</text><rect fill="none" height="6" style="stroke:#C82930;stroke-width:1;" width="6" x="30.13" y="768.1172"/><text fill="#000000" font-family="sans-serif" font-size="14" lengthAdjust="spacing" textLength="202.5078" x="42.13" y="774.4639">onTertiaryFixedVariant : U32</text><rect fill="none" height="6" style="stroke:#C82930;stroke-width:1;" width="6" x="30.13" y="784.4141"/><text fill="#000000" font-family="sans-serif" font-size="14" lengthAdjust="spacing" textLength="121.7275" x="42.13" y="790.7607">surfaceDim : U32</text><rect fill="none" height="6" style="stroke:#C82930;stroke-width:1;" width="6" x="30.13" y="800.7109"/><text fill="#000000" font-family="sans-serif" font-size="14" lengthAdjust="spacing" textLength="135.9189" x="42.13" y="807.0576">surfaceBright : U32</text><ellipse cx="33.13" cy="820.0078" fill="none" rx="3" ry="3" style="stroke:#038048;stroke-width:1;"/><text fill="#000000" font-family="sans-serif" font-size="14" lengthAdjust="spacing" textLength="211.0459" x="42.13" y="823.3545">surfaceContainerLowest : U32</text><rect fill="none" height="6" style="stroke:#C82930;stroke-width:1;" width="6" x="30.13" y="833.3047"/><text fill="#000000" font-family="sans-serif" font-size="14" lengthAdjust="spacing" textLength="189.6494" x="42.13" y="839.6514">surfaceContainerLow : U32</text><rect fill="none" height="6" style="stroke:#C82930;stroke-width:1;" width="6" x="30.13" y="849.6016"/><text fill="#000000" font-family="sans-serif" font-size="14" lengthAdjust="spacing" textLength="161.834" x="42.13" y="855.9482">surfaceContainer : U32</text><rect fill="none" height="6" style="stroke:#C82930;stroke-width:1;" width="6" x="30.13" y="865.8984"/><text fill="#000000" font-family="sans-serif" font-size="14" lengthAdjust="spacing" textLength="194.0107" x="42.13" y="872.2451">surfaceContainerHigh : U32</text><ellipse cx="33.13" cy="885.1953" fill="none" rx="3" ry="3" style="stroke:#038048;stroke-width:1;"/><text fill="#000000" font-family="sans-serif" font-size="14" lengthAdjust="spacing" textLength="215.4072" x="42.13" y="888.542">surfaceContainerHighest : U32</text><rect fill="none" height="6" style="stroke:#C82930;stroke-width:1;" width="6" x="30.13" y="898.4922"/><text fill="#000000" font-family="sans-serif" font-size="14" lengthAdjust="spacing" textLength="172.7988" x="42.13" y="904.8389">CSS variable List : String</text><line style="stroke:#555555;stroke-width:0.5;" x1="23.13" x2="268.8605" y1="912.1406" y2="912.1406"/><rect fill="#F24D5C" height="6" style="stroke:#C82930;stroke-width:1;" width="6" x="30.13" y="922.7891"/><text fill="#000000" font-family="sans-serif" font-size="14" lengthAdjust="spacing" text-decoration="underline" textLength="144.4844" x="42.13" y="929.1357">fab-outline buttons()</text><rect fill="#F24D5C" height="6" style="stroke:#C82930;stroke-width:1;" width="6" x="30.13" y="939.0859"/><text fill="#000000" font-family="sans-serif" font-size="14" lengthAdjust="spacing" text-decoration="underline" textLength="102.9424" x="42.13" y="945.4326">filled buttons()</text><rect fill="#F24D5C" height="6" style="stroke:#C82930;stroke-width:1;" width="6" x="30.13" y="955.3828"/><text fill="#000000" font-family="sans-serif" font-size="14" lengthAdjust="spacing" text-decoration="underline" textLength="134.4766" x="42.13" y="961.7295">nooutline buttons()</text><rect fill="#F24D5C" height="6" style="stroke:#C82930;stroke-width:1;" width="6" x="30.13" y="971.6797"/><text fill="#000000" font-family="sans-serif" font-size="14" lengthAdjust="spacing" text-decoration="underline" textLength="104.2412" x="42.13" y="978.0264">tonal buttons()</text><rect fill="#F24D5C" height="6" style="stroke:#C82930;stroke-width:1;" width="6" x="30.13" y="987.9766"/><text fill="#000000" font-family="sans-serif" font-size="14" lengthAdjust="spacing" text-decoration="underline" textLength="99.0869" x="42.13" y="994.3232">Blend Colors()</text><rect fill="#F24D5C" height="6" style="stroke:#C82930;stroke-width:1;" width="6" x="30.13" y="1004.2734"/><text fill="#000000" font-family="sans-serif" font-size="14" lengthAdjust="spacing" text-decoration="underline" textLength="140.1641" x="42.13" y="1010.6201">Color Opacity Calc()</text><rect fill="#F24D5C" height="6" style="stroke:#C82930;stroke-width:1;" width="6" x="30.13" y="1020.5703"/><text fill="#000000" font-family="sans-serif" font-size="14" lengthAdjust="spacing" text-decoration="underline" textLength="218.2783" x="42.13" y="1026.917">convert color string summary()</text><rect fill="#F24D5C" height="6" style="stroke:#C82930;stroke-width:1;" width="6" x="30.13" y="1036.8672"/><text fill="#000000" font-family="sans-serif" font-size="14" lengthAdjust="spacing" text-decoration="underline" textLength="194.25" x="42.13" y="1043.2139">convert color to rgb string()</text><rect fill="#F24D5C" height="6" style="stroke:#C82930;stroke-width:1;" width="6" x="30.13" y="1053.1641"/><text fill="#000000" font-family="sans-serif" font-size="14" lengthAdjust="spacing" text-decoration="underline" textLength="139.4189" x="42.13" y="1059.5107">Convert PNG color()</text><rect fill="#F24D5C" height="6" style="stroke:#C82930;stroke-width:1;" width="6" x="30.13" y="1069.4609"/><text fill="#000000" font-family="sans-serif" font-size="14" lengthAdjust="spacing" text-decoration="underline" textLength="159.2637" x="42.13" y="1075.8076">Create CSS Variables()</text><rect fill="#F24D5C" height="6" style="stroke:#C82930;stroke-width:1;" width="6" x="30.13" y="1085.7578"/><text fill="#000000" font-family="sans-serif" font-size="14" lengthAdjust="spacing" text-decoration="underline" textLength="155.1074" x="42.13" y="1092.1045">Find TSC tEXt Chunk()</text><rect fill="#F24D5C" height="6" style="stroke:#C82930;stroke-width:1;" width="6" x="30.13" y="1102.0547"/><text fill="#000000" font-family="sans-serif" font-size="14" lengthAdjust="spacing" text-decoration="underline" textLength="165.5596" x="42.13" y="1108.4014">Insert TSC tEXt Chunk()</text><rect fill="#F24D5C" height="6" style="stroke:#C82930;stroke-width:1;" width="6" x="30.13" y="1118.3516"/><text fill="#000000" font-family="sans-serif" font-size="14" lengthAdjust="spacing" text-decoration="underline" textLength="153.0498" x="42.13" y="1124.6982">Is Color Transparent()</text><rect fill="#F24D5C" height="6" style="stroke:#C82930;stroke-width:1;" width="6" x="30.13" y="1134.6484"/><text fill="#000000" font-family="sans-serif" font-size="14" lengthAdjust="spacing" text-decoration="underline" textLength="109.7441" x="42.13" y="1140.9951">Mask to Alpha()</text><rect fill="#F24D5C" height="6" style="stroke:#C82930;stroke-width:1;" width="6" x="30.13" y="1150.9453"/><text fill="#000000" font-family="sans-serif" font-size="14" lengthAdjust="spacing" text-decoration="underline" textLength="179.4023" x="42.13" y="1157.292">WaveformChart - Colors()</text><rect fill="#F24D5C" height="6" style="stroke:#C82930;stroke-width:1;" width="6" x="30.13" y="1167.2422"/><text fill="#000000" font-family="sans-serif" font-size="14" lengthAdjust="spacing" text-decoration="underline" textLength="183.873" x="42.13" y="1173.5889">WaveformGraph - Colors()</text><ellipse cx="33.13" cy="1186.5391" fill="#84BE84" rx="3" ry="3" style="stroke:#038048;stroke-width:1;"/><text fill="#000000" font-family="sans-serif" font-size="14" lengthAdjust="spacing" text-decoration="underline" textLength="180.5645" x="42.13" y="1189.8857">Boolean Update - Colors()</text><ellipse cx="33.13" cy="1202.8359" fill="#84BE84" rx="3" ry="3" style="stroke:#038048;stroke-width:1;"/><text fill="#000000" font-family="sans-serif" font-size="14" lengthAdjust="spacing" text-decoration="underline" textLength="122.7666" x="42.13" y="1206.1826">Boolean Update()</text><ellipse cx="33.13" cy="1219.1328" fill="#84BE84" rx="3" ry="3" style="stroke:#038048;stroke-width:1;"/><text fill="#000000" font-family="sans-serif" font-size="14" lengthAdjust="spacing" text-decoration="underline" textLength="107.3994" x="42.13" y="1222.4795">Controls Loop()</text><ellipse cx="33.13" cy="1235.4297" fill="#84BE84" rx="3" ry="3" style="stroke:#038048;stroke-width:1;"/><text fill="#000000" font-family="sans-serif" font-size="14" lengthAdjust="spacing" text-decoration="underline" textLength="133.2939" x="42.13" y="1238.7764">Decorations Loop()</text><ellipse cx="33.13" cy="1251.7266" fill="#84BE84" rx="3" ry="3" style="stroke:#038048;stroke-width:1;"/><text fill="#000000" font-family="sans-serif" font-size="14" lengthAdjust="spacing" text-decoration="underline" textLength="117.0381" x="42.13" y="1255.0732">outline buttons()</text><ellipse cx="33.13" cy="1268.0234" fill="#84BE84" rx="3" ry="3" style="stroke:#038048;stroke-width:1;"/><text fill="#000000" font-family="sans-serif" font-size="14" lengthAdjust="spacing" text-decoration="underline" textLength="115.2266" x="42.13" y="1271.3701">Replace Image()</text><ellipse cx="33.13" cy="1284.3203" fill="#84BE84" rx="3" ry="3" style="stroke:#038048;stroke-width:1;"/><text fill="#000000" font-family="sans-serif" font-size="14" lengthAdjust="spacing" text-decoration="underline" textLength="109.252" x="42.13" y="1287.667">Color Grabber()</text><ellipse cx="33.13" cy="1300.6172" fill="#84BE84" rx="3" ry="3" style="stroke:#038048;stroke-width:1;"/><text fill="#000000" font-family="sans-serif" font-size="14" lengthAdjust="spacing" text-decoration="underline" textLength="210.5674" x="42.13" y="1303.9639">Material.Build Scheme Array()</text><ellipse cx="33.13" cy="1316.9141" fill="#84BE84" rx="3" ry="3" style="stroke:#038048;stroke-width:1;"/><text fill="#000000" font-family="sans-serif" font-size="14" lengthAdjust="spacing" text-decoration="underline" textLength="109.9219" x="42.13" y="1320.2607">Update Image()</text><ellipse cx="33.13" cy="1333.2109" fill="#84BE84" rx="3" ry="3" style="stroke:#038048;stroke-width:1;"/><text fill="#000000" font-family="sans-serif" font-size="14" lengthAdjust="spacing" text-decoration="underline" textLength="105.8271" x="42.13" y="1336.5576">View-Scheme()</text></g><!--SRC=[bPRVJzim4CVVyrTOx6LJ14AR9asyqK012GPQGhTN9xasLXqxifqoLFL_tpbDId_ORXV4G-y-Nz_bVCvPWo62rg0RMa0A3LNKI4Mk8ZrdmlwgISAfrYDQp6TAjg9C94VWqxXx3Z2fIb0zyhrxzf6n5AO7Bhjd7xW7YciS1FnnQV-YBTh81lz9BesHDIcPWi8mAQB2haBEiZGXJzI0OfIJh88QBlY2i_ngC9wdXRMUaMMqd3BWvOh4jXRaYgH6CJ7RcCyRnMggtj7p-kthXrctQefrovWm-oufNjoQVga4oq2P0EKLUWaDXHIbOsafKfzhemd4JOyoM3V3d84pZsTG1C9cnn1GIZfqjovpnmQ2tORySRvfkaFboEUB-ovm5DJjwFa9nIPqDKuQzhU6O-uUiqUaArhAjmDhWPssRsHY0Kg39_VU-op2_d3lZzbVABrzx_HkAsyEazuL-uemzBSdVXhqxwgTEUmkuCbYE16U9BAGUqVhJ657xgl3UkiS-jupKcnM6K-RRmxFetm3xLjycpg67FFVOpR7ah6C8viaJSd2LY7dG1vP1mpVTcseOSMAB6imbRJqbEQRuvMtE5M4_lp52JBESNU2Z90dBOKU74z1PCG1FphT6FGGwn7vZ3EScNUIK5wuEMnFF9w651slkq8GtTRsv9oYm6chPdalzAMo5hpyl5kBF9W2dCB4xi-atn_FkuqPlhoTvURsZo59rOgv6tmGsWO-2TNhSf9CKO5N7mN2kCadgkVsjQzvKr4tyfikO2fLdLGKmvy7DsfWxnHjgZ0RZwJaG0LvRKfRgl-1tOmzB4foJHwbRDp83Nx1y0Q8jwWGTKfZnx-WuNP0FDHqvat8xW7M8i_1tIVnS5Ux6BMCbsHzOoFNIb5tmyPzjG9H9mpU-giV0j4gYg9_]--></g></svg>