<?plantuml 1.2026.1?><svg xmlns="http://www.w3.org/2000/svg" xmlns:xlink="http://www.w3.org/1999/xlink" contentStyleType="text/css" data-diagram-type="CLASS" height="202px" preserveAspectRatio="none" style="width:236px;height:202px;background:#FFFFFF;" version="1.1" viewBox="0 0 236 202" width="236px" zoomAndPan="magnify"><defs/><g><!--class Theme Serializer--><g class="entity" data-qualified-name="Theme Serializer" data-source-line="8" id="ent0002"><rect fill="#FFFFFF" height="80.5938" rx="2.5" ry="2.5" style="stroke:#555555;stroke-width:0.5;" width="157.3594" x="39.68" y="115"/><rect fill="#808080" height="32" rx="2.5" ry="2.5" style="stroke:#808080;stroke-width:0.5;" width="157.3594" x="39.68" y="115"/><rect fill="#808080" height="2.5" style="stroke:#808080;stroke-width:0.5;" width="157.3594" x="39.68" y="144.5"/><rect fill="none" height="80.5938" rx="2.5" ry="2.5" style="stroke:#555555;stroke-width:0.5;" width="157.3594" x="39.68" y="115"/><ellipse cx="58.0093" cy="131" fill="#ADD1B2" rx="11" ry="11" style="stroke:#181818;stroke-width:1;"/><path d="M60.978,136.6406 Q60.3999,136.9375 59.7593,137.0781 Q59.1187,137.2344 58.4155,137.2344 Q55.9155,137.2344 54.5874,135.5938 Q53.2749,133.9375 53.2749,130.8125 Q53.2749,127.6875 54.5874,126.0313 Q55.9155,124.375 58.4155,124.375 Q59.1187,124.375 59.7593,124.5313 Q60.4155,124.6875 60.978,124.9844 L60.978,127.7031 Q60.353,127.125 59.7593,126.8594 Q59.1655,126.5781 58.5405,126.5781 Q57.1968,126.5781 56.5093,127.6563 Q55.8218,128.7188 55.8218,130.8125 Q55.8218,132.9063 56.5093,133.9844 Q57.1968,135.0469 58.5405,135.0469 Q59.1655,135.0469 59.7593,134.7813 Q60.353,134.5 60.978,133.9219 L60.978,136.6406 Z " fill="#000000"/><text fill="#000000" font-family="sans-serif" font-size="14" lengthAdjust="spacing" textLength="117.9609" x="72.7491" y="135.8467">Theme Serializer</text><line style="stroke:#555555;stroke-width:0.5;" x1="40.68" x2="196.0394" y1="147" y2="147"/><line style="stroke:#555555;stroke-width:0.5;" x1="40.68" x2="196.0394" y1="155" y2="155"/><g data-visibility-modifier="PUBLIC_METHOD"><ellipse cx="50.68" cy="168.6484" fill="#84BE84" rx="3" ry="3" style="stroke:#038048;stroke-width:1;"/></g><text fill="#000000" font-family="sans-serif" font-size="14" lengthAdjust="spacing" textLength="131.3594" x="59.68" y="171.9951">JSON to LVObject()</text><g data-visibility-modifier="PUBLIC_METHOD"><ellipse cx="50.68" cy="184.9453" fill="#84BE84" rx="3" ry="3" style="stroke:#038048;stroke-width:1;"/></g><text fill="#000000" font-family="sans-serif" font-size="14" lengthAdjust="spacing" textLength="131.3594" x="59.68" y="188.292">LVObject to JSON()</text></g><!--class JSONtext LVClass Serializer--><g class="entity" data-qualified-name="JSONtext LVClass Serializer" data-source-line="13" id="ent0003"><rect fill="#FFFFFF" height="48" rx="2.5" ry="2.5" style="stroke:#555555;stroke-width:0.5;" width="222.7158" x="7" y="7"/><rect fill="#808080" height="32" rx="2.5" ry="2.5" style="stroke:#808080;stroke-width:0.5;" width="222.7158" x="7" y="7"/><rect fill="#808080" height="2.5" style="stroke:#808080;stroke-width:0.5;" width="222.7158" x="7" y="36.5"/><rect fill="none" height="48" rx="2.5" ry="2.5" style="stroke:#555555;stroke-width:0.5;" width="222.7158" x="7" y="7"/><ellipse cx="22" cy="23" fill="#ADD1B2" rx="11" ry="11" style="stroke:#181818;stroke-width:1;"/><path d="M24.9688,28.6406 Q24.3906,28.9375 23.75,29.0781 Q23.1094,29.2344 22.4063,29.2344 Q19.9063,29.2344 18.5781,27.5938 Q17.2656,25.9375 17.2656,22.8125 Q17.2656,19.6875 18.5781,18.0313 Q19.9063,16.375 22.4063,16.375 Q23.1094,16.375 23.75,16.5313 Q24.4063,16.6875 24.9688,16.9844 L24.9688,19.7031 Q24.3438,19.125 23.75,18.8594 Q23.1563,18.5781 22.5313,18.5781 Q21.1875,18.5781 20.5,19.6563 Q19.8125,20.7188 19.8125,22.8125 Q19.8125,24.9063 20.5,25.9844 Q21.1875,27.0469 22.5313,27.0469 Q23.1563,27.0469 23.75,26.7813 Q24.3438,26.5 24.9688,25.9219 L24.9688,28.6406 Z " fill="#000000"/><text fill="#000000" font-family="sans-serif" font-size="14" lengthAdjust="spacing" textLength="190.7158" x="36" y="27.8467">JSONtext LVClass Serializer</text><line style="stroke:#555555;stroke-width:0.5;" x1="8" x2="228.7158" y1="39" y2="39"/><line style="stroke:#555555;stroke-width:0.5;" x1="8" x2="228.7158" y1="47" y2="47"/></g><!--reverse link JSONtext LVClass Serializer to Theme Serializer--><g class="link" data-entity-1="ent0003" data-entity-2="ent0002" data-link-type="extension" data-source-line="13" id="lnk4"><path codeLine="13" d="M118.36,73.29 C118.36,90.06 118.36,95.09 118.36,114.73" fill="none" id="JSONtext LVClass Serializer-backto-Theme Serializer" style="stroke:#181818;stroke-width:1;"/><polygon fill="none" points="118.36,55.29,112.36,73.29,124.36,73.29,118.36,55.29" style="stroke:#181818;stroke-width:1;"/></g><?plantuml-src ROvF2y8m3CNl-HHXNXGHl0WYdXI6YEXXuhrkGQjhCze8ujntjnqA_dkXq3Q_zn9FWbOPyfNAAQDAEINiS0B-h6ry6PoNolkPoiy7nnTRpBaCG2TjzOEnAyWzaL6hRoHbAqzWsEeRM90A6Jy3nyDOy4OBL-7WdaNOOA4TvQBPGXvJCDaUoH1cvBGgzOrSWZNKXkJ8HOFzPRPPH_TgjzcVWh7RUsk-FYCGmT241f9u5RfACBMRVeHFxuF1dw40y000?></g></svg>