<svg xmlns="http://www.w3.org/2000/svg" xmlns:xlink="http://www.w3.org/1999/xlink" contentStyleType="text/css" data-diagram-type="CLASS" height="2184px" preserveAspectRatio="none" style="width:558px;height:2184px;background:#FFFFFF;" version="1.1" viewBox="0 0 558 2184" width="558px" zoomAndPan="magnify"><defs/><g><!--cluster TSC Material Theme.lvlib--><g class="cluster" data-entity="TSC Material Theme.lvlib" data-source-line="34" data-uid="ent0004" id="cluster_TSC Material Theme.lvlib"><path d="M8.5,454.83 L206.6279,454.83 A3.75,3.75 0 0 1 209.1279,457.33 L216.1279,477.1269 L548.5,477.1269 A2.5,2.5 0 0 1 551,479.6269 L551,2174.94 A2.5,2.5 0 0 1 548.5,2177.44 L8.5,2177.44 A2.5,2.5 0 0 1 6,2174.94 L6,457.33 A2.5,2.5 0 0 1 8.5,454.83" fill="none" style="stroke:#000000;stroke-width:1.5;"/><line style="stroke:#000000;stroke-width:1.5;" x1="6" x2="216.1279" y1="477.1269" y2="477.1269"/><text fill="#000000" font-family="sans-serif" font-size="14" font-weight="bold" lengthAdjust="spacing" textLength="197.1279" x="10" y="469.8251">TSC Material Theme.lvlib</text></g><!--class Material Theme--><g class="entity" data-entity="Material Theme" data-source-line="34" data-uid="ent0003" id="entity_Material Theme"><rect fill="#FFFFFF" height="259.8594" rx="2.5" ry="2.5" style="stroke:#555555;stroke-width:0.5;" width="238.2217" x="161.89" y="489.83"/><rect fill="#808080" height="32" rx="2.5" ry="2.5" style="stroke:#808080;stroke-width:0.5;" width="238.2217" x="161.89" y="489.83"/><rect fill="#808080" height="2.5" style="stroke:#808080;stroke-width:0.5;" width="238.2217" x="161.89" y="519.33"/><rect fill="none" height="259.8594" rx="2.5" ry="2.5" style="stroke:#555555;stroke-width:0.5;" width="238.2217" x="161.89" y="489.83"/><ellipse cx="221.9437" cy="505.83" fill="#ADD1B2" rx="11" ry="11" style="stroke:#181818;stroke-width:1;"/><path d="M224.9125,511.4706 Q224.3343,511.7675 223.6937,511.9081 Q223.0531,512.0644 222.35,512.0644 Q219.85,512.0644 218.5218,510.4238 Q217.2093,508.7675 217.2093,505.6425 Q217.2093,502.5175 218.5218,500.8613 Q219.85,499.205 222.35,499.205 Q223.0531,499.205 223.6937,499.3613 Q224.35,499.5175 224.9125,499.8144 L224.9125,502.5331 Q224.2875,501.955 223.6937,501.6894 Q223.1,501.4081 222.475,501.4081 Q221.1312,501.4081 220.4437,502.4863 Q219.7562,503.5488 219.7562,505.6425 Q219.7562,507.7363 220.4437,508.8144 Q221.1312,509.8769 222.475,509.8769 Q223.1,509.8769 223.6937,509.6113 Q224.2875,509.33 224.9125,508.7519 L224.9125,511.4706 Z " fill="#000000"/><text fill="#000000" font-family="sans-serif" font-size="14" lengthAdjust="spacing" textLength="109.6143" x="242.4437" y="510.6767">Material Theme</text><line style="stroke:#555555;stroke-width:0.5;" x1="162.89" x2="399.1117" y1="521.83" y2="521.83"/><rect fill="none" height="6" style="stroke:#C82930;stroke-width:1;" width="6" x="169.89" y="532.4784"/><text fill="#000000" font-family="sans-serif" font-size="14" lengthAdjust="spacing" textLength="133.2393" x="181.89" y="538.8251">description : String</text><rect fill="none" height="6" style="stroke:#C82930;stroke-width:1;" width="6" x="169.89" y="548.7753"/><text fill="#000000" font-family="sans-serif" font-size="14" lengthAdjust="spacing" textLength="75.0859" x="181.89" y="555.122">seed : U32</text><rect fill="none" height="6" style="stroke:#C82930;stroke-width:1;" width="6" x="169.89" y="565.0722"/><text fill="#000000" font-family="sans-serif" font-size="14" lengthAdjust="spacing" textLength="137.7852" x="181.89" y="571.4189">coreColors : Cluster</text><rect fill="none" height="6" style="stroke:#C82930;stroke-width:1;" width="6" x="169.89" y="581.3691"/><text fill="#000000" font-family="sans-serif" font-size="14" lengthAdjust="spacing" textLength="196.2393" x="181.89" y="587.7157">Schemes : Array of LV Class</text><rect fill="none" height="6" style="stroke:#C82930;stroke-width:1;" width="6" x="169.89" y="597.6659"/><text fill="#000000" font-family="sans-serif" font-size="14" lengthAdjust="spacing" textLength="189.0342" x="181.89" y="604.0126">Palettes : Array of LV Class</text><line style="stroke:#555555;stroke-width:0.5;" x1="162.89" x2="399.1117" y1="611.3144" y2="611.3144"/><ellipse cx="172.89" cy="624.9628" fill="#84BE84" rx="3" ry="3" style="stroke:#038048;stroke-width:1;"/><text fill="#000000" font-family="sans-serif" font-size="14" lengthAdjust="spacing" text-decoration="underline" textLength="136.042" x="181.89" y="628.3095">Apply TSC Pop Up()</text><ellipse cx="172.89" cy="641.2597" fill="#84BE84" rx="3" ry="3" style="stroke:#038048;stroke-width:1;"/><text fill="#000000" font-family="sans-serif" font-size="14" lengthAdjust="spacing" text-decoration="underline" textLength="122.0146" x="181.89" y="644.6064">Apply UI Theme()</text><ellipse cx="172.89" cy="657.5566" fill="#84BE84" rx="3" ry="3" style="stroke:#038048;stroke-width:1;"/><text fill="#000000" font-family="sans-serif" font-size="14" lengthAdjust="spacing" text-decoration="underline" textLength="157.5684" x="181.89" y="660.9032">convert string to hex()</text><ellipse cx="172.89" cy="673.8534" fill="#84BE84" rx="3" ry="3" style="stroke:#038048;stroke-width:1;"/><text fill="#000000" font-family="sans-serif" font-size="14" lengthAdjust="spacing" text-decoration="underline" textLength="104.1113" x="181.89" y="677.2001">Create JS File()</text><ellipse cx="172.89" cy="690.1503" fill="#84BE84" rx="3" ry="3" style="stroke:#038048;stroke-width:1;"/><text fill="#000000" font-family="sans-serif" font-size="14" lengthAdjust="spacing" text-decoration="underline" textLength="96.7354" x="181.89" y="693.497">Get Palettes()</text><ellipse cx="172.89" cy="706.4472" fill="#84BE84" rx="3" ry="3" style="stroke:#038048;stroke-width:1;"/><text fill="#000000" font-family="sans-serif" font-size="14" lengthAdjust="spacing" text-decoration="underline" textLength="96.6465" x="181.89" y="709.7939">Get Scheme()</text><ellipse cx="172.89" cy="722.7441" fill="#84BE84" rx="3" ry="3" style="stroke:#038048;stroke-width:1;"/><text fill="#000000" font-family="sans-serif" font-size="14" lengthAdjust="spacing" text-decoration="underline" textLength="158.8193" x="181.89" y="726.0907">Load Material Theme()</text><ellipse cx="172.89" cy="739.0409" fill="#84BE84" rx="3" ry="3" style="stroke:#038048;stroke-width:1;"/><text fill="#000000" font-family="sans-serif" font-size="14" lengthAdjust="spacing" text-decoration="underline" textLength="212.2217" x="181.89" y="742.3876">Material.Convert to LabVIEW()</text></g><!--class Material-Scheme--><g class="entity" data-entity="Material-Scheme" data-source-line="54" data-uid="ent0006" id="entity_Material-Scheme"><rect fill="#FFFFFF" height="1351.75" rx="2.5" ry="2.5" style="stroke:#555555;stroke-width:0.5;" width="247.7305" x="22.13" y="809.69"/><rect fill="#808080" height="32" rx="2.5" ry="2.5" style="stroke:#808080;stroke-width:0.5;" width="247.7305" x="22.13" y="809.69"/><rect fill="#808080" height="2.5" style="stroke:#808080;stroke-width:0.5;" width="247.7305" x="22.13" y="839.19"/><rect fill="none" height="1351.75" rx="2.5" ry="2.5" style="stroke:#555555;stroke-width:0.5;" width="247.7305" x="22.13" y="809.69"/><ellipse cx="82.6212" cy="825.69" fill="#ADD1B2" rx="11" ry="11" style="stroke:#181818;stroke-width:1;"/><path d="M85.59,831.3306 Q85.0118,831.6275 84.3712,831.7681 Q83.7306,831.9244 83.0275,831.9244 Q80.5275,831.9244 79.1993,830.2838 Q77.8868,828.6275 77.8868,825.5025 Q77.8868,822.3775 79.1993,820.7213 Q80.5275,819.065 83.0275,819.065 Q83.7306,819.065 84.3712,819.2213 Q85.0275,819.3775 85.59,819.6744 L85.59,822.3931 Q84.965,821.815 84.3712,821.5494 Q83.7775,821.2681 83.1525,821.2681 Q81.8087,821.2681 81.1212,822.3463 Q80.4337,823.4088 80.4337,825.5025 Q80.4337,827.5963 81.1212,828.6744 Q81.8087,829.7369 83.1525,829.7369 Q83.7775,829.7369 84.3712,829.4713 Q84.965,829.19 85.59,828.6119 L85.59,831.3306 Z " fill="#000000"/><text fill="#000000" font-family="sans-serif" font-size="14" lengthAdjust="spacing" textLength="118.248" x="103.1212" y="830.5367">Material-Scheme</text><line style="stroke:#555555;stroke-width:0.5;" x1="23.13" x2="268.8605" y1="841.69" y2="841.69"/><ellipse cx="33.13" cy="855.3384" fill="none" rx="3" ry="3" style="stroke:#038048;stroke-width:1;"/><text fill="#000000" font-family="sans-serif" font-size="14" lengthAdjust="spacing" textLength="95.1016" x="42.13" y="858.6851">name : String</text><rect fill="none" height="6" style="stroke:#C82930;stroke-width:1;" width="6" x="30.13" y="868.6353"/><text fill="#000000" font-family="sans-serif" font-size="14" lengthAdjust="spacing" textLength="96.4688" x="42.13" y="874.982">primary : U32</text><rect fill="none" height="6" style="stroke:#C82930;stroke-width:1;" width="6" x="30.13" y="884.9322"/><text fill="#000000" font-family="sans-serif" font-size="14" lengthAdjust="spacing" textLength="120.2236" x="42.13" y="891.2789">surfaceTint : U32</text><rect fill="none" height="6" style="stroke:#C82930;stroke-width:1;" width="6" x="30.13" y="901.2291"/><text fill="#000000" font-family="sans-serif" font-size="14" lengthAdjust="spacing" textLength="113.4629" x="42.13" y="907.5757">onPrimary : U32</text><rect fill="none" height="6" style="stroke:#C82930;stroke-width:1;" width="6" x="30.13" y="917.5259"/><text fill="#000000" font-family="sans-serif" font-size="14" lengthAdjust="spacing" textLength="164.8828" x="42.13" y="923.8726">primaryContainer : U32</text><rect fill="none" height="6" style="stroke:#C82930;stroke-width:1;" width="6" x="30.13" y="933.8228"/><text fill="#000000" font-family="sans-serif" font-size="14" lengthAdjust="spacing" textLength="181.877" x="42.13" y="940.1695">onPrimaryContainer : U32</text><rect fill="none" height="6" style="stroke:#C82930;stroke-width:1;" width="6" x="30.13" y="950.1197"/><text fill="#000000" font-family="sans-serif" font-size="14" lengthAdjust="spacing" textLength="114.2285" x="42.13" y="956.4664">secondary : U32</text><rect fill="none" height="6" style="stroke:#C82930;stroke-width:1;" width="6" x="30.13" y="966.4166"/><text fill="#000000" font-family="sans-serif" font-size="14" lengthAdjust="spacing" textLength="133.2598" x="42.13" y="972.7632">onSecondary : U32</text><rect fill="none" height="6" style="stroke:#C82930;stroke-width:1;" width="6" x="30.13" y="982.7134"/><text fill="#000000" font-family="sans-serif" font-size="14" lengthAdjust="spacing" textLength="182.6426" x="42.13" y="989.0601">secondaryContainer : U32</text><rect fill="none" height="6" style="stroke:#C82930;stroke-width:1;" width="6" x="30.13" y="999.0103"/><text fill="#000000" font-family="sans-serif" font-size="14" lengthAdjust="spacing" textLength="201.6738" x="42.13" y="1005.357">onSecondaryContainer : U32</text><rect fill="none" height="6" style="stroke:#C82930;stroke-width:1;" width="6" x="30.13" y="1015.3072"/><text fill="#000000" font-family="sans-serif" font-size="14" lengthAdjust="spacing" textLength="93.5361" x="42.13" y="1021.6539">tertiary : U32</text><rect fill="none" height="6" style="stroke:#C82930;stroke-width:1;" width="6" x="30.13" y="1031.6041"/><text fill="#000000" font-family="sans-serif" font-size="14" lengthAdjust="spacing" textLength="114.0371" x="42.13" y="1037.9507">onTertiary : U32</text><rect fill="none" height="6" style="stroke:#C82930;stroke-width:1;" width="6" x="30.13" y="1047.9009"/><text fill="#000000" font-family="sans-serif" font-size="14" lengthAdjust="spacing" textLength="161.9502" x="42.13" y="1054.2476">tertiaryContainer : U32</text><rect fill="none" height="6" style="stroke:#C82930;stroke-width:1;" width="6" x="30.13" y="1064.1978"/><text fill="#000000" font-family="sans-serif" font-size="14" lengthAdjust="spacing" textLength="182.4512" x="42.13" y="1070.5445">onTertiaryContainer : U32</text><rect fill="none" height="6" style="stroke:#C82930;stroke-width:1;" width="6" x="30.13" y="1080.4947"/><text fill="#000000" font-family="sans-serif" font-size="14" lengthAdjust="spacing" textLength="76.125" x="42.13" y="1086.8414">error : U32</text><rect fill="none" height="6" style="stroke:#C82930;stroke-width:1;" width="6" x="30.13" y="1096.7916"/><text fill="#000000" font-family="sans-serif" font-size="14" lengthAdjust="spacing" textLength="93.7959" x="42.13" y="1103.1382">onError : U32</text><rect fill="none" height="6" style="stroke:#C82930;stroke-width:1;" width="6" x="30.13" y="1113.0884"/><text fill="#000000" font-family="sans-serif" font-size="14" lengthAdjust="spacing" textLength="144.5391" x="42.13" y="1119.4351">errorContainer : U32</text><rect fill="none" height="6" style="stroke:#C82930;stroke-width:1;" width="6" x="30.13" y="1129.3853"/><text fill="#000000" font-family="sans-serif" font-size="14" lengthAdjust="spacing" textLength="162.21" x="42.13" y="1135.732">onErrorContainer : U32</text><ellipse cx="33.13" cy="1148.6822" fill="none" rx="3" ry="3" style="stroke:#038048;stroke-width:1;"/><text fill="#000000" font-family="sans-serif" font-size="14" lengthAdjust="spacing" textLength="124.79" x="42.13" y="1152.0289">background : U32</text><rect fill="none" height="6" style="stroke:#C82930;stroke-width:1;" width="6" x="30.13" y="1161.9791"/><text fill="#000000" font-family="sans-serif" font-size="14" lengthAdjust="spacing" textLength="142.9463" x="42.13" y="1168.3257">onBackground : U32</text><ellipse cx="33.13" cy="1181.2759" fill="none" rx="3" ry="3" style="stroke:#038048;stroke-width:1;"/><text fill="#000000" font-family="sans-serif" font-size="14" lengthAdjust="spacing" textLength="93.4199" x="42.13" y="1184.6226">surface : U32</text><rect fill="none" height="6" style="stroke:#C82930;stroke-width:1;" width="6" x="30.13" y="1194.5728"/><text fill="#000000" font-family="sans-serif" font-size="14" lengthAdjust="spacing" textLength="112.4512" x="42.13" y="1200.9195">onSurface : U32</text><rect fill="none" height="6" style="stroke:#C82930;stroke-width:1;" width="6" x="30.13" y="1210.8697"/><text fill="#000000" font-family="sans-serif" font-size="14" lengthAdjust="spacing" textLength="144.1631" x="42.13" y="1217.2164">surfaceVariant : U32</text><rect fill="none" height="6" style="stroke:#C82930;stroke-width:1;" width="6" x="30.13" y="1227.1666"/><text fill="#000000" font-family="sans-serif" font-size="14" lengthAdjust="spacing" textLength="163.1943" x="42.13" y="1233.5132">onSurfaceVariant : U32</text><rect fill="none" height="6" style="stroke:#C82930;stroke-width:1;" width="6" x="30.13" y="1243.4634"/><text fill="#000000" font-family="sans-serif" font-size="14" lengthAdjust="spacing" textLength="89.8721" x="42.13" y="1249.8101">outline : U32</text><rect fill="none" height="6" style="stroke:#C82930;stroke-width:1;" width="6" x="30.13" y="1259.7603"/><text fill="#000000" font-family="sans-serif" font-size="14" lengthAdjust="spacing" textLength="140.6152" x="42.13" y="1266.107">outlineVariant : U32</text><rect fill="none" height="6" style="stroke:#C82930;stroke-width:1;" width="6" x="30.13" y="1276.0572"/><text fill="#000000" font-family="sans-serif" font-size="14" lengthAdjust="spacing" textLength="95.3271" x="42.13" y="1282.4039">shadow : U32</text><rect fill="none" height="6" style="stroke:#C82930;stroke-width:1;" width="6" x="30.13" y="1292.3541"/><text fill="#000000" font-family="sans-serif" font-size="14" lengthAdjust="spacing" textLength="79.9531" x="42.13" y="1298.7007">scrim : U32</text><rect fill="none" height="6" style="stroke:#C82930;stroke-width:1;" width="6" x="30.13" y="1308.6509"/><text fill="#000000" font-family="sans-serif" font-size="14" lengthAdjust="spacing" textLength="146.3369" x="42.13" y="1314.9976">inverseSurface : U32</text><rect fill="none" height="6" style="stroke:#C82930;stroke-width:1;" width="6" x="30.13" y="1324.9478"/><text fill="#000000" font-family="sans-serif" font-size="14" lengthAdjust="spacing" textLength="166.2295" x="42.13" y="1331.2945">inverseOnSurface : U32</text><rect fill="none" height="6" style="stroke:#C82930;stroke-width:1;" width="6" x="30.13" y="1341.2447"/><text fill="#000000" font-family="sans-serif" font-size="14" lengthAdjust="spacing" textLength="147.3486" x="42.13" y="1347.5914">inversePrimary : U32</text><rect fill="none" height="6" style="stroke:#C82930;stroke-width:1;" width="6" x="30.13" y="1357.5416"/><text fill="#000000" font-family="sans-serif" font-size="14" lengthAdjust="spacing" textLength="134.1963" x="42.13" y="1363.8882">primaryFixed : U32</text><rect fill="none" height="6" style="stroke:#C82930;stroke-width:1;" width="6" x="30.13" y="1373.8384"/><text fill="#000000" font-family="sans-serif" font-size="14" lengthAdjust="spacing" textLength="151.1904" x="42.13" y="1380.1851">onPrimaryFixed : U32</text><rect fill="none" height="6" style="stroke:#C82930;stroke-width:1;" width="6" x="30.13" y="1390.1353"/><text fill="#000000" font-family="sans-serif" font-size="14" lengthAdjust="spacing" textLength="162.5039" x="42.13" y="1396.482">primaryFixedDim : U32</text><rect fill="none" height="6" style="stroke:#C82930;stroke-width:1;" width="6" x="30.13" y="1406.4322"/><text fill="#000000" font-family="sans-serif" font-size="14" lengthAdjust="spacing" textLength="201.9336" x="42.13" y="1412.7789">onPrimaryFixedVariant : U32</text><rect fill="none" height="6" style="stroke:#C82930;stroke-width:1;" width="6" x="30.13" y="1422.7291"/><text fill="#000000" font-family="sans-serif" font-size="14" lengthAdjust="spacing" textLength="151.9561" x="42.13" y="1429.0757">secondaryFixed : U32</text><rect fill="none" height="6" style="stroke:#C82930;stroke-width:1;" width="6" x="30.13" y="1439.0259"/><text fill="#000000" font-family="sans-serif" font-size="14" lengthAdjust="spacing" textLength="170.9873" x="42.13" y="1445.3726">onSecondaryFixed : U32</text><rect fill="none" height="6" style="stroke:#C82930;stroke-width:1;" width="6" x="30.13" y="1455.3228"/><text fill="#000000" font-family="sans-serif" font-size="14" lengthAdjust="spacing" textLength="180.2637" x="42.13" y="1461.6695">secondaryFixedDim : U32</text><rect fill="none" height="6" style="stroke:#C82930;stroke-width:1;" width="6" x="30.13" y="1471.6197"/><text fill="#000000" font-family="sans-serif" font-size="14" lengthAdjust="spacing" textLength="221.7305" x="42.13" y="1477.9664">onSecondaryFixedVariant : U32</text><rect fill="none" height="6" style="stroke:#C82930;stroke-width:1;" width="6" x="30.13" y="1487.9166"/><text fill="#000000" font-family="sans-serif" font-size="14" lengthAdjust="spacing" textLength="131.2637" x="42.13" y="1494.2632">tertiaryFixed : U32</text><rect fill="none" height="6" style="stroke:#C82930;stroke-width:1;" width="6" x="30.13" y="1504.2134"/><text fill="#000000" font-family="sans-serif" font-size="14" lengthAdjust="spacing" textLength="151.7646" x="42.13" y="1510.5601">onTertiaryFixed : U32</text><rect fill="none" height="6" style="stroke:#C82930;stroke-width:1;" width="6" x="30.13" y="1520.5103"/><text fill="#000000" font-family="sans-serif" font-size="14" lengthAdjust="spacing" textLength="159.5713" x="42.13" y="1526.857">tertiaryFixedDim : U32</text><rect fill="none" height="6" style="stroke:#C82930;stroke-width:1;" width="6" x="30.13" y="1536.8072"/><text fill="#000000" font-family="sans-serif" font-size="14" lengthAdjust="spacing" textLength="202.5078" x="42.13" y="1543.1539">onTertiaryFixedVariant : U32</text><rect fill="none" height="6" style="stroke:#C82930;stroke-width:1;" width="6" x="30.13" y="1553.1041"/><text fill="#000000" font-family="sans-serif" font-size="14" lengthAdjust="spacing" textLength="121.7275" x="42.13" y="1559.4507">surfaceDim : U32</text><rect fill="none" height="6" style="stroke:#C82930;stroke-width:1;" width="6" x="30.13" y="1569.4009"/><text fill="#000000" font-family="sans-serif" font-size="14" lengthAdjust="spacing" textLength="135.9189" x="42.13" y="1575.7476">surfaceBright : U32</text><ellipse cx="33.13" cy="1588.6978" fill="none" rx="3" ry="3" style="stroke:#038048;stroke-width:1;"/><text fill="#000000" font-family="sans-serif" font-size="14" lengthAdjust="spacing" textLength="211.0459" x="42.13" y="1592.0445">surfaceContainerLowest : U32</text><rect fill="none" height="6" style="stroke:#C82930;stroke-width:1;" width="6" x="30.13" y="1601.9947"/><text fill="#000000" font-family="sans-serif" font-size="14" lengthAdjust="spacing" textLength="189.6494" x="42.13" y="1608.3414">surfaceContainerLow : U32</text><rect fill="none" height="6" style="stroke:#C82930;stroke-width:1;" width="6" x="30.13" y="1618.2916"/><text fill="#000000" font-family="sans-serif" font-size="14" lengthAdjust="spacing" textLength="161.834" x="42.13" y="1624.6382">surfaceContainer : U32</text><rect fill="none" height="6" style="stroke:#C82930;stroke-width:1;" width="6" x="30.13" y="1634.5884"/><text fill="#000000" font-family="sans-serif" font-size="14" lengthAdjust="spacing" textLength="194.0107" x="42.13" y="1640.9351">surfaceContainerHigh : U32</text><ellipse cx="33.13" cy="1653.8853" fill="none" rx="3" ry="3" style="stroke:#038048;stroke-width:1;"/><text fill="#000000" font-family="sans-serif" font-size="14" lengthAdjust="spacing" textLength="215.4072" x="42.13" y="1657.232">surfaceContainerHighest : U32</text><rect fill="none" height="6" style="stroke:#C82930;stroke-width:1;" width="6" x="30.13" y="1667.1822"/><text fill="#000000" font-family="sans-serif" font-size="14" lengthAdjust="spacing" textLength="172.7988" x="42.13" y="1673.5289">CSS variable List : String</text><line style="stroke:#555555;stroke-width:0.5;" x1="23.13" x2="268.8605" y1="1680.8306" y2="1680.8306"/><rect fill="#F24D5C" height="6" style="stroke:#C82930;stroke-width:1;" width="6" x="30.13" y="1691.4791"/><text fill="#000000" font-family="sans-serif" font-size="14" lengthAdjust="spacing" text-decoration="underline" textLength="129.8145" x="42.13" y="1697.8257">elevated buttons()</text><rect fill="#F24D5C" height="6" style="stroke:#C82930;stroke-width:1;" width="6" x="30.13" y="1707.7759"/><text fill="#000000" font-family="sans-serif" font-size="14" lengthAdjust="spacing" text-decoration="underline" textLength="144.4844" x="42.13" y="1714.1226">fab-outline buttons()</text><rect fill="#F24D5C" height="6" style="stroke:#C82930;stroke-width:1;" width="6" x="30.13" y="1724.0728"/><text fill="#000000" font-family="sans-serif" font-size="14" lengthAdjust="spacing" text-decoration="underline" textLength="102.9424" x="42.13" y="1730.4195">filled buttons()</text><rect fill="#F24D5C" height="6" style="stroke:#C82930;stroke-width:1;" width="6" x="30.13" y="1740.3697"/><text fill="#000000" font-family="sans-serif" font-size="14" lengthAdjust="spacing" text-decoration="underline" textLength="134.4766" x="42.13" y="1746.7164">nooutline buttons()</text><rect fill="#F24D5C" height="6" style="stroke:#C82930;stroke-width:1;" width="6" x="30.13" y="1756.6666"/><text fill="#000000" font-family="sans-serif" font-size="14" lengthAdjust="spacing" text-decoration="underline" textLength="104.2412" x="42.13" y="1763.0132">tonal buttons()</text><rect fill="#F24D5C" height="6" style="stroke:#C82930;stroke-width:1;" width="6" x="30.13" y="1772.9634"/><text fill="#000000" font-family="sans-serif" font-size="14" lengthAdjust="spacing" text-decoration="underline" textLength="151.0332" x="42.13" y="1779.3101">transparent buttons()</text><rect fill="#F24D5C" height="6" style="stroke:#C82930;stroke-width:1;" width="6" x="30.13" y="1789.2603"/><text fill="#000000" font-family="sans-serif" font-size="14" lengthAdjust="spacing" text-decoration="underline" textLength="99.0869" x="42.13" y="1795.607">Blend Colors()</text><rect fill="#F24D5C" height="6" style="stroke:#C82930;stroke-width:1;" width="6" x="30.13" y="1805.5572"/><text fill="#000000" font-family="sans-serif" font-size="14" lengthAdjust="spacing" text-decoration="underline" textLength="140.1641" x="42.13" y="1811.9039">Color Opacity Calc()</text><rect fill="#F24D5C" height="6" style="stroke:#C82930;stroke-width:1;" width="6" x="30.13" y="1821.8541"/><text fill="#000000" font-family="sans-serif" font-size="14" lengthAdjust="spacing" text-decoration="underline" textLength="218.2783" x="42.13" y="1828.2007">convert color string summary()</text><rect fill="#F24D5C" height="6" style="stroke:#C82930;stroke-width:1;" width="6" x="30.13" y="1838.1509"/><text fill="#000000" font-family="sans-serif" font-size="14" lengthAdjust="spacing" text-decoration="underline" textLength="194.25" x="42.13" y="1844.4976">convert color to rgb string()</text><rect fill="#F24D5C" height="6" style="stroke:#C82930;stroke-width:1;" width="6" x="30.13" y="1854.4478"/><text fill="#000000" font-family="sans-serif" font-size="14" lengthAdjust="spacing" text-decoration="underline" textLength="139.4189" x="42.13" y="1860.7945">Convert PNG color()</text><rect fill="#F24D5C" height="6" style="stroke:#C82930;stroke-width:1;" width="6" x="30.13" y="1870.7447"/><text fill="#000000" font-family="sans-serif" font-size="14" lengthAdjust="spacing" text-decoration="underline" textLength="159.2637" x="42.13" y="1877.0914">Create CSS Variables()</text><rect fill="#F24D5C" height="6" style="stroke:#C82930;stroke-width:1;" width="6" x="30.13" y="1887.0416"/><text fill="#000000" font-family="sans-serif" font-size="14" lengthAdjust="spacing" text-decoration="underline" textLength="155.1074" x="42.13" y="1893.3882">Find TSC tEXt Chunk()</text><rect fill="#F24D5C" height="6" style="stroke:#C82930;stroke-width:1;" width="6" x="30.13" y="1903.3384"/><text fill="#000000" font-family="sans-serif" font-size="14" lengthAdjust="spacing" text-decoration="underline" textLength="165.5596" x="42.13" y="1909.6851">Insert TSC tEXt Chunk()</text><rect fill="#F24D5C" height="6" style="stroke:#C82930;stroke-width:1;" width="6" x="30.13" y="1919.6353"/><text fill="#000000" font-family="sans-serif" font-size="14" lengthAdjust="spacing" text-decoration="underline" textLength="153.0498" x="42.13" y="1925.982">Is Color Transparent()</text><rect fill="#F24D5C" height="6" style="stroke:#C82930;stroke-width:1;" width="6" x="30.13" y="1935.9322"/><text fill="#000000" font-family="sans-serif" font-size="14" lengthAdjust="spacing" text-decoration="underline" textLength="109.7441" x="42.13" y="1942.2789">Mask to Alpha()</text><rect fill="#F24D5C" height="6" style="stroke:#C82930;stroke-width:1;" width="6" x="30.13" y="1952.2291"/><text fill="#000000" font-family="sans-serif" font-size="14" lengthAdjust="spacing" text-decoration="underline" textLength="179.4023" x="42.13" y="1958.5757">WaveformChart - Colors()</text><rect fill="#F24D5C" height="6" style="stroke:#C82930;stroke-width:1;" width="6" x="30.13" y="1968.5259"/><text fill="#000000" font-family="sans-serif" font-size="14" lengthAdjust="spacing" text-decoration="underline" textLength="183.873" x="42.13" y="1974.8726">WaveformGraph - Colors()</text><ellipse cx="33.13" cy="1987.8228" fill="#84BE84" rx="3" ry="3" style="stroke:#038048;stroke-width:1;"/><text fill="#000000" font-family="sans-serif" font-size="14" lengthAdjust="spacing" text-decoration="underline" textLength="180.5645" x="42.13" y="1991.1695">Boolean Update - Colors()</text><ellipse cx="33.13" cy="2004.1197" fill="#84BE84" rx="3" ry="3" style="stroke:#038048;stroke-width:1;"/><text fill="#000000" font-family="sans-serif" font-size="14" lengthAdjust="spacing" text-decoration="underline" textLength="122.7666" x="42.13" y="2007.4664">Boolean Update()</text><ellipse cx="33.13" cy="2020.4166" fill="#84BE84" rx="3" ry="3" style="stroke:#038048;stroke-width:1;"/><text fill="#000000" font-family="sans-serif" font-size="14" lengthAdjust="spacing" text-decoration="underline" textLength="107.3994" x="42.13" y="2023.7632">Controls Loop()</text><ellipse cx="33.13" cy="2036.7134" fill="#84BE84" rx="3" ry="3" style="stroke:#038048;stroke-width:1;"/><text fill="#000000" font-family="sans-serif" font-size="14" lengthAdjust="spacing" text-decoration="underline" textLength="133.2939" x="42.13" y="2040.0601">Decorations Loop()</text><ellipse cx="33.13" cy="2053.0103" fill="#84BE84" rx="3" ry="3" style="stroke:#038048;stroke-width:1;"/><text fill="#000000" font-family="sans-serif" font-size="14" lengthAdjust="spacing" text-decoration="underline" textLength="117.0381" x="42.13" y="2056.357">outline buttons()</text><ellipse cx="33.13" cy="2069.3072" fill="#84BE84" rx="3" ry="3" style="stroke:#038048;stroke-width:1;"/><text fill="#000000" font-family="sans-serif" font-size="14" lengthAdjust="spacing" text-decoration="underline" textLength="115.2266" x="42.13" y="2072.6539">Replace Image()</text><ellipse cx="33.13" cy="2085.6041" fill="#84BE84" rx="3" ry="3" style="stroke:#038048;stroke-width:1;"/><text fill="#000000" font-family="sans-serif" font-size="14" lengthAdjust="spacing" text-decoration="underline" textLength="180.9063" x="42.13" y="2088.9507">Update Image (Multiple)()</text><ellipse cx="33.13" cy="2101.9009" fill="#84BE84" rx="3" ry="3" style="stroke:#038048;stroke-width:1;"/><text fill="#000000" font-family="sans-serif" font-size="14" lengthAdjust="spacing" text-decoration="underline" textLength="109.252" x="42.13" y="2105.2476">Color Grabber()</text><ellipse cx="33.13" cy="2118.1978" fill="#84BE84" rx="3" ry="3" style="stroke:#038048;stroke-width:1;"/><text fill="#000000" font-family="sans-serif" font-size="14" lengthAdjust="spacing" text-decoration="underline" textLength="210.5674" x="42.13" y="2121.5445">Material.Build Scheme Array()</text><ellipse cx="33.13" cy="2134.4947" fill="#84BE84" rx="3" ry="3" style="stroke:#038048;stroke-width:1;"/><text fill="#000000" font-family="sans-serif" font-size="14" lengthAdjust="spacing" text-decoration="underline" textLength="109.9219" x="42.13" y="2137.8414">Update Image()</text><ellipse cx="33.13" cy="2150.7916" fill="#84BE84" rx="3" ry="3" style="stroke:#038048;stroke-width:1;"/><text fill="#000000" font-family="sans-serif" font-size="14" lengthAdjust="spacing" text-decoration="underline" textLength="105.8271" x="42.13" y="2154.1382">View-Scheme()</text></g><!--class Material-Palette--><g class="entity" data-entity="Material-Palette" data-source-line="55" data-uid="ent0008" id="entity_Material-Palette"><rect fill="#FFFFFF" height="373.9375" rx="2.5" ry="2.5" style="stroke:#555555;stroke-width:0.5;" width="229.3623" x="305.32" y="1298.6"/><rect fill="#808080" height="32" rx="2.5" ry="2.5" style="stroke:#808080;stroke-width:0.5;" width="229.3623" x="305.32" y="1298.6"/><rect fill="#808080" height="2.5" style="stroke:#808080;stroke-width:0.5;" width="229.3623" x="305.32" y="1328.1"/><rect fill="none" height="373.9375" rx="2.5" ry="2.5" style="stroke:#555555;stroke-width:0.5;" width="229.3623" x="305.32" y="1298.6"/><ellipse cx="360.2297" cy="1314.6" fill="#ADD1B2" rx="11" ry="11" style="stroke:#181818;stroke-width:1;"/><path d="M363.1984,1320.2406 Q362.6203,1320.5375 361.9797,1320.6781 Q361.339,1320.8344 360.6359,1320.8344 Q358.1359,1320.8344 356.8078,1319.1938 Q355.4953,1317.5375 355.4953,1314.4125 Q355.4953,1311.2875 356.8078,1309.6313 Q358.1359,1307.975 360.6359,1307.975 Q361.339,1307.975 361.9797,1308.1313 Q362.6359,1308.2875 363.1984,1308.5844 L363.1984,1311.3031 Q362.5734,1310.725 361.9797,1310.4594 Q361.3859,1310.1781 360.7609,1310.1781 Q359.4172,1310.1781 358.7297,1311.2563 Q358.0422,1312.3188 358.0422,1314.4125 Q358.0422,1316.5063 358.7297,1317.5844 Q359.4172,1318.6469 360.7609,1318.6469 Q361.3859,1318.6469 361.9797,1318.3813 Q362.5734,1318.1 363.1984,1317.5219 L363.1984,1320.2406 Z " fill="#000000"/><text fill="#000000" font-family="sans-serif" font-size="14" lengthAdjust="spacing" textLength="111.043" x="380.7297" y="1319.4467">Material-Palette</text><line style="stroke:#555555;stroke-width:0.5;" x1="306.32" x2="533.6823" y1="1330.6" y2="1330.6"/><rect fill="none" height="6" style="stroke:#C82930;stroke-width:1;" width="6" x="313.32" y="1341.2484"/><text fill="#000000" font-family="sans-serif" font-size="14" lengthAdjust="spacing" textLength="50.5859" x="325.32" y="1347.5951">0 : U32</text><rect fill="none" height="6" style="stroke:#C82930;stroke-width:1;" width="6" x="313.32" y="1357.5453"/><text fill="#000000" font-family="sans-serif" font-size="14" lengthAdjust="spacing" textLength="50.5859" x="325.32" y="1363.892">5 : U32</text><rect fill="none" height="6" style="stroke:#C82930;stroke-width:1;" width="6" x="313.32" y="1373.8422"/><text fill="#000000" font-family="sans-serif" font-size="14" lengthAdjust="spacing" textLength="59.4932" x="325.32" y="1380.1889">10 : U32</text><rect fill="none" height="6" style="stroke:#C82930;stroke-width:1;" width="6" x="313.32" y="1390.1391"/><text fill="#000000" font-family="sans-serif" font-size="14" lengthAdjust="spacing" textLength="59.4932" x="325.32" y="1396.4857">15 : U32</text><rect fill="none" height="6" style="stroke:#C82930;stroke-width:1;" width="6" x="313.32" y="1406.4359"/><text fill="#000000" font-family="sans-serif" font-size="14" lengthAdjust="spacing" textLength="59.4932" x="325.32" y="1412.7826">20 : U32</text><rect fill="none" height="6" style="stroke:#C82930;stroke-width:1;" width="6" x="313.32" y="1422.7328"/><text fill="#000000" font-family="sans-serif" font-size="14" lengthAdjust="spacing" textLength="59.4932" x="325.32" y="1429.0795">25 : U32</text><rect fill="none" height="6" style="stroke:#C82930;stroke-width:1;" width="6" x="313.32" y="1439.0297"/><text fill="#000000" font-family="sans-serif" font-size="14" lengthAdjust="spacing" textLength="59.4932" x="325.32" y="1445.3764">30 : U32</text><rect fill="none" height="6" style="stroke:#C82930;stroke-width:1;" width="6" x="313.32" y="1455.3266"/><text fill="#000000" font-family="sans-serif" font-size="14" lengthAdjust="spacing" textLength="59.4932" x="325.32" y="1461.6732">35 : U32</text><rect fill="none" height="6" style="stroke:#C82930;stroke-width:1;" width="6" x="313.32" y="1471.6234"/><text fill="#000000" font-family="sans-serif" font-size="14" lengthAdjust="spacing" textLength="59.4932" x="325.32" y="1477.9701">40 : U32</text><rect fill="none" height="6" style="stroke:#C82930;stroke-width:1;" width="6" x="313.32" y="1487.9203"/><text fill="#000000" font-family="sans-serif" font-size="14" lengthAdjust="spacing" textLength="59.4932" x="325.32" y="1494.267">50 : U32</text><rect fill="none" height="6" style="stroke:#C82930;stroke-width:1;" width="6" x="313.32" y="1504.2172"/><text fill="#000000" font-family="sans-serif" font-size="14" lengthAdjust="spacing" textLength="59.4932" x="325.32" y="1510.5639">60 : U32</text><rect fill="none" height="6" style="stroke:#C82930;stroke-width:1;" width="6" x="313.32" y="1520.5141"/><text fill="#000000" font-family="sans-serif" font-size="14" lengthAdjust="spacing" textLength="59.4932" x="325.32" y="1526.8607">70 : U32</text><rect fill="none" height="6" style="stroke:#C82930;stroke-width:1;" width="6" x="313.32" y="1536.8109"/><text fill="#000000" font-family="sans-serif" font-size="14" lengthAdjust="spacing" textLength="59.4932" x="325.32" y="1543.1576">80 : U32</text><rect fill="none" height="6" style="stroke:#C82930;stroke-width:1;" width="6" x="313.32" y="1553.1078"/><text fill="#000000" font-family="sans-serif" font-size="14" lengthAdjust="spacing" textLength="59.4932" x="325.32" y="1559.4545">90 : U32</text><rect fill="none" height="6" style="stroke:#C82930;stroke-width:1;" width="6" x="313.32" y="1569.4047"/><text fill="#000000" font-family="sans-serif" font-size="14" lengthAdjust="spacing" textLength="59.4932" x="325.32" y="1575.7514">95 : U32</text><rect fill="none" height="6" style="stroke:#C82930;stroke-width:1;" width="6" x="313.32" y="1585.7016"/><text fill="#000000" font-family="sans-serif" font-size="14" lengthAdjust="spacing" textLength="59.4932" x="325.32" y="1592.0482">98 : U32</text><rect fill="none" height="6" style="stroke:#C82930;stroke-width:1;" width="6" x="313.32" y="1601.9984"/><text fill="#000000" font-family="sans-serif" font-size="14" lengthAdjust="spacing" textLength="59.4932" x="325.32" y="1608.3451">99 : U32</text><rect fill="none" height="6" style="stroke:#C82930;stroke-width:1;" width="6" x="313.32" y="1618.2953"/><text fill="#000000" font-family="sans-serif" font-size="14" lengthAdjust="spacing" textLength="68.4004" x="325.32" y="1624.642">100 : U32</text><line style="stroke:#555555;stroke-width:0.5;" x1="306.32" x2="533.6823" y1="1631.9438" y2="1631.9438"/><ellipse cx="316.32" cy="1645.5922" fill="#84BE84" rx="3" ry="3" style="stroke:#038048;stroke-width:1;"/><text fill="#000000" font-family="sans-serif" font-size="14" lengthAdjust="spacing" text-decoration="underline" textLength="203.3623" x="325.32" y="1648.9389">Material.Build Palette Array()</text><ellipse cx="316.32" cy="1661.8891" fill="#84BE84" rx="3" ry="3" style="stroke:#038048;stroke-width:1;"/><text fill="#000000" font-family="sans-serif" font-size="14" lengthAdjust="spacing" text-decoration="underline" textLength="98.6221" x="325.32" y="1665.2357">View-Palette()</text></g><!--class TSC Button Editor--><g class="entity" data-entity="TSC Button Editor" data-source-line="8" data-uid="ent0002" id="entity_TSC Button Editor"><rect fill="#FFFFFF" height="422.8281" rx="2.5" ry="2.5" style="stroke:#555555;stroke-width:0.5;" width="296.2793" x="132.86" y="7"/><rect fill="#808080" height="32" rx="2.5" ry="2.5" style="stroke:#808080;stroke-width:0.5;" width="296.2793" x="132.86" y="7"/><rect fill="#808080" height="2.5" style="stroke:#808080;stroke-width:0.5;" width="296.2793" x="132.86" y="36.5"/><rect fill="none" height="422.8281" rx="2.5" ry="2.5" style="stroke:#555555;stroke-width:0.5;" width="296.2793" x="132.86" y="7"/><ellipse cx="214.5289" cy="23" fill="#ADD1B2" rx="11" ry="11" style="stroke:#181818;stroke-width:1;"/><path d="M217.4977,28.6406 Q216.9196,28.9375 216.2789,29.0781 Q215.6383,29.2344 214.9352,29.2344 Q212.4352,29.2344 211.1071,27.5938 Q209.7946,25.9375 209.7946,22.8125 Q209.7946,19.6875 211.1071,18.0313 Q212.4352,16.375 214.9352,16.375 Q215.6383,16.375 216.2789,16.5313 Q216.9352,16.6875 217.4977,16.9844 L217.4977,19.7031 Q216.8727,19.125 216.2789,18.8594 Q215.6852,18.5781 215.0602,18.5781 Q213.7164,18.5781 213.0289,19.6563 Q212.3414,20.7188 212.3414,22.8125 Q212.3414,24.9063 213.0289,25.9844 Q213.7164,27.0469 215.0602,27.0469 Q215.6852,27.0469 216.2789,26.7813 Q216.8727,26.5 217.4977,25.9219 L217.4977,28.6406 Z " fill="#000000"/><text fill="#000000" font-family="sans-serif" font-size="14" lengthAdjust="spacing" textLength="124.4414" x="235.0289" y="27.8467">TSC Button Editor</text><line style="stroke:#555555;stroke-width:0.5;" x1="133.86" x2="428.1393" y1="39" y2="39"/><rect fill="none" height="6" style="stroke:#C82930;stroke-width:1;" width="6" x="140.86" y="49.6484"/><text fill="#000000" font-family="sans-serif" font-size="14" lengthAdjust="spacing" textLength="155.9961" x="152.86" y="55.9951">image directory : Path</text><rect fill="none" height="6" style="stroke:#C82930;stroke-width:1;" width="6" x="140.86" y="65.9453"/><text fill="#000000" font-family="sans-serif" font-size="14" lengthAdjust="spacing" textLength="119.9297" x="152.86" y="72.292">last theme : Path</text><rect fill="none" height="6" style="stroke:#C82930;stroke-width:1;" width="6" x="140.86" y="82.2422"/><text fill="#000000" font-family="sans-serif" font-size="14" lengthAdjust="spacing" textLength="166.4482" x="152.86" y="88.5889">Editor Theme : LV Class</text><rect fill="none" height="6" style="stroke:#C82930;stroke-width:1;" width="6" x="140.86" y="98.5391"/><text fill="#000000" font-family="sans-serif" font-size="14" lengthAdjust="spacing" textLength="182.4033" x="152.86" y="104.8857">subpanel VI ref : kLVObjVI</text><rect fill="none" height="6" style="stroke:#C82930;stroke-width:1;" width="6" x="140.86" y="114.8359"/><text fill="#000000" font-family="sans-serif" font-size="14" lengthAdjust="spacing" textLength="163.3311" x="152.86" y="121.1826">subpanel VI path : Path</text><rect fill="none" height="6" style="stroke:#C82930;stroke-width:1;" width="6" x="140.86" y="131.1328"/><text fill="#000000" font-family="sans-serif" font-size="14" lengthAdjust="spacing" textLength="158.9697" x="152.86" y="137.4795">control top level : Path</text><rect fill="none" height="6" style="stroke:#C82930;stroke-width:1;" width="6" x="140.86" y="147.4297"/><text fill="#000000" font-family="sans-serif" font-size="14" lengthAdjust="spacing" textLength="212.6387" x="152.86" y="153.7764">Image Names : Array of String</text><rect fill="none" height="6" style="stroke:#C82930;stroke-width:1;" width="6" x="140.86" y="163.7266"/><text fill="#000000" font-family="sans-serif" font-size="14" lengthAdjust="spacing" textLength="174.7949" x="152.86" y="170.0732">Images : Array of Cluster</text><rect fill="none" height="6" style="stroke:#C82930;stroke-width:1;" width="6" x="140.86" y="180.0234"/><text fill="#000000" font-family="sans-serif" font-size="14" lengthAdjust="spacing" textLength="270.2793" x="152.86" y="186.3701">Filtered Image Names : Array of String</text><line style="stroke:#555555;stroke-width:0.5;" x1="133.86" x2="428.1393" y1="193.6719" y2="193.6719"/><rect fill="#F24D5C" height="6" style="stroke:#C82930;stroke-width:1;" width="6" x="140.86" y="204.3203"/><text fill="#000000" font-family="sans-serif" font-size="14" lengthAdjust="spacing" text-decoration="underline" textLength="163.5156" x="152.86" y="210.667">Array Point to RowCol()</text><rect fill="#F24D5C" height="6" style="stroke:#C82930;stroke-width:1;" width="6" x="140.86" y="220.6172"/><text fill="#000000" font-family="sans-serif" font-size="14" lengthAdjust="spacing" text-decoration="underline" textLength="224.0342" x="152.86" y="226.9639">Button Editor Config--constant()</text><rect fill="#F24D5C" height="6" style="stroke:#C82930;stroke-width:1;" width="6" x="140.86" y="236.9141"/><text fill="#000000" font-family="sans-serif" font-size="14" lengthAdjust="spacing" text-decoration="underline" textLength="182.1025" x="152.86" y="243.2607">Change Image Directory()</text><rect fill="#F24D5C" height="6" style="stroke:#C82930;stroke-width:1;" width="6" x="140.86" y="253.2109"/><text fill="#000000" font-family="sans-serif" font-size="14" lengthAdjust="spacing" text-decoration="underline" textLength="154.9092" x="152.86" y="259.5576">Check for Image List()</text><rect fill="#F24D5C" height="6" style="stroke:#C82930;stroke-width:1;" width="6" x="140.86" y="269.5078"/><text fill="#000000" font-family="sans-serif" font-size="14" lengthAdjust="spacing" text-decoration="underline" textLength="212.7207" x="152.86" y="275.8545">Image List Column--constant()</text><rect fill="#F24D5C" height="6" style="stroke:#C82930;stroke-width:1;" width="6" x="140.86" y="285.8047"/><text fill="#000000" font-family="sans-serif" font-size="14" lengthAdjust="spacing" text-decoration="underline" textLength="154.6563" x="152.86" y="292.1514">Image List--constant()</text><rect fill="#F24D5C" height="6" style="stroke:#C82930;stroke-width:1;" width="6" x="140.86" y="302.1016"/><text fill="#000000" font-family="sans-serif" font-size="14" lengthAdjust="spacing" text-decoration="underline" textLength="117.0654" x="152.86" y="308.4482">Init Editor Data()</text><rect fill="#F24D5C" height="6" style="stroke:#C82930;stroke-width:1;" width="6" x="140.86" y="318.3984"/><text fill="#000000" font-family="sans-serif" font-size="14" lengthAdjust="spacing" text-decoration="underline" textLength="156.5498" x="152.86" y="324.7451">Load VI for Subpanel()</text><rect fill="#F24D5C" height="6" style="stroke:#C82930;stroke-width:1;" width="6" x="140.86" y="334.6953"/><text fill="#000000" font-family="sans-serif" font-size="14" lengthAdjust="spacing" text-decoration="underline" textLength="129.0488" x="152.86" y="341.042">Save Editor Data()</text><rect fill="#F24D5C" height="6" style="stroke:#C82930;stroke-width:1;" width="6" x="140.86" y="350.9922"/><text fill="#000000" font-family="sans-serif" font-size="14" lengthAdjust="spacing" text-decoration="underline" textLength="130.8877" x="152.86" y="357.3389">Sort Image Table()</text><rect fill="#F24D5C" height="6" style="stroke:#C82930;stroke-width:1;" width="6" x="140.86" y="367.2891"/><text fill="#000000" font-family="sans-serif" font-size="14" lengthAdjust="spacing" text-decoration="underline" textLength="213.582" x="152.86" y="373.6357">Update Custom UI for Button()</text><rect fill="#F24D5C" height="6" style="stroke:#C82930;stroke-width:1;" width="6" x="140.86" y="383.5859"/><text fill="#000000" font-family="sans-serif" font-size="14" lengthAdjust="spacing" text-decoration="underline" textLength="129.9785" x="152.86" y="389.9326">User Event Close()</text><rect fill="#F24D5C" height="6" style="stroke:#C82930;stroke-width:1;" width="6" x="140.86" y="399.8828"/><text fill="#000000" font-family="sans-serif" font-size="14" lengthAdjust="spacing" text-decoration="underline" textLength="114.2217" x="152.86" y="406.2295">User Event Init()</text><ellipse cx="143.86" cy="419.1797" fill="#84BE84" rx="3" ry="3" style="stroke:#038048;stroke-width:1;"/><text fill="#000000" font-family="sans-serif" font-size="14" lengthAdjust="spacing" text-decoration="underline" textLength="169.3877" x="152.86" y="422.5264">Edit a Button--Material()</text></g><!--reverse link TSC Button Editor to Material Theme--><g class="link" data-entity-1="TSC Button Editor" data-entity-2="Material Theme" data-source-line="34" data-uid="lnk5" id="link_TSC Button Editor_Material Theme"><path codeLine="34" d="M281,442.2 C281,462.35 281,470.36 281,489.39" fill="none" id="TSC Button Editor-backto-Material Theme" style="stroke:#181818;stroke-width:1;"/><polygon fill="#181818" points="281,430.2,277,436.2,281,442.2,285,436.2,281,430.2" style="stroke:#181818;stroke-width:1;"/></g><!--reverse link Material Theme to Material-Scheme--><g class="link" data-entity-1="Material Theme" data-entity-2="Material-Scheme" data-source-line="54" data-uid="lnk7" id="link_Material Theme_Material-Scheme"><path codeLine="54" d="M258.9367,761.936 C256.0667,780.296 254.82,788.26 251.55,809.21" fill="none" id="Material Theme-backto-Material-Scheme" style="stroke:#181818;stroke-width:1;"/><polygon fill="none" points="260.79,750.08,255.9113,755.3902,258.9367,761.936,263.8154,756.6258,260.79,750.08" style="stroke:#181818;stroke-width:1;"/></g><!--reverse link Material Theme to Material-Palette--><g class="link" data-entity-1="Material Theme" data-entity-2="Material-Palette" data-source-line="55" data-uid="lnk9" id="link_Material Theme_Material-Palette"><path codeLine="55" d="M303.7163,761.9276 C327.1163,907.3576 363.42,1132.92 390.03,1298.32" fill="none" id="Material Theme-backto-Material-Palette" style="stroke:#181818;stroke-width:1;"/><polygon fill="none" points="301.81,750.08,298.8139,756.6392,303.7163,761.9276,306.7124,755.3684,301.81,750.08" style="stroke:#181818;stroke-width:1;"/></g><!--SRC=[hPXHRzis483V_Ik8xAMTuI9DrYtnMwmuQGQdCIh7tIibqJPdcXH8ocaGvB_tA4gsPPAI1on57yBxZhpZtL5tKKGZZZT4vJWbCScnn5f8DEofDUNcjmsA65PgXDFrKeg2Pv5W0FnsL_uuc90PaHNofVmvHku4rnLmNluS0ry9XZsS0w_EpR_U0Qr53lzH8hGM6vHHIL9D1U-bPXTqDeiZD2f0nj4ue-3L6NhhlIqeOTax6j0DNf9AISXND4HJh5TxEUoXaLwH3N54TZSqguIJkRLx3wWYoJ4d3CqVa2GBODQJ-LFox_p1p-ImlNDA2lSa1IkzP6GBv37nKBhmpKGFP3TIubSa5YZMalBb4TOW8bOeJUGUkQCCVYSPwjXIQQnf-exUDaIlXD6qo5HGhaqileiN2DU7Zpwq4GiK2RwWou5n4r2k_JhH2dCmo9frMmShn99qZHQmjyKdL0LstSl135PiU9SPUuLEabDTktYBDVPJ4u4p4tXZR5mbWf-CyPPqxnSBgIklPpXXn4yzvndM14KGVAYNPtkyZKf0GH69nbi2iOsOKAIJCjvxeRvn0U7gjC7W4GoH51kdU-yzNwd-FXZO4gvHMs-Vs9RHPDXSFElr3el-58t3fo0ZAfKqDsy79Frn-IW2TJ54pvSNXxKfIVaicIfngYbEpH6D0dBVY2bcHEiGvLxWJPwpLsJScyA3y9pxhzbI4DhIIpy32Rmba2-gTDHKxOhyzAEH92PZ_euHl121xUxX2r8x4oRidVZbPJKqu-C7Q-PJLBa0jazmCdyO_x29r3iz_kAa_AfYUVR_RrnTsTdfcRjJESpTy-FK_7AyyDb1FZlCXSDSECobmrmwp1-kESxAdyxANyxAbRDoxQuufrzVEIlNxctiDch9hr51MLPdjQrFVqREANcfurAbuEdnh7Bh89nzqufvtg1SGhjIDYaDPrGX5z2spSp7zqWa-DIlKsq55QGnvV1oXnI3X2BmWcIUhGMFGwATJikvSIS3zwQfz-1PG59hj1mxwqA8bCAZD_OjbspBOUCsUJ_PzRokvYWawrTPuBbGlw3YvnYIq9SuSRkyq0ni3om7bDGAP-B5MOMlxkPuaPgNNP60xPNqYRVBstF_ZluaMJ3llT93pLlNwAPow1Bg_0wS7xVAczfU6veR1AoeAo9WnAnDtD3rcj1G3zs33Pr7lvAC95skT23DTyKp4Iz4XJO_fBgGBlbNiARB6CDuh8dY66tDBK1FRkUDOSiiHM3CWsz3XfAo5VPtKuC5JdP5s0vInhesu-AahK027x5sH6AkO2utOq0hE684tZ3RFGS6kNBWVyfnIlKhYZ1B_LpToAObNxMpgjYOGZn50xf7kKmgnP0fLc7wxTug1J3R9vjmpwjm1toxe-2yQGtq-1-OgbO5NuS6IMKEFWbLzZhHR1y3F_c8rTguVSFoLM2K_0439yo56vYyuVX1Qw1gzbxYVDNEzaT2C88vgeRG_m87PXFxzn659a84fg5RU10bDdDT6tLA1VI_avoPxqqvPFkHoZCxXdzuB9YcEICVGzQRWC759GcH7TEExKPjjzZMZ1uQqDAkxaQniblz1G00]--></g></svg>