<svg xmlns="http://www.w3.org/2000/svg" xmlns:xlink="http://www.w3.org/1999/xlink" contentStyleType="text/css" data-diagram-type="CLASS" height="1686px" preserveAspectRatio="none" style="width:558px;height:1686px;background:#FFFFFF;" version="1.1" viewBox="0 0 558 1686" width="558px" zoomAndPan="magnify"><defs/><g><!--cluster TSC Material Theme.lvlib--><g class="cluster" data-entity="TSC Material Theme.lvlib" data-source-line="8" data-uid="ent0003" id="cluster_TSC Material Theme.lvlib"><path d="M8.5,6 L206.6279,6 A3.75,3.75 0 0 1 209.1279,8.5 L216.1279,28.2969 L548.5,28.2969 A2.5,2.5 0 0 1 551,30.7969 L551,1677.22 A2.5,2.5 0 0 1 548.5,1679.72 L8.5,1679.72 A2.5,2.5 0 0 1 6,1677.22 L6,8.5 A2.5,2.5 0 0 1 8.5,6" fill="none" style="stroke:#000000;stroke-width:1.5;"/><line style="stroke:#000000;stroke-width:1.5;" x1="6" x2="216.1279" y1="28.2969" y2="28.2969"/><text fill="#000000" font-family="sans-serif" font-size="14" font-weight="bold" lengthAdjust="spacing" textLength="197.1279" x="10" y="20.9951">TSC Material Theme.lvlib</text></g><!--class Material Theme--><g class="entity" data-entity="Material Theme" data-source-line="8" data-uid="ent0002" id="entity_Material Theme"><rect fill="#FFFFFF" height="259.8594" rx="2.5" ry="2.5" style="stroke:#555555;stroke-width:0.5;" width="238.2217" x="161.89" y="41"/><rect fill="#808080" height="32" rx="2.5" ry="2.5" style="stroke:#808080;stroke-width:0.5;" width="238.2217" x="161.89" y="41"/><rect fill="#808080" height="2.5" style="stroke:#808080;stroke-width:0.5;" width="238.2217" x="161.89" y="70.5"/><rect fill="none" height="259.8594" rx="2.5" ry="2.5" style="stroke:#555555;stroke-width:0.5;" width="238.2217" x="161.89" y="41"/><ellipse cx="221.9437" cy="57" fill="#ADD1B2" rx="11" ry="11" style="stroke:#181818;stroke-width:1;"/><path d="M224.9125,62.6406 Q224.3343,62.9375 223.6937,63.0781 Q223.0531,63.2344 222.35,63.2344 Q219.85,63.2344 218.5218,61.5938 Q217.2093,59.9375 217.2093,56.8125 Q217.2093,53.6875 218.5218,52.0313 Q219.85,50.375 222.35,50.375 Q223.0531,50.375 223.6937,50.5313 Q224.35,50.6875 224.9125,50.9844 L224.9125,53.7031 Q224.2875,53.125 223.6937,52.8594 Q223.1,52.5781 222.475,52.5781 Q221.1312,52.5781 220.4437,53.6563 Q219.7562,54.7188 219.7562,56.8125 Q219.7562,58.9063 220.4437,59.9844 Q221.1312,61.0469 222.475,61.0469 Q223.1,61.0469 223.6937,60.7813 Q224.2875,60.5 224.9125,59.9219 L224.9125,62.6406 Z " fill="#000000"/><text fill="#000000" font-family="sans-serif" font-size="14" lengthAdjust="spacing" textLength="109.6143" x="242.4437" y="61.8467">Material Theme</text><line style="stroke:#555555;stroke-width:0.5;" x1="162.89" x2="399.1117" y1="73" y2="73"/><rect fill="none" height="6" style="stroke:#C82930;stroke-width:1;" width="6" x="169.89" y="83.6484"/><text fill="#000000" font-family="sans-serif" font-size="14" lengthAdjust="spacing" textLength="133.2393" x="181.89" y="89.9951">description : String</text><rect fill="none" height="6" style="stroke:#C82930;stroke-width:1;" width="6" x="169.89" y="99.9453"/><text fill="#000000" font-family="sans-serif" font-size="14" lengthAdjust="spacing" textLength="75.0859" x="181.89" y="106.292">seed : U32</text><rect fill="none" height="6" style="stroke:#C82930;stroke-width:1;" width="6" x="169.89" y="116.2422"/><text fill="#000000" font-family="sans-serif" font-size="14" lengthAdjust="spacing" textLength="137.7852" x="181.89" y="122.5889">coreColors : Cluster</text><rect fill="none" height="6" style="stroke:#C82930;stroke-width:1;" width="6" x="169.89" y="132.5391"/><text fill="#000000" font-family="sans-serif" font-size="14" lengthAdjust="spacing" textLength="196.2393" x="181.89" y="138.8857">Schemes : Array of LV Class</text><rect fill="none" height="6" style="stroke:#C82930;stroke-width:1;" width="6" x="169.89" y="148.8359"/><text fill="#000000" font-family="sans-serif" font-size="14" lengthAdjust="spacing" textLength="189.0342" x="181.89" y="155.1826">Palettes : Array of LV Class</text><line style="stroke:#555555;stroke-width:0.5;" x1="162.89" x2="399.1117" y1="162.4844" y2="162.4844"/><ellipse cx="172.89" cy="176.1328" fill="#84BE84" rx="3" ry="3" style="stroke:#038048;stroke-width:1;"/><text fill="#000000" font-family="sans-serif" font-size="14" lengthAdjust="spacing" text-decoration="underline" textLength="136.042" x="181.89" y="179.4795">Apply TSC Pop Up()</text><ellipse cx="172.89" cy="192.4297" fill="#84BE84" rx="3" ry="3" style="stroke:#038048;stroke-width:1;"/><text fill="#000000" font-family="sans-serif" font-size="14" lengthAdjust="spacing" text-decoration="underline" textLength="122.0146" x="181.89" y="195.7764">Apply UI Theme()</text><ellipse cx="172.89" cy="208.7266" fill="#84BE84" rx="3" ry="3" style="stroke:#038048;stroke-width:1;"/><text fill="#000000" font-family="sans-serif" font-size="14" lengthAdjust="spacing" text-decoration="underline" textLength="157.5684" x="181.89" y="212.0732">convert string to hex()</text><ellipse cx="172.89" cy="225.0234" fill="#84BE84" rx="3" ry="3" style="stroke:#038048;stroke-width:1;"/><text fill="#000000" font-family="sans-serif" font-size="14" lengthAdjust="spacing" text-decoration="underline" textLength="104.1113" x="181.89" y="228.3701">Create JS File()</text><ellipse cx="172.89" cy="241.3203" fill="#84BE84" rx="3" ry="3" style="stroke:#038048;stroke-width:1;"/><text fill="#000000" font-family="sans-serif" font-size="14" lengthAdjust="spacing" text-decoration="underline" textLength="96.7354" x="181.89" y="244.667">Get Palettes()</text><ellipse cx="172.89" cy="257.6172" fill="#84BE84" rx="3" ry="3" style="stroke:#038048;stroke-width:1;"/><text fill="#000000" font-family="sans-serif" font-size="14" lengthAdjust="spacing" text-decoration="underline" textLength="96.6465" x="181.89" y="260.9639">Get Scheme()</text><ellipse cx="172.89" cy="273.9141" fill="#84BE84" rx="3" ry="3" style="stroke:#038048;stroke-width:1;"/><text fill="#000000" font-family="sans-serif" font-size="14" lengthAdjust="spacing" text-decoration="underline" textLength="158.8193" x="181.89" y="277.2607">Load Material Theme()</text><ellipse cx="172.89" cy="290.2109" fill="#84BE84" rx="3" ry="3" style="stroke:#038048;stroke-width:1;"/><text fill="#000000" font-family="sans-serif" font-size="14" lengthAdjust="spacing" text-decoration="underline" textLength="212.2217" x="181.89" y="293.5576">Material.Convert to LabVIEW()</text></g><!--class Material-Scheme--><g class="entity" data-entity="Material-Scheme" data-source-line="25" data-uid="ent0004" id="entity_Material-Scheme"><rect fill="#FFFFFF" height="1302.8594" rx="2.5" ry="2.5" style="stroke:#555555;stroke-width:0.5;" width="247.7305" x="22.13" y="360.86"/><rect fill="#808080" height="32" rx="2.5" ry="2.5" style="stroke:#808080;stroke-width:0.5;" width="247.7305" x="22.13" y="360.86"/><rect fill="#808080" height="2.5" style="stroke:#808080;stroke-width:0.5;" width="247.7305" x="22.13" y="390.36"/><rect fill="none" height="1302.8594" rx="2.5" ry="2.5" style="stroke:#555555;stroke-width:0.5;" width="247.7305" x="22.13" y="360.86"/><ellipse cx="82.6212" cy="376.86" fill="#ADD1B2" rx="11" ry="11" style="stroke:#181818;stroke-width:1;"/><path d="M85.59,382.5006 Q85.0118,382.7975 84.3712,382.9381 Q83.7306,383.0944 83.0275,383.0944 Q80.5275,383.0944 79.1993,381.4538 Q77.8868,379.7975 77.8868,376.6725 Q77.8868,373.5475 79.1993,371.8913 Q80.5275,370.235 83.0275,370.235 Q83.7306,370.235 84.3712,370.3913 Q85.0275,370.5475 85.59,370.8444 L85.59,373.5631 Q84.965,372.985 84.3712,372.7194 Q83.7775,372.4381 83.1525,372.4381 Q81.8087,372.4381 81.1212,373.5163 Q80.4337,374.5788 80.4337,376.6725 Q80.4337,378.7663 81.1212,379.8444 Q81.8087,380.9069 83.1525,380.9069 Q83.7775,380.9069 84.3712,380.6413 Q84.965,380.36 85.59,379.7819 L85.59,382.5006 Z " fill="#000000"/><text fill="#000000" font-family="sans-serif" font-size="14" lengthAdjust="spacing" textLength="118.248" x="103.1212" y="381.7067">Material-Scheme</text><line style="stroke:#555555;stroke-width:0.5;" x1="23.13" x2="268.8605" y1="392.86" y2="392.86"/><ellipse cx="33.13" cy="406.5084" fill="none" rx="3" ry="3" style="stroke:#038048;stroke-width:1;"/><text fill="#000000" font-family="sans-serif" font-size="14" lengthAdjust="spacing" textLength="95.1016" x="42.13" y="409.8551">name : String</text><rect fill="none" height="6" style="stroke:#C82930;stroke-width:1;" width="6" x="30.13" y="419.8053"/><text fill="#000000" font-family="sans-serif" font-size="14" lengthAdjust="spacing" textLength="96.4688" x="42.13" y="426.152">primary : U32</text><rect fill="none" height="6" style="stroke:#C82930;stroke-width:1;" width="6" x="30.13" y="436.1022"/><text fill="#000000" font-family="sans-serif" font-size="14" lengthAdjust="spacing" textLength="120.2236" x="42.13" y="442.4489">surfaceTint : U32</text><rect fill="none" height="6" style="stroke:#C82930;stroke-width:1;" width="6" x="30.13" y="452.3991"/><text fill="#000000" font-family="sans-serif" font-size="14" lengthAdjust="spacing" textLength="113.4629" x="42.13" y="458.7457">onPrimary : U32</text><rect fill="none" height="6" style="stroke:#C82930;stroke-width:1;" width="6" x="30.13" y="468.6959"/><text fill="#000000" font-family="sans-serif" font-size="14" lengthAdjust="spacing" textLength="164.8828" x="42.13" y="475.0426">primaryContainer : U32</text><rect fill="none" height="6" style="stroke:#C82930;stroke-width:1;" width="6" x="30.13" y="484.9928"/><text fill="#000000" font-family="sans-serif" font-size="14" lengthAdjust="spacing" textLength="181.877" x="42.13" y="491.3395">onPrimaryContainer : U32</text><rect fill="none" height="6" style="stroke:#C82930;stroke-width:1;" width="6" x="30.13" y="501.2897"/><text fill="#000000" font-family="sans-serif" font-size="14" lengthAdjust="spacing" textLength="114.2285" x="42.13" y="507.6364">secondary : U32</text><rect fill="none" height="6" style="stroke:#C82930;stroke-width:1;" width="6" x="30.13" y="517.5866"/><text fill="#000000" font-family="sans-serif" font-size="14" lengthAdjust="spacing" textLength="133.2598" x="42.13" y="523.9332">onSecondary : U32</text><rect fill="none" height="6" style="stroke:#C82930;stroke-width:1;" width="6" x="30.13" y="533.8834"/><text fill="#000000" font-family="sans-serif" font-size="14" lengthAdjust="spacing" textLength="182.6426" x="42.13" y="540.2301">secondaryContainer : U32</text><rect fill="none" height="6" style="stroke:#C82930;stroke-width:1;" width="6" x="30.13" y="550.1803"/><text fill="#000000" font-family="sans-serif" font-size="14" lengthAdjust="spacing" textLength="201.6738" x="42.13" y="556.527">onSecondaryContainer : U32</text><rect fill="none" height="6" style="stroke:#C82930;stroke-width:1;" width="6" x="30.13" y="566.4772"/><text fill="#000000" font-family="sans-serif" font-size="14" lengthAdjust="spacing" textLength="93.5361" x="42.13" y="572.8239">tertiary : U32</text><rect fill="none" height="6" style="stroke:#C82930;stroke-width:1;" width="6" x="30.13" y="582.7741"/><text fill="#000000" font-family="sans-serif" font-size="14" lengthAdjust="spacing" textLength="114.0371" x="42.13" y="589.1207">onTertiary : U32</text><rect fill="none" height="6" style="stroke:#C82930;stroke-width:1;" width="6" x="30.13" y="599.0709"/><text fill="#000000" font-family="sans-serif" font-size="14" lengthAdjust="spacing" textLength="161.9502" x="42.13" y="605.4176">tertiaryContainer : U32</text><rect fill="none" height="6" style="stroke:#C82930;stroke-width:1;" width="6" x="30.13" y="615.3678"/><text fill="#000000" font-family="sans-serif" font-size="14" lengthAdjust="spacing" textLength="182.4512" x="42.13" y="621.7145">onTertiaryContainer : U32</text><rect fill="none" height="6" style="stroke:#C82930;stroke-width:1;" width="6" x="30.13" y="631.6647"/><text fill="#000000" font-family="sans-serif" font-size="14" lengthAdjust="spacing" textLength="76.125" x="42.13" y="638.0114">error : U32</text><rect fill="none" height="6" style="stroke:#C82930;stroke-width:1;" width="6" x="30.13" y="647.9616"/><text fill="#000000" font-family="sans-serif" font-size="14" lengthAdjust="spacing" textLength="93.7959" x="42.13" y="654.3082">onError : U32</text><rect fill="none" height="6" style="stroke:#C82930;stroke-width:1;" width="6" x="30.13" y="664.2584"/><text fill="#000000" font-family="sans-serif" font-size="14" lengthAdjust="spacing" textLength="144.5391" x="42.13" y="670.6051">errorContainer : U32</text><rect fill="none" height="6" style="stroke:#C82930;stroke-width:1;" width="6" x="30.13" y="680.5553"/><text fill="#000000" font-family="sans-serif" font-size="14" lengthAdjust="spacing" textLength="162.21" x="42.13" y="686.902">onErrorContainer : U32</text><ellipse cx="33.13" cy="699.8522" fill="none" rx="3" ry="3" style="stroke:#038048;stroke-width:1;"/><text fill="#000000" font-family="sans-serif" font-size="14" lengthAdjust="spacing" textLength="124.79" x="42.13" y="703.1989">background : U32</text><rect fill="none" height="6" style="stroke:#C82930;stroke-width:1;" width="6" x="30.13" y="713.1491"/><text fill="#000000" font-family="sans-serif" font-size="14" lengthAdjust="spacing" textLength="142.9463" x="42.13" y="719.4957">onBackground : U32</text><ellipse cx="33.13" cy="732.4459" fill="none" rx="3" ry="3" style="stroke:#038048;stroke-width:1;"/><text fill="#000000" font-family="sans-serif" font-size="14" lengthAdjust="spacing" textLength="93.4199" x="42.13" y="735.7926">surface : U32</text><rect fill="none" height="6" style="stroke:#C82930;stroke-width:1;" width="6" x="30.13" y="745.7428"/><text fill="#000000" font-family="sans-serif" font-size="14" lengthAdjust="spacing" textLength="112.4512" x="42.13" y="752.0895">onSurface : U32</text><rect fill="none" height="6" style="stroke:#C82930;stroke-width:1;" width="6" x="30.13" y="762.0397"/><text fill="#000000" font-family="sans-serif" font-size="14" lengthAdjust="spacing" textLength="144.1631" x="42.13" y="768.3864">surfaceVariant : U32</text><rect fill="none" height="6" style="stroke:#C82930;stroke-width:1;" width="6" x="30.13" y="778.3366"/><text fill="#000000" font-family="sans-serif" font-size="14" lengthAdjust="spacing" textLength="163.1943" x="42.13" y="784.6832">onSurfaceVariant : U32</text><rect fill="none" height="6" style="stroke:#C82930;stroke-width:1;" width="6" x="30.13" y="794.6334"/><text fill="#000000" font-family="sans-serif" font-size="14" lengthAdjust="spacing" textLength="89.8721" x="42.13" y="800.9801">outline : U32</text><rect fill="none" height="6" style="stroke:#C82930;stroke-width:1;" width="6" x="30.13" y="810.9303"/><text fill="#000000" font-family="sans-serif" font-size="14" lengthAdjust="spacing" textLength="140.6152" x="42.13" y="817.277">outlineVariant : U32</text><rect fill="none" height="6" style="stroke:#C82930;stroke-width:1;" width="6" x="30.13" y="827.2272"/><text fill="#000000" font-family="sans-serif" font-size="14" lengthAdjust="spacing" textLength="95.3271" x="42.13" y="833.5739">shadow : U32</text><rect fill="none" height="6" style="stroke:#C82930;stroke-width:1;" width="6" x="30.13" y="843.5241"/><text fill="#000000" font-family="sans-serif" font-size="14" lengthAdjust="spacing" textLength="79.9531" x="42.13" y="849.8707">scrim : U32</text><rect fill="none" height="6" style="stroke:#C82930;stroke-width:1;" width="6" x="30.13" y="859.8209"/><text fill="#000000" font-family="sans-serif" font-size="14" lengthAdjust="spacing" textLength="146.3369" x="42.13" y="866.1676">inverseSurface : U32</text><rect fill="none" height="6" style="stroke:#C82930;stroke-width:1;" width="6" x="30.13" y="876.1178"/><text fill="#000000" font-family="sans-serif" font-size="14" lengthAdjust="spacing" textLength="166.2295" x="42.13" y="882.4645">inverseOnSurface : U32</text><rect fill="none" height="6" style="stroke:#C82930;stroke-width:1;" width="6" x="30.13" y="892.4147"/><text fill="#000000" font-family="sans-serif" font-size="14" lengthAdjust="spacing" textLength="147.3486" x="42.13" y="898.7614">inversePrimary : U32</text><rect fill="none" height="6" style="stroke:#C82930;stroke-width:1;" width="6" x="30.13" y="908.7116"/><text fill="#000000" font-family="sans-serif" font-size="14" lengthAdjust="spacing" textLength="134.1963" x="42.13" y="915.0582">primaryFixed : U32</text><rect fill="none" height="6" style="stroke:#C82930;stroke-width:1;" width="6" x="30.13" y="925.0084"/><text fill="#000000" font-family="sans-serif" font-size="14" lengthAdjust="spacing" textLength="151.1904" x="42.13" y="931.3551">onPrimaryFixed : U32</text><rect fill="none" height="6" style="stroke:#C82930;stroke-width:1;" width="6" x="30.13" y="941.3053"/><text fill="#000000" font-family="sans-serif" font-size="14" lengthAdjust="spacing" textLength="162.5039" x="42.13" y="947.652">primaryFixedDim : U32</text><rect fill="none" height="6" style="stroke:#C82930;stroke-width:1;" width="6" x="30.13" y="957.6022"/><text fill="#000000" font-family="sans-serif" font-size="14" lengthAdjust="spacing" textLength="201.9336" x="42.13" y="963.9489">onPrimaryFixedVariant : U32</text><rect fill="none" height="6" style="stroke:#C82930;stroke-width:1;" width="6" x="30.13" y="973.8991"/><text fill="#000000" font-family="sans-serif" font-size="14" lengthAdjust="spacing" textLength="151.9561" x="42.13" y="980.2457">secondaryFixed : U32</text><rect fill="none" height="6" style="stroke:#C82930;stroke-width:1;" width="6" x="30.13" y="990.1959"/><text fill="#000000" font-family="sans-serif" font-size="14" lengthAdjust="spacing" textLength="170.9873" x="42.13" y="996.5426">onSecondaryFixed : U32</text><rect fill="none" height="6" style="stroke:#C82930;stroke-width:1;" width="6" x="30.13" y="1006.4928"/><text fill="#000000" font-family="sans-serif" font-size="14" lengthAdjust="spacing" textLength="180.2637" x="42.13" y="1012.8395">secondaryFixedDim : U32</text><rect fill="none" height="6" style="stroke:#C82930;stroke-width:1;" width="6" x="30.13" y="1022.7897"/><text fill="#000000" font-family="sans-serif" font-size="14" lengthAdjust="spacing" textLength="221.7305" x="42.13" y="1029.1364">onSecondaryFixedVariant : U32</text><rect fill="none" height="6" style="stroke:#C82930;stroke-width:1;" width="6" x="30.13" y="1039.0866"/><text fill="#000000" font-family="sans-serif" font-size="14" lengthAdjust="spacing" textLength="131.2637" x="42.13" y="1045.4332">tertiaryFixed : U32</text><rect fill="none" height="6" style="stroke:#C82930;stroke-width:1;" width="6" x="30.13" y="1055.3834"/><text fill="#000000" font-family="sans-serif" font-size="14" lengthAdjust="spacing" textLength="151.7646" x="42.13" y="1061.7301">onTertiaryFixed : U32</text><rect fill="none" height="6" style="stroke:#C82930;stroke-width:1;" width="6" x="30.13" y="1071.6803"/><text fill="#000000" font-family="sans-serif" font-size="14" lengthAdjust="spacing" textLength="159.5713" x="42.13" y="1078.027">tertiaryFixedDim : U32</text><rect fill="none" height="6" style="stroke:#C82930;stroke-width:1;" width="6" x="30.13" y="1087.9772"/><text fill="#000000" font-family="sans-serif" font-size="14" lengthAdjust="spacing" textLength="202.5078" x="42.13" y="1094.3239">onTertiaryFixedVariant : U32</text><rect fill="none" height="6" style="stroke:#C82930;stroke-width:1;" width="6" x="30.13" y="1104.2741"/><text fill="#000000" font-family="sans-serif" font-size="14" lengthAdjust="spacing" textLength="121.7275" x="42.13" y="1110.6207">surfaceDim : U32</text><rect fill="none" height="6" style="stroke:#C82930;stroke-width:1;" width="6" x="30.13" y="1120.5709"/><text fill="#000000" font-family="sans-serif" font-size="14" lengthAdjust="spacing" textLength="135.9189" x="42.13" y="1126.9176">surfaceBright : U32</text><ellipse cx="33.13" cy="1139.8678" fill="none" rx="3" ry="3" style="stroke:#038048;stroke-width:1;"/><text fill="#000000" font-family="sans-serif" font-size="14" lengthAdjust="spacing" textLength="211.0459" x="42.13" y="1143.2145">surfaceContainerLowest : U32</text><rect fill="none" height="6" style="stroke:#C82930;stroke-width:1;" width="6" x="30.13" y="1153.1647"/><text fill="#000000" font-family="sans-serif" font-size="14" lengthAdjust="spacing" textLength="189.6494" x="42.13" y="1159.5114">surfaceContainerLow : U32</text><rect fill="none" height="6" style="stroke:#C82930;stroke-width:1;" width="6" x="30.13" y="1169.4616"/><text fill="#000000" font-family="sans-serif" font-size="14" lengthAdjust="spacing" textLength="161.834" x="42.13" y="1175.8082">surfaceContainer : U32</text><rect fill="none" height="6" style="stroke:#C82930;stroke-width:1;" width="6" x="30.13" y="1185.7584"/><text fill="#000000" font-family="sans-serif" font-size="14" lengthAdjust="spacing" textLength="194.0107" x="42.13" y="1192.1051">surfaceContainerHigh : U32</text><ellipse cx="33.13" cy="1205.0553" fill="none" rx="3" ry="3" style="stroke:#038048;stroke-width:1;"/><text fill="#000000" font-family="sans-serif" font-size="14" lengthAdjust="spacing" textLength="215.4072" x="42.13" y="1208.402">surfaceContainerHighest : U32</text><rect fill="none" height="6" style="stroke:#C82930;stroke-width:1;" width="6" x="30.13" y="1218.3522"/><text fill="#000000" font-family="sans-serif" font-size="14" lengthAdjust="spacing" textLength="172.7988" x="42.13" y="1224.6989">CSS variable List : String</text><line style="stroke:#555555;stroke-width:0.5;" x1="23.13" x2="268.8605" y1="1232.0006" y2="1232.0006"/><rect fill="#F24D5C" height="6" style="stroke:#C82930;stroke-width:1;" width="6" x="30.13" y="1242.6491"/><text fill="#000000" font-family="sans-serif" font-size="14" lengthAdjust="spacing" text-decoration="underline" textLength="144.4844" x="42.13" y="1248.9957">fab-outline buttons()</text><rect fill="#F24D5C" height="6" style="stroke:#C82930;stroke-width:1;" width="6" x="30.13" y="1258.9459"/><text fill="#000000" font-family="sans-serif" font-size="14" lengthAdjust="spacing" text-decoration="underline" textLength="102.9424" x="42.13" y="1265.2926">filled buttons()</text><rect fill="#F24D5C" height="6" style="stroke:#C82930;stroke-width:1;" width="6" x="30.13" y="1275.2428"/><text fill="#000000" font-family="sans-serif" font-size="14" lengthAdjust="spacing" text-decoration="underline" textLength="134.4766" x="42.13" y="1281.5895">nooutline buttons()</text><rect fill="#F24D5C" height="6" style="stroke:#C82930;stroke-width:1;" width="6" x="30.13" y="1291.5397"/><text fill="#000000" font-family="sans-serif" font-size="14" lengthAdjust="spacing" text-decoration="underline" textLength="104.2412" x="42.13" y="1297.8864">tonal buttons()</text><rect fill="#F24D5C" height="6" style="stroke:#C82930;stroke-width:1;" width="6" x="30.13" y="1307.8366"/><text fill="#000000" font-family="sans-serif" font-size="14" lengthAdjust="spacing" text-decoration="underline" textLength="99.0869" x="42.13" y="1314.1832">Blend Colors()</text><rect fill="#F24D5C" height="6" style="stroke:#C82930;stroke-width:1;" width="6" x="30.13" y="1324.1334"/><text fill="#000000" font-family="sans-serif" font-size="14" lengthAdjust="spacing" text-decoration="underline" textLength="140.1641" x="42.13" y="1330.4801">Color Opacity Calc()</text><rect fill="#F24D5C" height="6" style="stroke:#C82930;stroke-width:1;" width="6" x="30.13" y="1340.4303"/><text fill="#000000" font-family="sans-serif" font-size="14" lengthAdjust="spacing" text-decoration="underline" textLength="218.2783" x="42.13" y="1346.777">convert color string summary()</text><rect fill="#F24D5C" height="6" style="stroke:#C82930;stroke-width:1;" width="6" x="30.13" y="1356.7272"/><text fill="#000000" font-family="sans-serif" font-size="14" lengthAdjust="spacing" text-decoration="underline" textLength="194.25" x="42.13" y="1363.0739">convert color to rgb string()</text><rect fill="#F24D5C" height="6" style="stroke:#C82930;stroke-width:1;" width="6" x="30.13" y="1373.0241"/><text fill="#000000" font-family="sans-serif" font-size="14" lengthAdjust="spacing" text-decoration="underline" textLength="139.4189" x="42.13" y="1379.3707">Convert PNG color()</text><rect fill="#F24D5C" height="6" style="stroke:#C82930;stroke-width:1;" width="6" x="30.13" y="1389.3209"/><text fill="#000000" font-family="sans-serif" font-size="14" lengthAdjust="spacing" text-decoration="underline" textLength="159.2637" x="42.13" y="1395.6676">Create CSS Variables()</text><rect fill="#F24D5C" height="6" style="stroke:#C82930;stroke-width:1;" width="6" x="30.13" y="1405.6178"/><text fill="#000000" font-family="sans-serif" font-size="14" lengthAdjust="spacing" text-decoration="underline" textLength="155.1074" x="42.13" y="1411.9645">Find TSC tEXt Chunk()</text><rect fill="#F24D5C" height="6" style="stroke:#C82930;stroke-width:1;" width="6" x="30.13" y="1421.9147"/><text fill="#000000" font-family="sans-serif" font-size="14" lengthAdjust="spacing" text-decoration="underline" textLength="165.5596" x="42.13" y="1428.2614">Insert TSC tEXt Chunk()</text><rect fill="#F24D5C" height="6" style="stroke:#C82930;stroke-width:1;" width="6" x="30.13" y="1438.2116"/><text fill="#000000" font-family="sans-serif" font-size="14" lengthAdjust="spacing" text-decoration="underline" textLength="153.0498" x="42.13" y="1444.5582">Is Color Transparent()</text><rect fill="#F24D5C" height="6" style="stroke:#C82930;stroke-width:1;" width="6" x="30.13" y="1454.5084"/><text fill="#000000" font-family="sans-serif" font-size="14" lengthAdjust="spacing" text-decoration="underline" textLength="109.7441" x="42.13" y="1460.8551">Mask to Alpha()</text><rect fill="#F24D5C" height="6" style="stroke:#C82930;stroke-width:1;" width="6" x="30.13" y="1470.8053"/><text fill="#000000" font-family="sans-serif" font-size="14" lengthAdjust="spacing" text-decoration="underline" textLength="179.4023" x="42.13" y="1477.152">WaveformChart - Colors()</text><rect fill="#F24D5C" height="6" style="stroke:#C82930;stroke-width:1;" width="6" x="30.13" y="1487.1022"/><text fill="#000000" font-family="sans-serif" font-size="14" lengthAdjust="spacing" text-decoration="underline" textLength="183.873" x="42.13" y="1493.4489">WaveformGraph - Colors()</text><ellipse cx="33.13" cy="1506.3991" fill="#84BE84" rx="3" ry="3" style="stroke:#038048;stroke-width:1;"/><text fill="#000000" font-family="sans-serif" font-size="14" lengthAdjust="spacing" text-decoration="underline" textLength="180.5645" x="42.13" y="1509.7457">Boolean Update - Colors()</text><ellipse cx="33.13" cy="1522.6959" fill="#84BE84" rx="3" ry="3" style="stroke:#038048;stroke-width:1;"/><text fill="#000000" font-family="sans-serif" font-size="14" lengthAdjust="spacing" text-decoration="underline" textLength="122.7666" x="42.13" y="1526.0426">Boolean Update()</text><ellipse cx="33.13" cy="1538.9928" fill="#84BE84" rx="3" ry="3" style="stroke:#038048;stroke-width:1;"/><text fill="#000000" font-family="sans-serif" font-size="14" lengthAdjust="spacing" text-decoration="underline" textLength="107.3994" x="42.13" y="1542.3395">Controls Loop()</text><ellipse cx="33.13" cy="1555.2897" fill="#84BE84" rx="3" ry="3" style="stroke:#038048;stroke-width:1;"/><text fill="#000000" font-family="sans-serif" font-size="14" lengthAdjust="spacing" text-decoration="underline" textLength="133.2939" x="42.13" y="1558.6364">Decorations Loop()</text><ellipse cx="33.13" cy="1571.5866" fill="#84BE84" rx="3" ry="3" style="stroke:#038048;stroke-width:1;"/><text fill="#000000" font-family="sans-serif" font-size="14" lengthAdjust="spacing" text-decoration="underline" textLength="117.0381" x="42.13" y="1574.9332">outline buttons()</text><ellipse cx="33.13" cy="1587.8834" fill="#84BE84" rx="3" ry="3" style="stroke:#038048;stroke-width:1;"/><text fill="#000000" font-family="sans-serif" font-size="14" lengthAdjust="spacing" text-decoration="underline" textLength="115.2266" x="42.13" y="1591.2301">Replace Image()</text><ellipse cx="33.13" cy="1604.1803" fill="#84BE84" rx="3" ry="3" style="stroke:#038048;stroke-width:1;"/><text fill="#000000" font-family="sans-serif" font-size="14" lengthAdjust="spacing" text-decoration="underline" textLength="109.252" x="42.13" y="1607.527">Color Grabber()</text><ellipse cx="33.13" cy="1620.4772" fill="#84BE84" rx="3" ry="3" style="stroke:#038048;stroke-width:1;"/><text fill="#000000" font-family="sans-serif" font-size="14" lengthAdjust="spacing" text-decoration="underline" textLength="210.5674" x="42.13" y="1623.8239">Material.Build Scheme Array()</text><ellipse cx="33.13" cy="1636.7741" fill="#84BE84" rx="3" ry="3" style="stroke:#038048;stroke-width:1;"/><text fill="#000000" font-family="sans-serif" font-size="14" lengthAdjust="spacing" text-decoration="underline" textLength="109.9219" x="42.13" y="1640.1207">Update Image()</text><ellipse cx="33.13" cy="1653.0709" fill="#84BE84" rx="3" ry="3" style="stroke:#038048;stroke-width:1;"/><text fill="#000000" font-family="sans-serif" font-size="14" lengthAdjust="spacing" text-decoration="underline" textLength="105.8271" x="42.13" y="1656.4176">View-Scheme()</text></g><!--class Material-Palette--><g class="entity" data-entity="Material-Palette" data-source-line="26" data-uid="ent0006" id="entity_Material-Palette"><rect fill="#FFFFFF" height="373.9375" rx="2.5" ry="2.5" style="stroke:#555555;stroke-width:0.5;" width="229.3623" x="305.32" y="825.32"/><rect fill="#808080" height="32" rx="2.5" ry="2.5" style="stroke:#808080;stroke-width:0.5;" width="229.3623" x="305.32" y="825.32"/><rect fill="#808080" height="2.5" style="stroke:#808080;stroke-width:0.5;" width="229.3623" x="305.32" y="854.82"/><rect fill="none" height="373.9375" rx="2.5" ry="2.5" style="stroke:#555555;stroke-width:0.5;" width="229.3623" x="305.32" y="825.32"/><ellipse cx="360.2297" cy="841.32" fill="#ADD1B2" rx="11" ry="11" style="stroke:#181818;stroke-width:1;"/><path d="M363.1984,846.9606 Q362.6203,847.2575 361.9797,847.3981 Q361.339,847.5544 360.6359,847.5544 Q358.1359,847.5544 356.8078,845.9138 Q355.4953,844.2575 355.4953,841.1325 Q355.4953,838.0075 356.8078,836.3513 Q358.1359,834.695 360.6359,834.695 Q361.339,834.695 361.9797,834.8513 Q362.6359,835.0075 363.1984,835.3044 L363.1984,838.0231 Q362.5734,837.445 361.9797,837.1794 Q361.3859,836.8981 360.7609,836.8981 Q359.4172,836.8981 358.7297,837.9763 Q358.0422,839.0388 358.0422,841.1325 Q358.0422,843.2263 358.7297,844.3044 Q359.4172,845.3669 360.7609,845.3669 Q361.3859,845.3669 361.9797,845.1013 Q362.5734,844.82 363.1984,844.2419 L363.1984,846.9606 Z " fill="#000000"/><text fill="#000000" font-family="sans-serif" font-size="14" lengthAdjust="spacing" textLength="111.043" x="380.7297" y="846.1667">Material-Palette</text><line style="stroke:#555555;stroke-width:0.5;" x1="306.32" x2="533.6823" y1="857.32" y2="857.32"/><rect fill="none" height="6" style="stroke:#C82930;stroke-width:1;" width="6" x="313.32" y="867.9684"/><text fill="#000000" font-family="sans-serif" font-size="14" lengthAdjust="spacing" textLength="50.5859" x="325.32" y="874.3151">0 : U32</text><rect fill="none" height="6" style="stroke:#C82930;stroke-width:1;" width="6" x="313.32" y="884.2653"/><text fill="#000000" font-family="sans-serif" font-size="14" lengthAdjust="spacing" textLength="50.5859" x="325.32" y="890.612">5 : U32</text><rect fill="none" height="6" style="stroke:#C82930;stroke-width:1;" width="6" x="313.32" y="900.5622"/><text fill="#000000" font-family="sans-serif" font-size="14" lengthAdjust="spacing" textLength="59.4932" x="325.32" y="906.9089">10 : U32</text><rect fill="none" height="6" style="stroke:#C82930;stroke-width:1;" width="6" x="313.32" y="916.8591"/><text fill="#000000" font-family="sans-serif" font-size="14" lengthAdjust="spacing" textLength="59.4932" x="325.32" y="923.2057">15 : U32</text><rect fill="none" height="6" style="stroke:#C82930;stroke-width:1;" width="6" x="313.32" y="933.1559"/><text fill="#000000" font-family="sans-serif" font-size="14" lengthAdjust="spacing" textLength="59.4932" x="325.32" y="939.5026">20 : U32</text><rect fill="none" height="6" style="stroke:#C82930;stroke-width:1;" width="6" x="313.32" y="949.4528"/><text fill="#000000" font-family="sans-serif" font-size="14" lengthAdjust="spacing" textLength="59.4932" x="325.32" y="955.7995">25 : U32</text><rect fill="none" height="6" style="stroke:#C82930;stroke-width:1;" width="6" x="313.32" y="965.7497"/><text fill="#000000" font-family="sans-serif" font-size="14" lengthAdjust="spacing" textLength="59.4932" x="325.32" y="972.0964">30 : U32</text><rect fill="none" height="6" style="stroke:#C82930;stroke-width:1;" width="6" x="313.32" y="982.0466"/><text fill="#000000" font-family="sans-serif" font-size="14" lengthAdjust="spacing" textLength="59.4932" x="325.32" y="988.3932">35 : U32</text><rect fill="none" height="6" style="stroke:#C82930;stroke-width:1;" width="6" x="313.32" y="998.3434"/><text fill="#000000" font-family="sans-serif" font-size="14" lengthAdjust="spacing" textLength="59.4932" x="325.32" y="1004.6901">40 : U32</text><rect fill="none" height="6" style="stroke:#C82930;stroke-width:1;" width="6" x="313.32" y="1014.6403"/><text fill="#000000" font-family="sans-serif" font-size="14" lengthAdjust="spacing" textLength="59.4932" x="325.32" y="1020.987">50 : U32</text><rect fill="none" height="6" style="stroke:#C82930;stroke-width:1;" width="6" x="313.32" y="1030.9372"/><text fill="#000000" font-family="sans-serif" font-size="14" lengthAdjust="spacing" textLength="59.4932" x="325.32" y="1037.2839">60 : U32</text><rect fill="none" height="6" style="stroke:#C82930;stroke-width:1;" width="6" x="313.32" y="1047.2341"/><text fill="#000000" font-family="sans-serif" font-size="14" lengthAdjust="spacing" textLength="59.4932" x="325.32" y="1053.5807">70 : U32</text><rect fill="none" height="6" style="stroke:#C82930;stroke-width:1;" width="6" x="313.32" y="1063.5309"/><text fill="#000000" font-family="sans-serif" font-size="14" lengthAdjust="spacing" textLength="59.4932" x="325.32" y="1069.8776">80 : U32</text><rect fill="none" height="6" style="stroke:#C82930;stroke-width:1;" width="6" x="313.32" y="1079.8278"/><text fill="#000000" font-family="sans-serif" font-size="14" lengthAdjust="spacing" textLength="59.4932" x="325.32" y="1086.1745">90 : U32</text><rect fill="none" height="6" style="stroke:#C82930;stroke-width:1;" width="6" x="313.32" y="1096.1247"/><text fill="#000000" font-family="sans-serif" font-size="14" lengthAdjust="spacing" textLength="59.4932" x="325.32" y="1102.4714">95 : U32</text><rect fill="none" height="6" style="stroke:#C82930;stroke-width:1;" width="6" x="313.32" y="1112.4216"/><text fill="#000000" font-family="sans-serif" font-size="14" lengthAdjust="spacing" textLength="59.4932" x="325.32" y="1118.7682">98 : U32</text><rect fill="none" height="6" style="stroke:#C82930;stroke-width:1;" width="6" x="313.32" y="1128.7184"/><text fill="#000000" font-family="sans-serif" font-size="14" lengthAdjust="spacing" textLength="59.4932" x="325.32" y="1135.0651">99 : U32</text><rect fill="none" height="6" style="stroke:#C82930;stroke-width:1;" width="6" x="313.32" y="1145.0153"/><text fill="#000000" font-family="sans-serif" font-size="14" lengthAdjust="spacing" textLength="68.4004" x="325.32" y="1151.362">100 : U32</text><line style="stroke:#555555;stroke-width:0.5;" x1="306.32" x2="533.6823" y1="1158.6638" y2="1158.6638"/><ellipse cx="316.32" cy="1172.3122" fill="#84BE84" rx="3" ry="3" style="stroke:#038048;stroke-width:1;"/><text fill="#000000" font-family="sans-serif" font-size="14" lengthAdjust="spacing" text-decoration="underline" textLength="203.3623" x="325.32" y="1175.6589">Material.Build Palette Array()</text><ellipse cx="316.32" cy="1188.6091" fill="#84BE84" rx="3" ry="3" style="stroke:#038048;stroke-width:1;"/><text fill="#000000" font-family="sans-serif" font-size="14" lengthAdjust="spacing" text-decoration="underline" textLength="98.6221" x="325.32" y="1191.9557">View-Palette()</text></g><!--reverse link Material Theme to Material-Scheme--><g class="link" data-entity-1="Material Theme" data-entity-2="Material-Scheme" data-source-line="25" data-uid="lnk5" id="link_Material Theme_Material-Scheme"><path codeLine="25" d="M258.2941,313.0877 C255.3341,331.4877 254.05,339.49 250.68,360.46" fill="none" id="Material Theme-backto-Material-Scheme" style="stroke:#181818;stroke-width:1;"/><polygon fill="none" points="260.2,301.24,255.2978,306.5285,258.2941,313.0877,263.1963,307.7991,260.2,301.24" style="stroke:#181818;stroke-width:1;"/></g><!--reverse link Material Theme to Material-Palette--><g class="link" data-entity-1="Material Theme" data-entity-2="Material-Palette" data-source-line="26" data-uid="lnk7" id="link_Material Theme_Material-Palette"><path codeLine="26" d="M304.3706,313.0788 C327.5606,453.1088 362.8,665.88 389.14,824.95" fill="none" id="Material Theme-backto-Material-Palette" style="stroke:#181818;stroke-width:1;"/><polygon fill="none" points="302.41,301.24,299.444,307.8129,304.3706,313.0788,307.3365,306.5058,302.41,301.24" style="stroke:#181818;stroke-width:1;"/></g><!--SRC=[hPTBRziu483l_XL4Ujc5uIAFxJR9BLRZD0kt3Ih7wPMInXOHYXH8EcaGvB_lK0_7DX_s0giW1yzyCnmEX-HGWo62Lg1hcaCADLNKI4Kk1_gH2Vkh8WcdMezf_hXKSYMAH784FaoQpy6aAa1roAVcsqKcKfWEE6w-NU0hKFJX37X-RFy66xIHDVwJJ1eZAr8m1RbXKWnowuKSpTA4VAC65AESp4geu2D_uYoxt1OUaTV1wu81Bzx8g02TArPRD-IIf4OniNpNQe02nVTdf- -oN2fe8jIeIVXAe-ztRPhR8QpgIYdwGkI2JEVjDD-XEyh1c12b3JKiVoEl5PXI8Z-ygcl-GkpqxZ03z_KVVuQf-zjsbducb-89b26wcQXDPWc__MYY0DD6_ad9XF60kniifduoOQBDYLy_bRJOMJG_s3CVasuA6FkKPlFRwmSq6BmD1eUllnoD3gYMRYsF_d_7NSgE1WTNxjfaitQFTqlpqwxWn45E7ERKOKuTvinXpXpcBpSSH_At8_diICuToOKhSKQ_E7Sa5susreuYzJLUCLxqLTtkJtz5pXayz-lIbU3XwzdLriPo3ksfx3c3QiKggbvs9wDNQe4d-8m9iwkIuivlqxd27MGe4w22Xa520vuWXSUr56b8jRQ9Z9lkPJ1lXda7dWKqlKLasDa-19II7hjhdxXX8uDTn_J3R7tzkPRZa6xOLO4deNv5nyyf5g6lSDAuVcKunXuG1unqIGlvx4ZnrgrsXSoUx1e2iNVQ7oAkZzV-XFs68bZtNkscvHStw6tZK1Bw-WwCdqRrszRU6BOT1ABeTqGWY5bClMNh3M7BF9I7TkayzfrchDYoD84oNs-UgNm67NA-IUr3zkc_OZJxWh6C9veaJScJpKB6WKnP0_HdktEPZ1OqMs-lR8NzhV0tLAC5unnN9ye8UP0hrE3r54N67F3GQTjTFz4swp_mDS7C2qaep_rSttdc3T_rdtfLsPrpY0MsUsgPTOQXK5g3k-ythL40QnjRkpxpRdq2SvimdBozoytrBqEISYKU_U2jq7RWWr3TffFC51Nu25CWZ9_yHlMZdVOLhqlgHnxe4ooagfAIul2Zw4Brx8sYTHbdXsCfEL21Jut2fkg_m87716uM9RacKoa3pvSlU8BXMnGVOZ7gaC8U_eIQsmlYjgBBO41s3J0NMGPgpukZxGZRZYtM47RPYepQj8phvr3JCVuB]--></g></svg>