<svg xmlns="http://www.w3.org/2000/svg" xmlns:xlink="http://www.w3.org/1999/xlink" contentStyleType="text/css" data-diagram-type="CLASS" height="437px" preserveAspectRatio="none" style="width:275px;height:437px;background:#FFFFFF;" version="1.1" viewBox="0 0 275 437" width="275px" zoomAndPan="magnify"><defs/><g><!--cluster TSC Material Theme.lvlib--><g class="cluster" data-entity="TSC Material Theme.lvlib" data-source-line="8" data-uid="ent0003" id="cluster_TSC Material Theme.lvlib"><path d="M8.5,6 L206.6279,6 A3.75,3.75 0 0 1 209.1279,8.5 L216.1279,28.2969 L265.5,28.2969 A2.5,2.5 0 0 1 268,30.7969 L268,428.44 A2.5,2.5 0 0 1 265.5,430.94 L8.5,430.94 A2.5,2.5 0 0 1 6,428.44 L6,8.5 A2.5,2.5 0 0 1 8.5,6" fill="none" style="stroke:#000000;stroke-width:1.5;"/><line style="stroke:#000000;stroke-width:1.5;" x1="6" x2="216.1279" y1="28.2969" y2="28.2969"/><text fill="#000000" font-family="sans-serif" font-size="14" font-weight="bold" lengthAdjust="spacing" textLength="197.1279" x="10" y="20.9951">TSC Material Theme.lvlib</text></g><!--class Material-Palette--><g class="entity" data-entity="Material-Palette" data-source-line="8" data-uid="ent0002" id="entity_Material-Palette"><rect fill="#FFFFFF" height="373.9375" rx="2.5" ry="2.5" style="stroke:#555555;stroke-width:0.5;" width="229.3623" x="22.32" y="41"/><rect fill="#808080" height="32" rx="2.5" ry="2.5" style="stroke:#808080;stroke-width:0.5;" width="229.3623" x="22.32" y="41"/><rect fill="#808080" height="2.5" style="stroke:#808080;stroke-width:0.5;" width="229.3623" x="22.32" y="70.5"/><rect fill="none" height="373.9375" rx="2.5" ry="2.5" style="stroke:#555555;stroke-width:0.5;" width="229.3623" x="22.32" y="41"/><ellipse cx="77.2297" cy="57" fill="#ADD1B2" rx="11" ry="11" style="stroke:#181818;stroke-width:1;"/><path d="M80.1984,62.6406 Q79.6203,62.9375 78.9797,63.0781 Q78.339,63.2344 77.6359,63.2344 Q75.1359,63.2344 73.8078,61.5938 Q72.4953,59.9375 72.4953,56.8125 Q72.4953,53.6875 73.8078,52.0313 Q75.1359,50.375 77.6359,50.375 Q78.339,50.375 78.9797,50.5313 Q79.6359,50.6875 80.1984,50.9844 L80.1984,53.7031 Q79.5734,53.125 78.9797,52.8594 Q78.3859,52.5781 77.7609,52.5781 Q76.4172,52.5781 75.7297,53.6563 Q75.0422,54.7188 75.0422,56.8125 Q75.0422,58.9063 75.7297,59.9844 Q76.4172,61.0469 77.7609,61.0469 Q78.3859,61.0469 78.9797,60.7813 Q79.5734,60.5 80.1984,59.9219 L80.1984,62.6406 Z " fill="#000000"/><text fill="#000000" font-family="sans-serif" font-size="14" lengthAdjust="spacing" textLength="111.043" x="97.7297" y="61.8467">Material-Palette</text><line style="stroke:#555555;stroke-width:0.5;" x1="23.32" x2="250.6823" y1="73" y2="73"/><rect fill="none" height="6" style="stroke:#C82930;stroke-width:1;" width="6" x="30.32" y="83.6484"/><text fill="#000000" font-family="sans-serif" font-size="14" lengthAdjust="spacing" textLength="50.5859" x="42.32" y="89.9951">0 : U32</text><rect fill="none" height="6" style="stroke:#C82930;stroke-width:1;" width="6" x="30.32" y="99.9453"/><text fill="#000000" font-family="sans-serif" font-size="14" lengthAdjust="spacing" textLength="50.5859" x="42.32" y="106.292">5 : U32</text><rect fill="none" height="6" style="stroke:#C82930;stroke-width:1;" width="6" x="30.32" y="116.2422"/><text fill="#000000" font-family="sans-serif" font-size="14" lengthAdjust="spacing" textLength="59.4932" x="42.32" y="122.5889">10 : U32</text><rect fill="none" height="6" style="stroke:#C82930;stroke-width:1;" width="6" x="30.32" y="132.5391"/><text fill="#000000" font-family="sans-serif" font-size="14" lengthAdjust="spacing" textLength="59.4932" x="42.32" y="138.8857">15 : U32</text><rect fill="none" height="6" style="stroke:#C82930;stroke-width:1;" width="6" x="30.32" y="148.8359"/><text fill="#000000" font-family="sans-serif" font-size="14" lengthAdjust="spacing" textLength="59.4932" x="42.32" y="155.1826">20 : U32</text><rect fill="none" height="6" style="stroke:#C82930;stroke-width:1;" width="6" x="30.32" y="165.1328"/><text fill="#000000" font-family="sans-serif" font-size="14" lengthAdjust="spacing" textLength="59.4932" x="42.32" y="171.4795">25 : U32</text><rect fill="none" height="6" style="stroke:#C82930;stroke-width:1;" width="6" x="30.32" y="181.4297"/><text fill="#000000" font-family="sans-serif" font-size="14" lengthAdjust="spacing" textLength="59.4932" x="42.32" y="187.7764">30 : U32</text><rect fill="none" height="6" style="stroke:#C82930;stroke-width:1;" width="6" x="30.32" y="197.7266"/><text fill="#000000" font-family="sans-serif" font-size="14" lengthAdjust="spacing" textLength="59.4932" x="42.32" y="204.0732">35 : U32</text><rect fill="none" height="6" style="stroke:#C82930;stroke-width:1;" width="6" x="30.32" y="214.0234"/><text fill="#000000" font-family="sans-serif" font-size="14" lengthAdjust="spacing" textLength="59.4932" x="42.32" y="220.3701">40 : U32</text><rect fill="none" height="6" style="stroke:#C82930;stroke-width:1;" width="6" x="30.32" y="230.3203"/><text fill="#000000" font-family="sans-serif" font-size="14" lengthAdjust="spacing" textLength="59.4932" x="42.32" y="236.667">50 : U32</text><rect fill="none" height="6" style="stroke:#C82930;stroke-width:1;" width="6" x="30.32" y="246.6172"/><text fill="#000000" font-family="sans-serif" font-size="14" lengthAdjust="spacing" textLength="59.4932" x="42.32" y="252.9639">60 : U32</text><rect fill="none" height="6" style="stroke:#C82930;stroke-width:1;" width="6" x="30.32" y="262.9141"/><text fill="#000000" font-family="sans-serif" font-size="14" lengthAdjust="spacing" textLength="59.4932" x="42.32" y="269.2607">70 : U32</text><rect fill="none" height="6" style="stroke:#C82930;stroke-width:1;" width="6" x="30.32" y="279.2109"/><text fill="#000000" font-family="sans-serif" font-size="14" lengthAdjust="spacing" textLength="59.4932" x="42.32" y="285.5576">80 : U32</text><rect fill="none" height="6" style="stroke:#C82930;stroke-width:1;" width="6" x="30.32" y="295.5078"/><text fill="#000000" font-family="sans-serif" font-size="14" lengthAdjust="spacing" textLength="59.4932" x="42.32" y="301.8545">90 : U32</text><rect fill="none" height="6" style="stroke:#C82930;stroke-width:1;" width="6" x="30.32" y="311.8047"/><text fill="#000000" font-family="sans-serif" font-size="14" lengthAdjust="spacing" textLength="59.4932" x="42.32" y="318.1514">95 : U32</text><rect fill="none" height="6" style="stroke:#C82930;stroke-width:1;" width="6" x="30.32" y="328.1016"/><text fill="#000000" font-family="sans-serif" font-size="14" lengthAdjust="spacing" textLength="59.4932" x="42.32" y="334.4482">98 : U32</text><rect fill="none" height="6" style="stroke:#C82930;stroke-width:1;" width="6" x="30.32" y="344.3984"/><text fill="#000000" font-family="sans-serif" font-size="14" lengthAdjust="spacing" textLength="59.4932" x="42.32" y="350.7451">99 : U32</text><rect fill="none" height="6" style="stroke:#C82930;stroke-width:1;" width="6" x="30.32" y="360.6953"/><text fill="#000000" font-family="sans-serif" font-size="14" lengthAdjust="spacing" textLength="68.4004" x="42.32" y="367.042">100 : U32</text><line style="stroke:#555555;stroke-width:0.5;" x1="23.32" x2="250.6823" y1="374.3438" y2="374.3438"/><ellipse cx="33.32" cy="387.9922" fill="#84BE84" rx="3" ry="3" style="stroke:#038048;stroke-width:1;"/><text fill="#000000" font-family="sans-serif" font-size="14" lengthAdjust="spacing" text-decoration="underline" textLength="203.3623" x="42.32" y="391.3389">Material.Build Palette Array()</text><ellipse cx="33.32" cy="404.2891" fill="#84BE84" rx="3" ry="3" style="stroke:#038048;stroke-width:1;"/><text fill="#000000" font-family="sans-serif" font-size="14" lengthAdjust="spacing" text-decoration="underline" textLength="98.6221" x="42.32" y="407.6357">View-Palette()</text></g><!--SRC=[RP71JiCm343l-GfhN41eKzSoQ7jZbIOkI4WRtBtMi6XfKoKU25NzTzggWwd6KGvvUROZnnD3XINv6dFQKeqEsJf8bJ_ggZ-La1dqVetvySFPKrLardJ2rMO8eLbNa1kLrH1JPMCh7eLWYAdmHDZL40tZe5_gmcPRTnlsbjcMK6X7EMjRgRol0hFTDeDdP78Q3UmELDB2V1gzJyzm_eA6c6a6ZMhUDPcYXNa0ARn6uHzOJS5IA4lXXC89XHC99nBEdNoE8FU2F0WI2v988hediI29dCPl8S_8Ec-XAOaFjhkyFKzwiJvfKy0uRtXq3h-lR_xBUDFqTVwNpb2jKke7]--></g></svg>