<?plantuml 1.2026.1?><svg xmlns="http://www.w3.org/2000/svg" xmlns:xlink="http://www.w3.org/1999/xlink" contentStyleType="text/css" data-diagram-type="CLASS" height="349px" preserveAspectRatio="none" style="width:265px;height:349px;background:#FFFFFF;" version="1.1" viewBox="0 0 265 349" width="265px" zoomAndPan="magnify"><defs/><g><!--class Theme Config--><g class="entity" data-qualified-name="Theme Config" data-source-line="8" id="ent0002"><rect fill="#FFFFFF" height="227.2656" rx="2.5" ry="2.5" style="stroke:#555555;stroke-width:0.5;" width="251.4287" x="7" y="115"/><rect fill="#808080" height="32" rx="2.5" ry="2.5" style="stroke:#808080;stroke-width:0.5;" width="251.4287" x="7" y="115"/><rect fill="#808080" height="2.5" style="stroke:#808080;stroke-width:0.5;" width="251.4287" x="7" y="144.5"/><rect fill="none" height="227.2656" rx="2.5" ry="2.5" style="stroke:#555555;stroke-width:0.5;" width="251.4287" x="7" y="115"/><ellipse cx="79.6353" cy="131" fill="#ADD1B2" rx="11" ry="11" style="stroke:#181818;stroke-width:1;"/><path d="M82.604,136.6406 Q82.0259,136.9375 81.3853,137.0781 Q80.7446,137.2344 80.0415,137.2344 Q77.5415,137.2344 76.2134,135.5937 Q74.9009,133.9375 74.9009,130.8125 Q74.9009,127.6875 76.2134,126.0312 Q77.5415,124.375 80.0415,124.375 Q80.7446,124.375 81.3853,124.5312 Q82.0415,124.6875 82.604,124.9844 L82.604,127.7031 Q81.979,127.125 81.3853,126.8594 Q80.7915,126.5781 80.1665,126.5781 Q78.8228,126.5781 78.1353,127.6562 Q77.4478,128.7187 77.4478,130.8125 Q77.4478,132.9062 78.1353,133.9844 Q78.8228,135.0469 80.1665,135.0469 Q80.7915,135.0469 81.3853,134.7812 Q81.979,134.5 82.604,133.9219 L82.604,136.6406 Z " fill="#000000"/><text fill="#000000" font-family="sans-serif" font-size="14" lengthAdjust="spacing" textLength="97.6582" x="100.1353" y="135.8467">Theme Config</text><line style="stroke:#555555;stroke-width:0.5;" x1="8" x2="257.4287" y1="147" y2="147"/><g data-visibility-modifier="PRIVATE_FIELD"><rect fill="none" height="6" style="stroke:#C82930;stroke-width:1;" width="6" x="15" y="157.6484"/></g><text fill="#000000" font-family="sans-serif" font-size="14" lengthAdjust="spacing" textLength="132.5625" x="27" y="163.9951">Theme Mode : U16</text><g data-visibility-modifier="PRIVATE_FIELD"><rect fill="none" height="6" style="stroke:#C82930;stroke-width:1;" width="6" x="15" y="173.9453"/></g><text fill="#000000" font-family="sans-serif" font-size="14" lengthAdjust="spacing" textLength="126.5059" x="27" y="180.292">theme path : Path</text><line style="stroke:#555555;stroke-width:0.5;" x1="8" x2="257.4287" y1="187.5937" y2="187.5937"/><g data-visibility-modifier="PUBLIC_METHOD"><ellipse cx="18" cy="201.2422" fill="#84BE84" rx="3" ry="3" style="stroke:#038048;stroke-width:1;"/></g><text fill="#000000" font-family="sans-serif" font-size="14" lengthAdjust="spacing" text-decoration="underline" textLength="131.209" x="27" y="204.5889">Get Theme Mode()</text><g data-visibility-modifier="PUBLIC_METHOD"><ellipse cx="18" cy="217.5391" fill="#84BE84" rx="3" ry="3" style="stroke:#038048;stroke-width:1;"/></g><text fill="#000000" font-family="sans-serif" font-size="14" lengthAdjust="spacing" text-decoration="underline" textLength="129.2471" x="27" y="220.8857">Set Theme Mode()</text><g data-visibility-modifier="PUBLIC_METHOD"><ellipse cx="18" cy="233.8359" fill="#84BE84" rx="3" ry="3" style="stroke:#038048;stroke-width:1;"/></g><text fill="#000000" font-family="sans-serif" font-size="14" lengthAdjust="spacing" text-decoration="underline" textLength="121.8301" x="27" y="237.1826">Get theme path()</text><g data-visibility-modifier="PUBLIC_METHOD"><ellipse cx="18" cy="250.1328" fill="#84BE84" rx="3" ry="3" style="stroke:#038048;stroke-width:1;"/></g><text fill="#000000" font-family="sans-serif" font-size="14" lengthAdjust="spacing" text-decoration="underline" textLength="119.8682" x="27" y="253.4795">Set theme path()</text><g data-visibility-modifier="PUBLIC_METHOD"><ellipse cx="18" cy="266.4297" fill="#84BE84" rx="3" ry="3" style="stroke:#038048;stroke-width:1;"/></g><text fill="#000000" font-family="sans-serif" font-size="14" lengthAdjust="spacing" text-decoration="underline" textLength="85.8936" x="27" y="269.7764">From JSON()</text><g data-visibility-modifier="PUBLIC_METHOD"><ellipse cx="18" cy="282.7266" fill="#84BE84" rx="3" ry="3" style="stroke:#038048;stroke-width:1;"/></g><text fill="#000000" font-family="sans-serif" font-size="14" lengthAdjust="spacing" text-decoration="underline" textLength="144.1494" x="27" y="286.0732">Load Configuration()</text><g data-visibility-modifier="PUBLIC_METHOD"><ellipse cx="18" cy="299.0234" fill="#84BE84" rx="3" ry="3" style="stroke:#038048;stroke-width:1;"/></g><text fill="#000000" font-family="sans-serif" font-size="14" lengthAdjust="spacing" text-decoration="underline" textLength="144.6826" x="27" y="302.3701">Save Configuration()</text><g data-visibility-modifier="PUBLIC_METHOD"><ellipse cx="18" cy="315.3203" fill="#84BE84" rx="3" ry="3" style="stroke:#038048;stroke-width:1;"/></g><text fill="#000000" font-family="sans-serif" font-size="14" lengthAdjust="spacing" text-decoration="underline" textLength="225.4287" x="27" y="318.667">Theme Editor Config--constant()</text><g data-visibility-modifier="PUBLIC_METHOD"><ellipse cx="18" cy="331.6172" fill="#84BE84" rx="3" ry="3" style="stroke:#038048;stroke-width:1;"/></g><text fill="#000000" font-family="sans-serif" font-size="14" lengthAdjust="spacing" text-decoration="underline" textLength="66.999" x="27" y="334.9639">To JSON()</text></g><!--class Config File--><g class="entity" data-qualified-name="Config File" data-source-line="22" id="ent0003"><rect fill="#FFFFFF" height="48" rx="2.5" ry="2.5" style="stroke:#555555;stroke-width:0.5;" width="105.8145" x="79.81" y="7"/><rect fill="#808080" height="32" rx="2.5" ry="2.5" style="stroke:#808080;stroke-width:0.5;" width="105.8145" x="79.81" y="7"/><rect fill="#808080" height="2.5" style="stroke:#808080;stroke-width:0.5;" width="105.8145" x="79.81" y="36.5"/><rect fill="none" height="48" rx="2.5" ry="2.5" style="stroke:#555555;stroke-width:0.5;" width="105.8145" x="79.81" y="7"/><ellipse cx="94.81" cy="23" fill="#ADD1B2" rx="11" ry="11" style="stroke:#181818;stroke-width:1;"/><path d="M97.7788,28.6406 Q97.2006,28.9375 96.56,29.0781 Q95.9194,29.2344 95.2163,29.2344 Q92.7163,29.2344 91.3881,27.5938 Q90.0756,25.9375 90.0756,22.8125 Q90.0756,19.6875 91.3881,18.0313 Q92.7163,16.375 95.2163,16.375 Q95.9194,16.375 96.56,16.5313 Q97.2163,16.6875 97.7788,16.9844 L97.7788,19.7031 Q97.1538,19.125 96.56,18.8594 Q95.9663,18.5781 95.3413,18.5781 Q93.9975,18.5781 93.31,19.6563 Q92.6225,20.7188 92.6225,22.8125 Q92.6225,24.9063 93.31,25.9844 Q93.9975,27.0469 95.3413,27.0469 Q95.9663,27.0469 96.56,26.7813 Q97.1538,26.5 97.7788,25.9219 L97.7788,28.6406 Z " fill="#000000"/><text fill="#000000" font-family="sans-serif" font-size="14" lengthAdjust="spacing" textLength="73.8145" x="108.81" y="27.8467">Config File</text><line style="stroke:#555555;stroke-width:0.5;" x1="80.81" x2="184.6245" y1="39" y2="39"/><line style="stroke:#555555;stroke-width:0.5;" x1="80.81" x2="184.6245" y1="47" y2="47"/></g><!--reverse link Config File to Theme Config--><g class="link" data-entity-1="ent0003" data-entity-2="ent0002" data-link-type="extension" data-source-line="22" id="lnk4"><path codeLine="22" d="M132.71,73.21 C132.71,88.6 132.71,92.05 132.71,114.6" fill="none" id="Config File-backto-Theme Config" style="stroke:#181818;stroke-width:1;"/><polygon fill="none" points="132.71,55.21,126.71,73.21,138.71,73.21,132.71,55.21" style="stroke:#181818;stroke-width:1;"/></g><?plantuml-src ZPBRIiGm48RlynH3zqQHmdgXoEALnQw89wW-G4ncjs7RJ4bclQbzTzE3LBfRt0aXXF-RVv99F39OMQAlfC8CA-aaauELy3jZsrq9II6zlvDgjtMqjpgX8W2Bj8i3Z9n6Do1NNKoHb2mFmBABAV20CdWS5BnPjaFyePcgCE6JcAa4RHmgDcI5QbqWUi-nH4Z8RimsWbhK6uE5RY3kXMVI22lukBmU5UwKId8UbBUmYDgpPACQg4lad09qiGuj6otEpeynsGbCwpCMdFVvZqbTkFrZzlfoN7uYgOSkxCFZXWRDb99VU0hNN-jUc_QVz7mSAxA1j3oJGh_d4us8-Xn8JO4Ht7x7yUIfX10_?></g></svg>