<svg xmlns="http://www.w3.org/2000/svg" xmlns:xlink="http://www.w3.org/1999/xlink" contentStyleType="text/css" data-diagram-type="CLASS" height="431px" preserveAspectRatio="none" style="width:374px;height:431px;background:#FFFFFF;" version="1.1" viewBox="0 0 374 431" width="374px" zoomAndPan="magnify"><defs/><g><!--cluster TSC Material Theme.lvlib--><g class="cluster" data-entity="TSC Material Theme.lvlib" data-source-line="8" data-uid="ent0003" id="cluster_TSC Material Theme.lvlib"><path d="M8.5,6 L206.6279,6 A3.75,3.75 0 0 1 209.1279,8.5 L216.1279,28.2969 L364.5,28.2969 A2.5,2.5 0 0 1 367,30.7969 L367,422.36 A2.5,2.5 0 0 1 364.5,424.86 L8.5,424.86 A2.5,2.5 0 0 1 6,422.36 L6,8.5 A2.5,2.5 0 0 1 8.5,6" fill="none" style="stroke:#000000;stroke-width:1.5;"/><line style="stroke:#000000;stroke-width:1.5;" x1="6" x2="216.1279" y1="28.2969" y2="28.2969"/><text fill="#000000" font-family="sans-serif" font-size="14" font-weight="bold" lengthAdjust="spacing" textLength="197.1279" x="10" y="20.9951">TSC Material Theme.lvlib</text></g><!--class Material Theme--><g class="entity" data-entity="Material Theme" data-source-line="8" data-uid="ent0002" id="entity_Material Theme"><rect fill="#FFFFFF" height="259.8594" rx="2.5" ry="2.5" style="stroke:#555555;stroke-width:0.5;" width="238.2217" x="66.89" y="41"/><rect fill="#808080" height="32" rx="2.5" ry="2.5" style="stroke:#808080;stroke-width:0.5;" width="238.2217" x="66.89" y="41"/><rect fill="#808080" height="2.5" style="stroke:#808080;stroke-width:0.5;" width="238.2217" x="66.89" y="70.5"/><rect fill="none" height="259.8594" rx="2.5" ry="2.5" style="stroke:#555555;stroke-width:0.5;" width="238.2217" x="66.89" y="41"/><ellipse cx="126.9437" cy="57" fill="#ADD1B2" rx="11" ry="11" style="stroke:#181818;stroke-width:1;"/><path d="M129.9125,62.6406 Q129.3343,62.9375 128.6937,63.0781 Q128.0531,63.2344 127.35,63.2344 Q124.85,63.2344 123.5218,61.5938 Q122.2093,59.9375 122.2093,56.8125 Q122.2093,53.6875 123.5218,52.0313 Q124.85,50.375 127.35,50.375 Q128.0531,50.375 128.6937,50.5313 Q129.35,50.6875 129.9125,50.9844 L129.9125,53.7031 Q129.2875,53.125 128.6937,52.8594 Q128.1,52.5781 127.475,52.5781 Q126.1312,52.5781 125.4437,53.6563 Q124.7562,54.7188 124.7562,56.8125 Q124.7562,58.9063 125.4437,59.9844 Q126.1312,61.0469 127.475,61.0469 Q128.1,61.0469 128.6937,60.7813 Q129.2875,60.5 129.9125,59.9219 L129.9125,62.6406 Z " fill="#000000"/><text fill="#000000" font-family="sans-serif" font-size="14" lengthAdjust="spacing" textLength="109.6143" x="147.4437" y="61.8467">Material Theme</text><line style="stroke:#555555;stroke-width:0.5;" x1="67.89" x2="304.1117" y1="73" y2="73"/><rect fill="none" height="6" style="stroke:#C82930;stroke-width:1;" width="6" x="74.89" y="83.6484"/><text fill="#000000" font-family="sans-serif" font-size="14" lengthAdjust="spacing" textLength="133.2393" x="86.89" y="89.9951">description : String</text><rect fill="none" height="6" style="stroke:#C82930;stroke-width:1;" width="6" x="74.89" y="99.9453"/><text fill="#000000" font-family="sans-serif" font-size="14" lengthAdjust="spacing" textLength="75.0859" x="86.89" y="106.292">seed : U32</text><rect fill="none" height="6" style="stroke:#C82930;stroke-width:1;" width="6" x="74.89" y="116.2422"/><text fill="#000000" font-family="sans-serif" font-size="14" lengthAdjust="spacing" textLength="137.7852" x="86.89" y="122.5889">coreColors : Cluster</text><rect fill="none" height="6" style="stroke:#C82930;stroke-width:1;" width="6" x="74.89" y="132.5391"/><text fill="#000000" font-family="sans-serif" font-size="14" lengthAdjust="spacing" textLength="196.2393" x="86.89" y="138.8857">Schemes : Array of LV Class</text><rect fill="none" height="6" style="stroke:#C82930;stroke-width:1;" width="6" x="74.89" y="148.8359"/><text fill="#000000" font-family="sans-serif" font-size="14" lengthAdjust="spacing" textLength="189.0342" x="86.89" y="155.1826">Palettes : Array of LV Class</text><line style="stroke:#555555;stroke-width:0.5;" x1="67.89" x2="304.1117" y1="162.4844" y2="162.4844"/><ellipse cx="77.89" cy="176.1328" fill="#84BE84" rx="3" ry="3" style="stroke:#038048;stroke-width:1;"/><text fill="#000000" font-family="sans-serif" font-size="14" lengthAdjust="spacing" text-decoration="underline" textLength="136.042" x="86.89" y="179.4795">Apply TSC Pop Up()</text><ellipse cx="77.89" cy="192.4297" fill="#84BE84" rx="3" ry="3" style="stroke:#038048;stroke-width:1;"/><text fill="#000000" font-family="sans-serif" font-size="14" lengthAdjust="spacing" text-decoration="underline" textLength="122.0146" x="86.89" y="195.7764">Apply UI Theme()</text><ellipse cx="77.89" cy="208.7266" fill="#84BE84" rx="3" ry="3" style="stroke:#038048;stroke-width:1;"/><text fill="#000000" font-family="sans-serif" font-size="14" lengthAdjust="spacing" text-decoration="underline" textLength="157.5684" x="86.89" y="212.0732">convert string to hex()</text><ellipse cx="77.89" cy="225.0234" fill="#84BE84" rx="3" ry="3" style="stroke:#038048;stroke-width:1;"/><text fill="#000000" font-family="sans-serif" font-size="14" lengthAdjust="spacing" text-decoration="underline" textLength="104.1113" x="86.89" y="228.3701">Create JS File()</text><ellipse cx="77.89" cy="241.3203" fill="#84BE84" rx="3" ry="3" style="stroke:#038048;stroke-width:1;"/><text fill="#000000" font-family="sans-serif" font-size="14" lengthAdjust="spacing" text-decoration="underline" textLength="96.7354" x="86.89" y="244.667">Get Palettes()</text><ellipse cx="77.89" cy="257.6172" fill="#84BE84" rx="3" ry="3" style="stroke:#038048;stroke-width:1;"/><text fill="#000000" font-family="sans-serif" font-size="14" lengthAdjust="spacing" text-decoration="underline" textLength="96.6465" x="86.89" y="260.9639">Get Scheme()</text><ellipse cx="77.89" cy="273.9141" fill="#84BE84" rx="3" ry="3" style="stroke:#038048;stroke-width:1;"/><text fill="#000000" font-family="sans-serif" font-size="14" lengthAdjust="spacing" text-decoration="underline" textLength="158.8193" x="86.89" y="277.2607">Load Material Theme()</text><ellipse cx="77.89" cy="290.2109" fill="#84BE84" rx="3" ry="3" style="stroke:#038048;stroke-width:1;"/><text fill="#000000" font-family="sans-serif" font-size="14" lengthAdjust="spacing" text-decoration="underline" textLength="212.2217" x="86.89" y="293.5576">Material.Convert to LabVIEW()</text></g><!--class Material-Scheme--><g class="entity" data-entity="Material-Scheme" data-source-line="25" data-uid="ent0004" id="entity_Material-Scheme"><rect fill="#FFFFFF" height="48" rx="2.5" ry="2.5" style="stroke:#555555;stroke-width:0.5;" width="150.248" x="21.88" y="360.86"/><rect fill="#808080" height="32" rx="2.5" ry="2.5" style="stroke:#808080;stroke-width:0.5;" width="150.248" x="21.88" y="360.86"/><rect fill="#808080" height="2.5" style="stroke:#808080;stroke-width:0.5;" width="150.248" x="21.88" y="390.36"/><rect fill="none" height="48" rx="2.5" ry="2.5" style="stroke:#555555;stroke-width:0.5;" width="150.248" x="21.88" y="360.86"/><ellipse cx="36.88" cy="376.86" fill="#ADD1B2" rx="11" ry="11" style="stroke:#181818;stroke-width:1;"/><path d="M39.8487,382.5006 Q39.2706,382.7975 38.63,382.9381 Q37.9894,383.0944 37.2862,383.0944 Q34.7862,383.0944 33.4581,381.4538 Q32.1456,379.7975 32.1456,376.6725 Q32.1456,373.5475 33.4581,371.8913 Q34.7862,370.235 37.2862,370.235 Q37.9894,370.235 38.63,370.3913 Q39.2862,370.5475 39.8487,370.8444 L39.8487,373.5631 Q39.2237,372.985 38.63,372.7194 Q38.0362,372.4381 37.4112,372.4381 Q36.0675,372.4381 35.38,373.5163 Q34.6925,374.5788 34.6925,376.6725 Q34.6925,378.7663 35.38,379.8444 Q36.0675,380.9069 37.4112,380.9069 Q38.0362,380.9069 38.63,380.6413 Q39.2237,380.36 39.8487,379.7819 L39.8487,382.5006 Z " fill="#000000"/><text fill="#000000" font-family="sans-serif" font-size="14" lengthAdjust="spacing" textLength="118.248" x="50.88" y="381.7067">Material-Scheme</text><line style="stroke:#555555;stroke-width:0.5;" x1="22.88" x2="171.128" y1="392.86" y2="392.86"/><line style="stroke:#555555;stroke-width:0.5;" x1="22.88" x2="171.128" y1="400.86" y2="400.86"/></g><!--class Material-Palette--><g class="entity" data-entity="Material-Palette" data-source-line="26" data-uid="ent0006" id="entity_Material-Palette"><rect fill="#FFFFFF" height="48" rx="2.5" ry="2.5" style="stroke:#555555;stroke-width:0.5;" width="143.043" x="207.48" y="360.86"/><rect fill="#808080" height="32" rx="2.5" ry="2.5" style="stroke:#808080;stroke-width:0.5;" width="143.043" x="207.48" y="360.86"/><rect fill="#808080" height="2.5" style="stroke:#808080;stroke-width:0.5;" width="143.043" x="207.48" y="390.36"/><rect fill="none" height="48" rx="2.5" ry="2.5" style="stroke:#555555;stroke-width:0.5;" width="143.043" x="207.48" y="360.86"/><ellipse cx="222.48" cy="376.86" fill="#ADD1B2" rx="11" ry="11" style="stroke:#181818;stroke-width:1;"/><path d="M225.4488,382.5006 Q224.8706,382.7975 224.23,382.9381 Q223.5894,383.0944 222.8863,383.0944 Q220.3863,383.0944 219.0581,381.4538 Q217.7456,379.7975 217.7456,376.6725 Q217.7456,373.5475 219.0581,371.8913 Q220.3863,370.235 222.8863,370.235 Q223.5894,370.235 224.23,370.3913 Q224.8863,370.5475 225.4488,370.8444 L225.4488,373.5631 Q224.8238,372.985 224.23,372.7194 Q223.6363,372.4381 223.0113,372.4381 Q221.6675,372.4381 220.98,373.5163 Q220.2925,374.5788 220.2925,376.6725 Q220.2925,378.7663 220.98,379.8444 Q221.6675,380.9069 223.0113,380.9069 Q223.6363,380.9069 224.23,380.6413 Q224.8238,380.36 225.4488,379.7819 L225.4488,382.5006 Z " fill="#000000"/><text fill="#000000" font-family="sans-serif" font-size="14" lengthAdjust="spacing" textLength="111.043" x="236.48" y="381.7067">Material-Palette</text><line style="stroke:#555555;stroke-width:0.5;" x1="208.48" x2="349.523" y1="392.86" y2="392.86"/><line style="stroke:#555555;stroke-width:0.5;" x1="208.48" x2="349.523" y1="400.86" y2="400.86"/></g><!--reverse link Material Theme to Material-Scheme--><g class="link" data-entity-1="Material Theme" data-entity-2="Material-Scheme" data-source-line="25" data-uid="lnk5" id="link_Material Theme_Material-Scheme"><path codeLine="25" d="M127.0153,312.3847 C117.4653,335.1347 113.19,345.3 106.8,360.54" fill="none" id="Material Theme-backto-Material-Scheme" style="stroke:#181818;stroke-width:1;"/><polygon fill="none" points="131.66,301.32,125.6494,305.3041,127.0153,312.3847,133.0259,308.4006,131.66,301.32" style="stroke:#181818;stroke-width:1;"/></g><!--reverse link Material Theme to Material-Palette--><g class="link" data-entity-1="Material Theme" data-entity-2="Material-Palette" data-source-line="26" data-uid="lnk7" id="link_Material Theme_Material-Palette"><path codeLine="26" d="M247.6007,312.3091 C257.5807,335.0591 262.08,345.3 268.76,360.54" fill="none" id="Material Theme-backto-Material-Palette" style="stroke:#181818;stroke-width:1;"/><polygon fill="none" points="242.78,301.32,241.5273,308.4215,247.6007,312.3091,248.8534,305.2077,242.78,301.32" style="stroke:#181818;stroke-width:1;"/></g><!--SRC=[hP9HQy8m4CVVyoaEzx8n5DaO3DzScPl3WL1rpp4zDPZsIdBAHFpkIsgbcxRWmoxaeNU__fF_NHmoP395bqk5CURIIYOBFU7MEWjVAKH6ElSYrNffQPCb4HaFt0oAkC389cXBvAc8SsH06PT0juXpu1sbrxWuyBaRblX5C-L-mvoOAOL4MrIiAHCgg41h4aVmAHcjbWOcAqonOxP6ptj_aotOY_r2eqaEq4xGAQlp80CzYDdgR5bL7MBYqzF7Xogdo69nG-ShaTauhrrLOnME2AM-jN87j83Hx6YpWiRI87CJvLYoLWVOfyWhylnzFy_D3eAziU_0DB-zQwQcmwFBUaPHjaNBu0gZePah_Av78uk-RV0Hmq2R1hat_vXEPfg9Oq_gwoEIoTdGwi4JqubA2_xk8pcV3L-__0_Y8CJrywTs-uhNKiwozV_2PSjQGlm0]--></g></svg>