<?xml version="1.0" encoding="UTF-8" standalone="no"?>
<!-- Created with Inkscape (http://www.inkscape.org/) -->

<svg
   width="210mm"
   height="297mm"
   viewBox="0 0 210 297"
   version="1.1"
   id="svg1"
   xml:space="preserve"
   inkscape:version="1.3 (0e150ed6c4, 2023-07-21)"
   sodipodi:docname="file explore.svg"
   inkscape:export-filename="file explore.png"
   inkscape:export-xdpi="37.524982"
   inkscape:export-ydpi="37.524982"
   xmlns:inkscape="http://www.inkscape.org/namespaces/inkscape"
   xmlns:sodipodi="http://sodipodi.sourceforge.net/DTD/sodipodi-0.dtd"
   xmlns="http://www.w3.org/2000/svg"
   xmlns:svg="http://www.w3.org/2000/svg"><sodipodi:namedview
     id="namedview1"
     pagecolor="#ffffff"
     bordercolor="#000000"
     borderopacity="0.25"
     inkscape:showpageshadow="2"
     inkscape:pageopacity="0.0"
     inkscape:pagecheckerboard="0"
     inkscape:deskcolor="#d1d1d1"
     inkscape:document-units="mm"
     inkscape:zoom="5.5517957"
     inkscape:cx="211.10287"
     inkscape:cy="349.70667"
     inkscape:window-width="1920"
     inkscape:window-height="1017"
     inkscape:window-x="3832"
     inkscape:window-y="-8"
     inkscape:window-maximized="1"
     inkscape:current-layer="layer1" /><defs
     id="defs1" /><g
     inkscape:label="Layer 1"
     inkscape:groupmode="layer"
     id="layer1"><path
       d="m 51.555687,100.53957 c -0.513296,0 -0.947759,-0.17783 -1.30339,-0.53348 -0.355656,-0.355634 -0.533484,-0.790098 -0.533484,-1.303391 v -11.56821 c 0,-0.513293 0.177828,-0.947757 0.533484,-1.30339 0.355631,-0.355653 0.790094,-0.53348 1.30339,-0.53348 h 5.578906 l 2.032241,2.03228 h 8.021581 c 0.513296,0 0.947759,0.177813 1.30339,0.53344 0.355656,0.35566 0.533484,0.790137 0.533484,1.30343 v 9.53593 c 0,0.513293 -0.177828,0.947757 -0.533484,1.303391 -0.355631,0.35565 -0.790094,0.53348 -1.30339,0.53348 z"
       id="path1"
       style="fill:#e9edf6;fill-opacity:1;stroke-width:1;stroke:#36618e;stroke-opacity:1;stroke-dasharray:none"
       sodipodi:nodetypes="scsscsccsssscss" /><path
       d="m 66.56742,101.8138 -3.93168,-3.902327 c -0.38691,0.28141 -0.80868,0.49571 -1.26529,0.6429 -0.45661,0.14722 -0.92071,0.22083 -1.3923,0.22083 -1.27317,0 -2.35845,-0.44487 -3.25582,-1.33462 -0.89735,-0.88977 -1.34602,-1.97071 -1.34602,-3.24284 0,-1.27208 0.4489,-2.35302 1.34671,-3.24281 0.89781,-0.88974 1.98362,-1.33461 3.25744,-1.33461 1.27384,0 2.3589,0.44487 3.25517,1.33461 0.89627,0.88979 1.34441,1.9691 1.34441,3.23793 0,0.47159 -0.0736,0.93569 -0.22083,1.3923 -0.14722,0.45661 -0.36479,0.87511 -0.6527,1.2555 l 3.93168,3.902367 z m -6.58927,-4.562777 c 0.85493,0 1.58161,-0.29637 2.18006,-0.88912 0.59845,-0.59274 0.89768,-1.31414 0.89768,-2.1642 0,-0.85001 -0.29923,-1.57138 -0.89768,-2.16412 -0.59845,-0.59277 -1.32513,-0.88916 -2.18006,-0.88916 -0.85489,0 -1.58157,0.29639 -2.18002,0.88916 -0.59845,0.59274 -0.89768,1.31411 -0.89768,2.16412 0,0.85006 0.29923,1.57146 0.89768,2.1642 0.59845,0.59275 1.32513,0.88912 2.18002,0.88912 z"
       id="path1-2"
       style="stroke-width:0.007;fill:#969696;fill-opacity:1;stroke-dasharray:none"
       sodipodi:nodetypes="ccsssscscsscccsssssssss" /></g></svg>
