<?xml version="1.0" encoding="UTF-8" standalone="no"?>
<svg
   height="40"
   viewBox="0 -960 960 960"
   width="40"
   version="1.1"
   id="svg1"
   sodipodi:docname="visibility_FILL0_wght400_GRAD0_opsz40.svg"
   inkscape:version="1.3 (0e150ed6c4, 2023-07-21)"
   inkscape:export-filename="visibility_FILL0_wght400_GRAD0_opsz40.png"
   inkscape:export-xdpi="86.400002"
   inkscape:export-ydpi="86.400002"
   xmlns:inkscape="http://www.inkscape.org/namespaces/inkscape"
   xmlns:sodipodi="http://sodipodi.sourceforge.net/DTD/sodipodi-0.dtd"
   xmlns="http://www.w3.org/2000/svg"
   xmlns:svg="http://www.w3.org/2000/svg">
  <defs
     id="defs1" />
  <sodipodi:namedview
     id="namedview1"
     pagecolor="#ffffff"
     bordercolor="#000000"
     borderopacity="0.25"
     inkscape:showpageshadow="2"
     inkscape:pageopacity="0.0"
     inkscape:pagecheckerboard="0"
     inkscape:deskcolor="#d1d1d1"
     inkscape:zoom="19.475"
     inkscape:cx="20"
     inkscape:cy="20"
     inkscape:window-width="1920"
     inkscape:window-height="1017"
     inkscape:window-x="3832"
     inkscape:window-y="-8"
     inkscape:window-maximized="1"
     inkscape:current-layer="svg1" />
  <path
     d="M480.078-326.667q72.255 0 122.755-50.578 50.5-50.579 50.5-122.833 0-72.255-50.578-122.755-50.579-50.5-122.833-50.5-72.255 0-122.755 50.578-50.5 50.579-50.5 122.833 0 72.255 50.578 122.755 50.579 50.5 122.833 50.5Zm-.235-62.666q-46.176 0-78.343-32.324-32.167-32.323-32.167-78.5 0-46.176 32.324-78.343 32.323-32.167 78.5-32.167 46.176 0 78.343 32.324 32.167 32.323 32.167 78.5 0 46.176-32.324 78.343-32.323 32.167-78.5 32.167ZM480-200q-134.667 0-245.167-74.667-110.5-74.666-176.5-192.666-4.333-7.75-6.5-15.931-2.166-8.18-2.166-16.792 0-8.611 2.166-16.753 2.167-8.143 6.5-15.858 66-118 176.5-192.666Q345.333-800 480-800t245.167 74.667q110.5 74.666 176.5 192.666 4.333 7.75 6.5 15.931 2.166 8.18 2.166 16.792 0 8.611-2.166 16.753-2.167 8.143-6.5 15.858-66 118-176.5 192.666Q614.667-200 480-200Zm0-300Zm-.112 233.334q118.445 0 217.612-63.5Q796.667-393.667 848.667-500q-52-106.333-151.054-169.834-99.055-63.5-217.501-63.5-118.445 0-217.612 63.5Q163.333-606.333 110.666-500q52.667 106.333 151.721 169.834 99.055 63.5 217.501 63.5Z"
     id="path1"
     style="fill:#a3a5aa;fill-opacity:0.75"
     inkscape:export-filename="visibility.png"
     inkscape:export-xdpi="96.37188"
     inkscape:export-ydpi="96.37188" />
</svg>
