<?xml version="1.0" encoding="UTF-8" standalone="no"?>
<svg
   height="40"
   viewBox="0 -960 960 960"
   width="40"
   version="1.1"
   id="svg1"
   sodipodi:docname="visibility_off_FILL0_wght400_GRAD0_opsz40.svg"
   inkscape:version="1.3 (0e150ed6c4, 2023-07-21)"
   inkscape:export-filename="visibility_off_FILL0_wght400_GRAD0_opsz40.png"
   inkscape:export-xdpi="86.400002"
   inkscape:export-ydpi="86.400002"
   xmlns:inkscape="http://www.inkscape.org/namespaces/inkscape"
   xmlns:sodipodi="http://sodipodi.sourceforge.net/DTD/sodipodi-0.dtd"
   xmlns="http://www.w3.org/2000/svg"
   xmlns:svg="http://www.w3.org/2000/svg">
  <defs
     id="defs1" />
  <sodipodi:namedview
     id="namedview1"
     pagecolor="#ffffff"
     bordercolor="#000000"
     borderopacity="0.25"
     inkscape:showpageshadow="2"
     inkscape:pageopacity="0.0"
     inkscape:pagecheckerboard="0"
     inkscape:deskcolor="#d1d1d1"
     inkscape:zoom="19.475"
     inkscape:cx="20"
     inkscape:cy="20"
     inkscape:window-width="1920"
     inkscape:window-height="1017"
     inkscape:window-x="3832"
     inkscape:window-y="-8"
     inkscape:window-maximized="1"
     inkscape:current-layer="svg1" />
  <path
     d="M602.333-622.333q29 29 42.5 69.667Q658.333-512 651-471q0 13.667-9.333 22.834-9.334 9.166-23 9.166-13.667 0-22.834-9.166-9.166-9.167-9.166-22.834 9-31.333.666-59.667-8.333-28.333-28.666-48Q539-599 510.333-607.333q-28.667-8.334-59.667.666-13.666 0-22.833-9.333-9.167-9.333-9.167-23t9.167-22.833Q437-671 450.666-671q40.667-7.333 81.667 6.167t70 42.5ZM486.667-733.334q-27.667 0-55.001 2.5-27.333 2.5-54 10.5-13.667 3.667-26.167-2.333-12.5-6-17.5-18.666-5-12.667 1.167-25.334 6.166-12.666 18.833-16.333 31-9 63.501-13 32.5-4 65.833-4 137 0 249.834 74.333Q846-651.333 906-528.667q3.333 6.667 5.333 13.834 2 7.166 2 14.833t-1.5 14.833q-1.5 7.167-4.833 13.834-21.333 46-51.5 85.333-30.167 39.334-68.834 72.334-10 9-22.666 6.666-12.667-2.333-20.667-13-8-10.666-6.5-23.499 1.5-12.834 11.5-21.834 32-27.666 58.001-61 26-33.333 42.333-73.667-49.333-106.333-146.833-169.834-97.5-63.5-215.167-63.5ZM480-200q-135.333 0-246.667-74.833Q122-349.667 56.667-469q-4.334-7.333-6.167-14.833-1.833-7.5-1.833-16.167 0-8.667 2-16t5.666-15q22.667-45.333 52.5-85.833 29.834-40.501 67.834-73.834l-97.667-98q-9.667-10-9.167-23.5t9.5-23.167Q89-845 103-845q14 0 23.666 9.666l704.001 704.001q9 9 9.167 22.166Q840-96 830.667-86q-9 10.333-23 10.333t-23.666-9.666L640-226.667Q601-213 561-206.5q-40 6.5-81 6.5ZM222.667-644.001q-37.001 28-65.667 64.334-28.667 36.333-46.334 79.667Q162-391.666 263.166-329.166q101.167 62.5 222.167 62.5 26.001 0 51.668-1.834 25.666-1.833 49.667-11.5L532-335.334q-13 5-26 6.834-13 1.833-26 1.833-72.333 0-122.833-50.5T306.667-500q0-13 2.167-26 2.166-13 6.5-26l-92.667-92.001Zm309.666 125.668Zm-127.666 63.666Z"
     id="path1"
     style="fill:#a3a5aa;fill-opacity:0.75"
     inkscape:export-filename="visibility - off.png"
     inkscape:export-xdpi="95.926048"
     inkscape:export-ydpi="95.926048" />
</svg>
